<svg xmlns="http://www.w3.org/2000/svg" viewBox="0 0 43.8 42.5"><g data-name="Calque 2"><g data-name="Calque 1" fill="#fff"><path d="M6.6 21.5v-.8l-.8.2-.7.2.7.2zm-1 2c-.3 0-.5.3-.5.7v.3h1.1v-.2c0-.5-.2-.8-.6-.8z"/><path d="M8.6 26V13.6l4.3-.2a22.2 22.2 0 0 0 7.3-2.4c4.4-2.3 5.4-2.6 9-3.4a26.5 26.5 0 0 1 6-.6l-2-4.2A5.1 5.1 0 0 0 26.3.5L3.1 11.3a5.3 5.3 0 0 0-2.7 6.8l4 8.5v-.5zm-.5-.6H4.6a3.8 3.8 0 0 1-.1-1.2 1.6 1.6 0 0 1 .3-1.1.9.9 0 0 1 .8-.4 1.2 1.2 0 0 1 .9.3 2.2 2.2 0 0 1 .4 1.3c0 .1 0 .2-.1.2h1.3zm0-5.2l-.9.3v1.1l.9.3v.9l-3.6-1.2v-1.1l3.6-1.2zm0-1.7H6.7l-2.2 1.2v-1l.9-.4.7-.3-.7-.3-.9-.4v-.9l2.1 1.2h1.5zm-3.5-4.7l.7.2a1.5 1.5 0 0 0-.2.8c0 .4.2.6.4.6s.3-.3.5-.8a1.1 1.1 0 0 1 1.1-.9c.6 0 1.1.5 1.1 1.5a3.1 3.1 0 0 1-.2 1.1l-.7-.2a2.5 2.5 0 0 0 .2-1c0-.4-.1-.6-.4-.6s-.3.2-.5.7-.5 1-1.1 1-1-.5-1-1.4a2.8 2.8 0 0 1 .1-1zm38.7 10.7l-2.6-5.7v8h-.9v1.3a50.8 50.8 0 0 0-7.2.5C21.2 32.2 17.4 38 10.3 39l.3.6a5.1 5.1 0 0 0 6.8 2.4l23.2-10.8a5.1 5.1 0 0 0 2.7-6.7zm-3.5-2.1z"/><path d="M39.8 26.5H22.4V29c0 .8-.5 1.5-1.7 1.5h-1.8v-1.6h-2.2v1.6h-2.5v-1.6h-2.3v1.6h-1.4c-1.3-.1-1.8-.5-1.9-1.5v-3H4.4v11.9c13.2 0 15.6-7.2 28.2-9.2a54 54 0 0 1 7.2-1.8z"/><path d="M39.8 26.9a54 54 0 0 0-7.2 1.8 50.8 50.8 0 0 1 7.2-.5zM8.7 26a63.1 63.1 0 0 0 11.5-1.3v-3.2l-1.1.2c-1.3 0-2-.6-2-1.9v-2.1h1.3v2.2c0 .6.3.9.8.9s.7-.3.7-.9v-2.2h.3v-5.9l2.2-1c-3.9 1.9-5.1 2.5-9.5 2.7a25.8 25.8 0 0 1-4.2.3zm1.7-4.4H9.1v-4.1h1.3zm3.2-3.9h1.7l1.4 3.9h-1.4l-.3-.9h-1.2l-.3.9h-1.4zm-1.7-3.2a.7.7 0 0 1 .8.7v.2h-1.1c0 .2.2.2.5.2h.4v.3H12c-.6 0-.9-.3-.9-.7a.7.7 0 0 1 .8-.7zm.2 3.1l-.2 1.6h-.7l-.2-1.6zm-2.4-3.1a.6.6 0 0 1 .5.2v-.8h.5v2h-.4v-.2h-.1a.5.5 0 0 1-.5.3.7.7 0 0 1-.7-.7.7.7 0 0 1 .7-.8z"/><path d="M11.9 14.8a.3.3 0 0 0-.3.3h.6a.3.3 0 0 0-.3-.3zm-2 .8l.3-.2v-.2c0-.2-.2-.2-.3-.2s-.4.1-.4.3a.4.4 0 0 0 .4.3zm4.7 3.6c-.1-.2-.1-.5-.2-.7l-.3.7-.2.7h.9z"/><path d="M8.6 26h.1V13.7a25.8 25.8 0 0 0 4.2-.3l-4.3.2zm0 0v3c0-.9.1-1.9.1-3zm11.6-8.3h1.1v2.2a1.6 1.6 0 0 1-1.1 1.6v3.2c4.9-1 8.5-2.3 19.6-2.3V10.8c0-1-.3-1.6-2-2a23 23 0 0 0-6.6-.5 21.6 21.6 0 0 0-8.8 2.5l-2.2 1zm15 2.3c-.8-.2-1.4-.6-1.4-1.1s.7-1.3 2-1.3l1.3.2-.3.9-1-.2c-.4 0-.7.1-.7.3s.3.3.9.4 1.3.7 1.3 1.2-.7 1.3-2.1 1.3a3.7 3.7 0 0 1-1.4-.3l.2-.8 1.3.2c.4 0 .7-.1.7-.3s-.3-.3-.8-.5zm-3.5-2.3H33v3.9h-1.3zm-3.1-.1a2.1 2.1 0 0 1 2.4 2c0 1.3-.9 2.1-2.4 2.1a2.1 2.1 0 0 1-2.4-2 2.2 2.2 0 0 1 2.4-2.1zm-6.8.1h1.5l.4.6.3.7.3-.7.3-.6h1.5l-1.3 1.9 1.4 2h-1.5l-.4-.6a1.6 1.6 0 0 0-.4-.7l-.3.7-.3.6h-1.5l1.4-2z"/><path d="M28.6 20.8c.7 0 1-.4 1-1.1s-.3-1.2-1-1.2-1 .4-1 1.2a1 1 0 0 0 1 1.1zm-8.4 5.7h19.6v-4.1c-11.1 0-14.7 1.3-19.6 2.3zm0-14.7v5.9-5.9zm0 9.7v3.2-3.2zm0 3.2v1.8-1.8z"/></g></g></svg>