<svg xmlns="http://www.w3.org/2000/svg" viewBox="0 0 48.9 37"><g data-name="Calque 2"><path d="M7.3 16.3A1.2 1.2 0 0 1 6.1 15a1.3 1.3 0 0 1 1.2-1.4A1.3 1.3 0 0 1 8.6 15a1.2 1.2 0 0 1-1.3 1.3m0-3.9A2.6 2.6 0 1 0 9.8 15a2.5 2.5 0 0 0-2.5-2.6m5.9 5.1a1.8 1.8 0 0 0 2-1.9v-3.1H14v3.2a.8.8 0 1 1-1.6 0v-3.2h-1.3v3a1.8 1.8 0 0 0 2.1 2m4.6-2.5v-1.5h.8c.4 0 .6.3.6.7s-.2.8-.6.8zm.9 1l.8 1.3v.2H21v-.2l-.7-1.1-.4-.7c.5-.2.7-.7.7-1.4a1.6 1.6 0 0 0-1.7-1.7h-2.4v4.9h1.3V16zM2 16.5h-.7v-1.2H2a.6.6 0 0 1 .6.6.5.5 0 0 1-.6.6m-.7-3.1h.6c.4 0 .5.2.5.5s-.1.6-.5.6h-.6zm1.6 1.5a1.1 1.1 0 0 0 .9-1.1 1.3 1.3 0 0 0-1.5-1.3H.1v4.9h2.4A1.4 1.4 0 0 0 3.9 16a1.3 1.3 0 0 0-1-1.2M30 16.3a1.2 1.2 0 0 1-1.2-1.3 1.2 1.2 0 1 1 2.4 0 1.2 1.2 0 0 1-1.2 1.3m0-3.9a2.6 2.6 0 1 0 2.5 2.6 2.5 2.5 0 0 0-2.5-2.6m6.3 14.9h1.3v-5h-1.3v1.8h-1.8v-1.8h-1.3v5h1.3v-2h1.8v2m-29.9.2h1.3v-1.9h2v-1.1h-2v-1.2h2.2a4.1 4.1 0 0 0 0-1.1H6.4v5.2zm6.1-2.6v-1.5h.8a.6.6 0 0 1 .7.7.7.7 0 0 1-.7.8zm1 1l.8 1.3a.1.1 0 0 0 .1.1h1.3c-.2-.4-.5-.8-.6-1.1l-.4-.7a1.5 1.5 0 0 0 .7-1.4 1.7 1.7 0 0 0-1.8-1.7h-2.3v5h1.2v-1.5h1zm4.7-.2l.5-1.2.6 1.3h-1.1zm-.5 1.3c0-.1.1-.2.2-.3h1.8a2.1 2.1 0 0 0 .2.6h1.4c-.2-.5-.5-1-.7-1.6l-1.7-3.4h-.2c-.5 1-1.7 3.4-2.4 5h1.3c0-.1.1-.2.1-.3m12.1.3a2.4 2.4 0 0 0 2.2-1.4l-1.1-.3h-.1a1 1 0 0 1-1 .6c-.6 0-1.2-.4-1.2-1.4a1.2 1.2 0 0 1 1.2-1.3 1.3 1.3 0 0 1 1.1.6l1.1-.5a2.4 2.4 0 0 0-2.2-1.4 2.4 2.4 0 0 0-2.5 2.5 2.4 2.4 0 0 0 2.5 2.5M2.5 37a2.2 2.2 0 0 0 2.2-1.4l-1.1-.3a1.1 1.1 0 0 1-1.1.6c-.6 0-1.2-.4-1.2-1.4a1.2 1.2 0 0 1 1.2-1.3 1.1 1.1 0 0 1 1.1.6l1.1-.4A2.4 2.4 0 0 0 2.5 32 2.5 2.5 0 0 0 0 34.5 2.4 2.4 0 0 0 2.5 37m5.7-1.1a1.3 1.3 0 0 1-1.3-1.4 1.2 1.2 0 0 1 1.3-1.3 1.2 1.2 0 0 1 1.2 1.3 1.3 1.3 0 0 1-1.2 1.4m0-3.9a2.5 2.5 0 1 0 0 5 2.5 2.5 0 1 0 0-5m7 2.8V37h1.3c-.1-1.9-.1-3.1-.2-5h-.1L14 34.3h-.1l-2.2-2.2c-.1 1.8-.2 3.6-.2 4.9h1.2v-2.2l1.2 1.2h.1l1.1-1.1zm6.1-1.8v-.9h-4v.9h1.3v4H20v-4h1.3M18.9 3.9h-.7v1.5h.7a.7.7 0 0 0 .7-.7.6.6 0 0 0-.7-.7m2.4 3.9h-1.5a7.9 7.9 0 0 0-.8-1.5h-.8v1.4h-1.3V2.9h2.3A1.7 1.7 0 0 1 21 4.5a1.5 1.5 0 0 1-.7 1.4l1 1.7c.1.2.1.2 0 .2m10.6 0h-.1l-.8-.4a2 2 0 0 1-1.3.4 2.4 2.4 0 0 1-2.5-2.5 2.4 2.4 0 0 1 2.5-2.5 2.3 2.3 0 0 1 2.2 1.3l-1.1.4c0 .1-.1 0-.1 0a1.2 1.2 0 0 0-1-.6 1.2 1.2 0 0 0-1.2 1.3 1.2 1.2 0 0 0 1.2 1.3.9.9 0 0 0 1-.9h1.2v2.2m2.8 0h-1.3V2.9h1.3v4.9M38.5 4a1.2 1.2 0 0 0-1.2 1.3 1.2 1.2 0 0 0 1.2 1.3c.8 0 1.2-.5 1.2-1.3A1.2 1.2 0 0 0 38.5 4m0 3.8A2.5 2.5 0 1 1 41 5.3a2.5 2.5 0 0 1-2.5 2.5m7.9 0h-.1c-1.1-.8-2.7-2.3-2.7-2.3v2.3h-1.2a40.1 40.1 0 0 1 0-4.9h.1a33.9 33.9 0 0 1 2.7 2.3V2.9h1.1c.1 0 .1 0 .1.1v4.7M26.2 27.3c-1.1-.8-2.7-2.3-2.7-2.3v2.3h-1.2a40.1 40.1 0 0 1 0-4.9c1 .7 2.8 2.3 2.8 2.3v-2.3h1.2v4.8c0 .1 0 .1-.1.1m12.1-9.8h-.1l-.8-.5a2 2 0 0 1-1.3.5 2.4 2.4 0 0 1-2.5-2.5 2.5 2.5 0 0 1 2.6-2.6 2.2 2.2 0 0 1 2.1 1.3v.2l-1.1.4a.1.1 0 0 1-.1-.1.9.9 0 0 0-.9-.5c-.8 0-1.2.5-1.2 1.3s.4 1.3 1.2 1.3a1 1 0 0 0 1-.9h1.1v2.1m-11.7 0h-.1l-.8-.5a2 2 0 0 1-1.3.5 2.4 2.4 0 0 1-2.5-2.5 2.5 2.5 0 0 1 2.5-2.6 2.3 2.3 0 0 1 2.2 1.3c0 .1 0 .2-.1.2l-1 .4a.1.1 0 0 1-.1-.1 1.1 1.1 0 0 0-1-.5 1.2 1.2 0 0 0-1.2 1.3 1.2 1.2 0 0 0 1.2 1.3.9.9 0 0 0 1-.9h1.2v2.1M26 37h-3.5c-.1 0-.1 0-.1-.1v-4.8c0-.1 0-.1.1-.1H26c.1 0 .1 0 .1.1v.9c0 .1 0 .1-.1.1h-2.3v.8h2c.1 0 .1 0 .1.1v.9c0 .1 0 .1-.1.1h-2v.9H26c.1 0 .1 0 .1.1v.9c0 .1 0 .1-.1.1m0-29.2h-3.6V2.9c0-.1 0-.1.1-.1H26c.1 0 .1 0 .1.1v.9c0 .1 0 .1-.1.1h-2.3v.8h2.1v.9h-2.1v.9h2.4v.9H26m17.9 10.1c-.1 0-.1 0-.1-.1a21.5 21.5 0 0 1-2.7-2.3v2.3c0 .1 0 .1-.1.1h-1.1a40 40 0 0 1 0-4.9 25.9 25.9 0 0 1 2.8 2.3v-2.4h1.2v4.9m-1.4 9.9H39c-.1 0-.1 0-.1-.1v-4.8h3.7v.9h-2.4v.8h2c.1 0 .1 0 .1.1v.9c0 .1 0 .1-.1.1h-2v.9h2.3c.1 0 .1 0 .1.1v.9c0 .1 0 .1-.1.1m6.3-9.7h-3.6v-5h3.7v.9h-2.4v.9h2.1v.9h-2.1v.8h2.4v1c0 .1 0 .1-.1.1m-26.6 12h4.1v1.06h-4.1zm0-9.7h4.1v1.06h-4.1zm0-9.8h4.1v1.06h-4.1zm0-9.6h4.1v1.06h-4.1z" data-name="Calque 1" fill="#fff"/></g></svg>