<svg xmlns="http://www.w3.org/2000/svg" viewBox="0 0 66.8 19.9"><g data-name="Calque 2"><path d="M0 .2h5.6v1.2H1.4v2h3.9v1.1H1.4v2.3h4.3V8H0zm6.8 0h1.5L11.9 6V.2h1.3V8h-1.5L8.2 2.3V8H6.8zm7.3 0h6.3v1.2h-2.5V8h-1.4V1.4h-2.4zm7.2 0h3.8a3.3 3.3 0 0 1 1.9.5 2.1 2.1 0 0 1 .6 1.6 2.2 2.2 0 0 1-.1.9 1.5 1.5 0 0 1-.4.6l-.4.3-.4.2h.4l.4.3.3.5a1.7 1.7 0 0 1 .1.8 4.9 4.9 0 0 0 .1 1.2 3.4 3.4 0 0 0 .3.8h-1.4c-.1-.2-.2-.3-.2-.5v-.5c0-.4-.1-.7-.1-1s-.1-.4-.3-.6a.8.8 0 0 0-.4-.4h-2.8V8h-1.4zm1.4 3.5h2.2a1.3 1.3 0 0 0 1-.3 1 1 0 0 0 .4-.9c0-.2-.1-.5-.1-.6l-.3-.4-.5-.2h-2.7zM29 .2h5.7v1.2h-4.3v2h3.9v1.1h-3.9v2.3h4.3V8H29zm6.9 0h3.5l1.3.2.9.6c.1.3.3.5.3.8a2.5 2.5 0 0 1 .1.8 2.5 2.5 0 0 1-.1.8c0 .3-.2.5-.3.8l-.9.6-1.3.2h-2.1v3h-1.4zm1.4 3.7h2.5l.4-.2.4-.4c0-.1.1-.4.1-.6a3.5 3.5 0 0 0-.1-.6l-.3-.4-.5-.2h-2.5zM43.2.2H47a3.3 3.3 0 0 1 1.9.5 2.2 2.2 0 0 1 .7 1.6 2 2 0 0 1-.2.9.9.9 0 0 1-.4.6.5.5 0 0 1-.4.3l-.3.2h.4l.3.3.3.5a1.7 1.7 0 0 1 .1.8c0 .4.1.8.1 1.2a1.5 1.5 0 0 0 .4.8h-1.5c-.1-.2-.2-.3-.2-.5v-.5a3.1 3.1 0 0 0-.1-1 1.4 1.4 0 0 0-.2-.6 1 1 0 0 0-.5-.4h-2.8V8h-1.4zm1.4 3.5h2.3a1.7 1.7 0 0 0 1-.3 1.2 1.2 0 0 0 .3-.9c0-.2 0-.5-.1-.6l-.3-.4-.5-.2h-2.7zM51 .2h1.3V8H51zm3.9 5.2a1.9 1.9 0 0 0 .2.8 1 1 0 0 0 .4.5l.6.3h1.6l.5-.3.3-.4v-.4a.8.8 0 0 0-.2-.7l-.4-.3-1-.3-1.3-.3a1.9 1.9 0 0 1-.9-.4l-.5-.4-.3-.6c0-.2-.1-.4-.1-.6a1.7 1.7 0 0 1 .3-1 1.4 1.4 0 0 1 .6-.7l.9-.5h1.1l1.1.2 1 .4a2.7 2.7 0 0 1 .7.8 3.6 3.6 0 0 1 .2 1.1h-1.4a1.3 1.3 0 0 0-.5-1.1 2.1 2.1 0 0 0-1.2-.3h-.9l-.4.3a.9.9 0 0 0-.1.5.9.9 0 0 0 .3.7 1.1 1.1 0 0 0 .6.3h.4l.6.2.8.2h.5l.7.4.4.5a.5.5 0 0 1 .3.5 1.3 1.3 0 0 1 .1.6 2.1 2.1 0 0 1-.3 1.2 1.6 1.6 0 0 1-.7.7l-1 .5h-1.1l-1.3.2a1.9 1.9 0 0 1-1-.5 2.7 2.7 0 0 1-.7-.8 2.8 2.8 0 0 1-.3-1.3zM61.1.2h5.6v1.2h-4.2v2h3.9v1.1h-3.9v2.3h4.3V8h-5.7zM19.8 19.7h-.9l-.2-.9a2.1 2.1 0 0 1-1.1.8 2.1 2.1 0 0 1-1.2.3 4.1 4.1 0 0 1-1.6-.3 5.4 5.4 0 0 1-1.2-.9 5.4 5.4 0 0 1-.7-1.3 4.4 4.4 0 0 1 0-3.2 5.4 5.4 0 0 1 .7-1.3 3.4 3.4 0 0 1 1.2-.9 4.1 4.1 0 0 1 1.6-.3 2.5 2.5 0 0 1 1.2.2 1.9 1.9 0 0 1 1 .5l.8.8a2.1 2.1 0 0 1 .3 1.2h-1.3a1.4 1.4 0 0 0-.2-.7l-.5-.5-.6-.3h-.7a2 2 0 0 0-1.1.3c-.3.1-.5.4-.7.6a3.1 3.1 0 0 0-.5 1c0 .3-.1.7-.1 1.1s.1.7.1 1.1a2.6 2.6 0 0 0 .5.9 2.3 2.3 0 0 0 .7.7 2 2 0 0 0 1.1.3l.9-.2.7-.4a1.6 1.6 0 0 0 .4-.7 2.9 2.9 0 0 0 .2-.9h-2.1v-1h3.3zm1.5-7.8h1.4v7.8h-1.4zm3.1 0h3.7a3.1 3.1 0 0 1 1.9.5 1.9 1.9 0 0 1 .7 1.6 2 2 0 0 1-.2.9.9.9 0 0 1-.4.6.5.5 0 0 1-.4.3l-.3.2h.4l.3.3a.5.5 0 0 1 .3.5 1.4 1.4 0 0 1 .2.7 5.3 5.3 0 0 0 .1 1.3 1 1 0 0 0 .3.8h-1.5a1.4 1.4 0 0 1-.2-.6v-.6a2.8 2.8 0 0 0-.1-.9 1.1 1.1 0 0 0-.2-.5 1 1 0 0 0-.5-.4h-2.8v3.2h-1.3zm1.3 3.5H28a1.7 1.7 0 0 0 1-.3 1.2 1.2 0 0 0 .3-.9c0-.3 0-.5-.1-.6l-.3-.4-.4-.2h-2.8zm8.5-3.5h1.4l3 7.8h-1.4l-.8-2.1h-3.1l-.7 2.1h-1.4zm-.5 4.7h2.4l-1.2-3.4zm5.7-4.7h3.7a3.7 3.7 0 0 1 2 .5 2.1 2.1 0 0 1 .6 1.6c0 .4 0 .7-.2.9l-.3.6c-.2.2-.3.3-.5.3l-.3.2h.4c.1.1.3.1.4.3l.3.5c0 .2.1.4.1.7a5.3 5.3 0 0 0 .1 1.3 1.5 1.5 0 0 0 .3.8h-1.5a1.3 1.3 0 0 1-.1-.6 1.3 1.3 0 0 1-.1-.6v-.9a3.3 3.3 0 0 0-.3-.5 1 1 0 0 0-.5-.4h-2.7v3.2h-1.4zm1.4 3.5H43a1.5 1.5 0 0 0 1-.3 1.2 1.2 0 0 0 .3-.9c0-.3 0-.5-.1-.6s-.1-.3-.3-.4l-.4-.2h-2.7zm6.3-3.5h3.2a3.8 3.8 0 0 1 1.6.3l1.1.8a3.1 3.1 0 0 1 .6 1.3 6.1 6.1 0 0 1 .2 1.5 7.7 7.7 0 0 1-.2 1.5 3.1 3.1 0 0 1-.6 1.3l-1.1.8a3.8 3.8 0 0 1-1.6.3h-3.2zm1.4 6.7h1.3l1.3-.2.8-.6a1.8 1.8 0 0 0 .4-.9 4.1 4.1 0 0 0 .1-1.1 3.7 3.7 0 0 0-.1-1.1 1.5 1.5 0 0 0-.4-.9 1.2 1.2 0 0 0-.8-.6l-1.3-.2h-1.3z" data-name="Calque 1" fill="#fff"/></g></svg>