<svg id="Calque_1" data-name="Calque 1" xmlns="http://www.w3.org/2000/svg" viewBox="0 0 495.35 248.71"><defs><style>.cls-1{fill:#fff;}</style></defs><title>both</title><path class="cls-1" d="M303.49,100.91c1.63,0,3.26,0,4.89,0s3.33,0,5,0c.51,0,.72-.15.75-.67.19-4.46-2.74-6.9-7.45-5.88a5.28,5.28,0,0,0-3.93,6C302.77,100.62,303.23,100.9,303.49,100.91Z"/><path class="cls-1" d="M304.74,53.57h.57c2.13,0,2.42-.41,1.75-2.44a.59.59,0,0,0,0-.08,2,2,0,0,0-2.14-1.44c-1.25,0-1.87.35-2.23,1.42a10.63,10.63,0,0,0-.32,1.7c-.1.61.12.92.81.85C303.67,53.53,304.21,53.57,304.74,53.57Z"/><path class="cls-1" d="M304.68,124.3l5.42,2v-4Z"/><path class="cls-1" d="M384,135.55a12.87,12.87,0,0,0-1.05-1.93c-.76-1.1-2-1.88-2.36-3.27-.05-.17-.37-.29-.58-.41a8.36,8.36,0,0,1-3.87-4,3.93,3.93,0,0,0-1.84-2.27c-1-.51-1.8-1.31-2.79-1.78a2.2,2.2,0,0,1-1.07-1.14,4.45,4.45,0,0,0-1.54-2,16.35,16.35,0,0,1-4.83-3.72,8.38,8.38,0,0,0-1.89-1.31c-1-.58-2.09-1.08-3.12-1.62a10.4,10.4,0,0,1-1.46-.83,24,24,0,0,1-1.86-1.62c-.79-.73-1.5-1.54-2.33-2.21a23,23,0,0,1-2.25-1.48,2.93,2.93,0,0,0-2.48-1.14,1.35,1.35,0,0,1-1.47-1.07,2.11,2.11,0,0,0-2.32-1.69,2.41,2.41,0,0,1-1.85-.92,2.33,2.33,0,0,0-1.13-.76,5.85,5.85,0,0,1-3.21-2.11c-1-1.19-2.47-1.34-3.9-1.47-.13,0-.43.34-.44.53q-.13,2.34-.18,4.68c0,.7.15,1.41.1,2.11-.07,1.25-.24,2.49-.39,4a8.48,8.48,0,0,0,.63,3,15.61,15.61,0,0,1,2.29,5.38.79.79,0,0,0,.56.47c1.48.11,2.07,1.21,2.77,2.24,1,1.52,2.15,3,3.23,4.51a.72.72,0,0,0,.22.17c1,.52,2,1.1,3.08,1.52s2.1.81,2.57,2a.8.8,0,0,0,.48.4c1.79.43,2.56,2.14,4,3.07,1.64,1.06,2.45,3.15,4.63,3.61.23,0,.37.41.6.57.73.5,1.47,1.39,2.23,1.4,2.4,0,4.38,1.29,6.59,1.84a8.83,8.83,0,0,1,1.89.77c.8.4,1.53,1.15,2.35,1.24a14.93,14.93,0,0,1,3.45.95c2.73,1,5.65.92,8.51,1.19a1,1,0,0,0,.85-.37c.58-1.34,1.06-2.69.24-4.14C384.59,137.16,384.34,136.32,384,135.55Z"/><path class="cls-1" d="M347,97c.17.13.5.06.72.15a22.94,22.94,0,0,1,2.43,1.07c.36.2.53.72.89.93a13.38,13.38,0,0,1,3.81,3.13,2.11,2.11,0,0,0,1,.6c1.58.54,3.18,1,4.76,1.56a1.45,1.45,0,0,1,.75.51,10.81,10.81,0,0,0,2.84,3c1.11.85,1.56.82,2.07-.49.45-1.15.8-2.39,2.2-2.93.3-.11.47-.61.68-1s.41-.82.68-1.19c.92-1.3.5-2.39-1.09-2.67a9.4,9.4,0,0,1-5-2,2.58,2.58,0,0,0-2.54-.6,1.43,1.43,0,0,1-.65,0c-2.65-.59-5.31-1.12-7.93-1.82a6.37,6.37,0,0,1-2.14-1.36,5.3,5.3,0,0,0-3.35-1.27,28.77,28.77,0,0,0-3.05.27c-.42,0-.83.13-1.34.21.12.3.12.41.19.46C344.27,94.71,345.62,95.85,347,97Z"/><path class="cls-1" d="M377.84,109c-.76-.93-1.49-1.88-2.27-2.79-.13-.15-.53-.27-.66-.18a30,30,0,0,0-2.69,1.93,11.17,11.17,0,0,0-1.24,1.41l-.32-.09c0,1-.06,1.9,0,2.83a1.94,1.94,0,0,0,.59,1.25,13.75,13.75,0,0,0,2.88,1.86,5.2,5.2,0,0,1,2.9,3.06,1.88,1.88,0,0,0,1.77,1.27,1.28,1.28,0,0,1,.73.32c1.64,1.73,3.27,3.46,4.87,5.22a2.81,2.81,0,0,1,.67,1.2c.14.6.4,1.14,1,1.11a1.92,1.92,0,0,0,1.4-.68c.19-.37-.08-1-.29-1.51a12.86,12.86,0,0,0-.95-1.57c-.49-.81-.93-1.67-1.49-2.43a1.54,1.54,0,0,1-.29-1.61,1.9,1.9,0,0,0-.6-2.15,9.06,9.06,0,0,1-1-1.41c-.34-.51-.64-1-1-1.55-.6-.85-1.3-1.63-1.82-2.52s-.71-2.31-2.07-2.76C377.94,109.21,377.89,109.09,377.84,109Z"/><path class="cls-1" d="M489.38,183.9q0-92,0-184c0-.87-.27-1.06-1.11-1.06q-94,0-188,0c-.89,0-1.15.22-1.15,1.11q0,22.85,0,45.69c0,.26,0,.51.05.9A6.29,6.29,0,0,1,305.4,44a5.59,5.59,0,0,1,5,4.22l8.2-6.1.25.17c0,1.86,0,3.72,0,5.59A1.69,1.69,0,0,1,318.2,49c-1.71,1.14-3.48,2.2-5.22,3.29l-2,1.25c2.48,0,4.67,0,6.86,0,.86,0,1.09.26,1,1-.06,1,0,2,0,3,0,1.35,0,1.35-1.41,1.35H300.15c-.56,0-1,0-1,.77,0,3,0,6,0,8.94,0,.58.22.75.78.73s1.38,0,2.07,0,.76.21.75.76c0,1.07,0,2.15,0,3.22,0,2.36,0,2.33,2.45,2.31.67,0,.88-.23.86-.86,0-1.41,0-2.82,0-4.23,0-.64.22-.87.88-.84,1,0,2,0,3,0,.74,0,.92.26.89.91,0,.89,0,1.78,0,2.67,0,2.42,0,2.4,2.52,2.35.62,0,.83-.21.82-.8,0-1.48,0-3,0-4.42,0-.77.18-1.14,1-1.08a20.72,20.72,0,0,0,2.73,0c.78,0,1,.24,1,1,0,3.17,0,6.33,0,9.49,0,1.24,0,1.24-1.32,1.24H300.43c-1.3,0-1.3,0-1.3,1.22V94.12c2.47-3.94,5.78-6,10.41-5.53a10.31,10.31,0,0,1,9.34,10.08c0,2.18-.05,4.36,0,6.54,0,.93-.26,1.2-1.22,1.19-5.87,0-11.73,0-17.6,0-.73,0-1,.18-1,.93,0,4.23,0,8.47,0,12.71a8.24,8.24,0,0,0,.08.87l5.75-2.29c3.77-1.5,7.54-3,11.32-4.5.31-.12,1-.09,1.08.06.75,1.7,1.41,3.44,2.14,5.28-1.24.39-2.35.79-3.49,1.1a.86.86,0,0,0-.73,1c0,1.84,0,3.69,0,5.53a1,1,0,0,0,.89,1.16c1.1.32,2.17.71,3.34,1.09-.78,2-1.51,3.81-2.27,5.71l-18-7.31c-.08.15-.13.2-.13.25q0,7.19,0,14.37c0,.5.22.64.68.63.91,0,1.82,0,2.9,0v3.87c0,2.39,0,2.37,2.5,2.28.61,0,.82-.24.81-.82,0-1.32,0-2.65,0-4,0-.81.21-1.2,1.11-1.14a23.25,23.25,0,0,0,2.64,0c.75,0,1.1.2,1,1s0,1.71,0,2.57c0,2.47,0,2.45,2.53,2.35.63,0,.81-.27.8-.84,0-1.5,0-3,0-4.51,0-.58.19-.83.82-.81,1,0,2,.06,3,0,.77,0,1,.25.95,1,0,3.19,0,6.39,0,9.58,0,.88-.3,1.07-1.14,1.06-5.9,0-11.8,0-17.69,0-.76,0-1,.21-.95.94q0,6.77,0,13.54c0,.68.19.89.9.89q6.59,0,13.18,0c.7,0,.94-.2.92-.89,0-1.53,0-3.07,0-4.61,0-.57.19-.82.83-.79a25.67,25.67,0,0,0,2.91,0c.87-.06,1,.28,1,1.06,0,3.13,0,6.26,0,9.39,0,1.25,0,1.26-1.32,1.26-5.81,0-11.61,0-17.42,0-.76,0-1,.18-1,1,.05,2.58.06,5.16,0,7.74,0,.84.27,1,1.07,1q94.05,0,188.1,0C489.14,185,489.38,184.76,489.38,183.9Zm-5-4.61c0,.55-.26.78-.81.76-.31,0-.62,0-.94,0H405.23c-.28,0-.57,0-.85,0-.61,0-.83-.26-.83-.84,0-5.37,0-10.74,0-16.12,0-.85.53-.79,1.12-.81a74.42,74.42,0,0,0,27.77-6,72.64,72.64,0,0,0,36.28-33.63,67.62,67.62,0,0,0,4.75-11.68c.08-.26.12-.52.2-.88l-9.93-2.71c-.26.78-.47,1.48-.72,2.16-8.14,22.1-23.84,35.93-47.25,41.3a56.5,56.5,0,0,1-11.16,1.3c-.86,0-1.14-.28-1.05-1.06,0-.3,0-.61,0-.92V76.85l-.25-.14a13.43,13.43,0,0,0-2.6,2c-1,1.27-2.47,1.85-3.65,2.83a36.34,36.34,0,0,0-2.89,2.93c-.29.31-.47.76-.81,1A11.28,11.28,0,0,0,389.87,89a13.83,13.83,0,0,1-2.42,2.27c-.9.83-1.79,1.68-2.67,2.53-.21.19-.35.48-.59.59a16,16,0,0,0-3.73,3.23,7.68,7.68,0,0,0-1.63,2.35,1.87,1.87,0,0,0,.35,1.52c1,1.37,2,2.69,3.13,4,.63.75,1.37,1.4,2,2.11a2.36,2.36,0,0,1,.5.65,8.18,8.18,0,0,0,2.29,3.4,2.19,2.19,0,0,1,.78,2.32.73.73,0,0,0,.1.58c1.09,1.42,2.2,2.81,3.29,4.22a6.05,6.05,0,0,1,.68,1.09c.34.71.64,1.45.95,2.18a2.76,2.76,0,0,1,.26.78c.1,1.21.16,2.42.22,3.64a1.29,1.29,0,0,1-.13.71c-.63.94-.21,1.72.25,2.56a7.08,7.08,0,0,1,.48,1.54c.29,1,.51,2.08.9,3.07a3.23,3.23,0,0,1-2,4.42,1.22,1.22,0,0,0-.64.73,3.18,3.18,0,0,0,.27,2.78,5.9,5.9,0,0,1,.42,2.85c0,.28-.41.7-.73.85a23.59,23.59,0,0,1-4.18,1.79,24.13,24.13,0,0,1-5.71.92,37.36,37.36,0,0,1-5-.68,17.83,17.83,0,0,0-3.93-.09,3.86,3.86,0,0,1-3.22-1.13c-.71-.64-1.28-1.28-2.42-1a3.87,3.87,0,0,1-1.64-.33c-1.49-.41-3-.8-4.46-1.28-.91-.3-1.75-.81-2.66-1.11a8.45,8.45,0,0,1-3.88-2.87,9.63,9.63,0,0,0-5.49-3,4.72,4.72,0,0,1-2.65-1.61c-.41-.46-.94-.81-1.36-1.26-.28-.29-.43-.7-.7-1a1.81,1.81,0,0,0-.8-.64,4.27,4.27,0,0,1-2.17-1.49,4.06,4.06,0,0,0-1.85-1.16,4,4,0,0,1-2.9-3,1.62,1.62,0,0,0-.64-.81,16.33,16.33,0,0,1-4.48-4.48,37.32,37.32,0,0,1-1.63-3.83,12,12,0,0,0-1.42-2.31,4,4,0,0,1-1.06-2.66c0-1.69-.22-3.38-.33-5.08-.13-2-.24-4-.33-6a3.36,3.36,0,0,1,.19-1.08c.33-1.25.69-2.48,1-3.72a4.15,4.15,0,0,1,3.1-3.15c.51-.13.71-.31.57-.9-.23-.89.56-1.34,1.07-1.89s1-.94,1.38-1.47.73-.81,1.41-.63a2.7,2.7,0,0,0,2.82-1,2.54,2.54,0,0,1,1.91-.78,7.26,7.26,0,0,0,2-.2c1.33-.46,2.5.39,3.77.31a10.68,10.68,0,0,0,1.49,0,4.92,4.92,0,0,1,4,.74,4.44,4.44,0,0,0,2,.59c1.19.13,2.3.31,3,1.42.1.15.41.18.63.26,1,.37,2.33,0,2.81,1.39a.46.46,0,0,0,.31.2,15,15,0,0,0,3.4.86,4.62,4.62,0,0,1,2.57,1.07c.29.18.5.47.77.67.9.69,1.69,1.57,3,1.39.27,0,.62.25.9.44a2.76,2.76,0,0,0,3.79-.3,9.72,9.72,0,0,0,1.05-1.77c.1-.18.16-.42.32-.54,1.09-.79,2.21-1.56,3.32-2.34a1.14,1.14,0,0,0,.23-.15c1.42-1.36,2.81-2.74,4.25-4.08.49-.46,1.1-.79,1.63-1.22s1.23-1,1.8-1.53c.94-.89,1.87-1.8,2.75-2.75s1.59-2,2.5-2.86A35.24,35.24,0,0,1,396,76.57a10.64,10.64,0,0,0,1.21-1,7.26,7.26,0,0,1,4-2.49c.29-.06.54-.37.79-.59.51-.46,1-.94,1.51-1.41l.3.19v4.36c1.47-.87,2.85-1.73,4.28-2.52.95-.52,2-.94,2.93-1.42.47-.24.92-.52,1.38-.78l3.24-1.83c.25-.14.5-.26.74-.4,1.25-.73,2.52-1.45,3.75-2.22,3.51-2.19,7.51-3.66,10.55-6.59,1.15-1.11,2.17-2.39,3.77-3,.67-.24,1.32-.55,2-.82,1.87-.76,2.51-2,2.69-4.05.09-1.06-.73-1.59-1.78-1.34a5.87,5.87,0,0,0-3.33,2c-1.35,1.69-3.24,2.67-5,3.82-.65.41-1.24.91-1.88,1.35s-1,.69-1.54,1-1.14.63-1.72.93a3.46,3.46,0,0,1-1,.46,9.91,9.91,0,0,0-4.52,2.1c-1.87,1.29-3.7,2.64-5.6,3.87-1.06.68-2.25,1.18-3.37,1.77l-5.71,3c0-.5-.07-1-.07-1.39q0-19.06,0-38.14c0-1.3,0-1.32-1.33-1.28A63.15,63.15,0,0,0,363,44.52a60.76,60.76,0,0,0-20,29.59c-.19.61-.39.85-1.11.64q-4.27-1.23-8.59-2.34c-.78-.2-.87-.51-.65-1.22a71,71,0,0,1,17-28.74,73.3,73.3,0,0,1,38.8-21.31,65.39,65.39,0,0,1,14.16-1.45c.79,0,1-.23,1-1,0-4.51,0-9,0-13.54,0-1.33,0-1.33,1.4-1.33H483c1.36,0,1.36,0,1.36,1.36V122q0,28.1,0,56.19C484.37,178.55,484.35,178.92,484.36,179.29Z"/><path class="cls-1" d="M451.5,38.4c-1.31,0-2.62,0-3.93,0a2.77,2.77,0,0,0-2.65,1.51,14.75,14.75,0,0,0-1,1.89c-.69,1.89-1.3,3.81-1.94,5.71l.23.08c0,1.4.25,1.61,1.55,1.2a3.73,3.73,0,0,1,.63-.18c1.07-.17,2.15-.25,3.19-.5,1.37-.33,2.7-.77,4-1.18.68-.21,1.15-.47,1-1.37a4.13,4.13,0,0,1,.41-1.67c.27-.88.61-1.74.81-2.63C454.25,39.48,453.41,38.46,451.5,38.4Z"/><path class="cls-1" d="M415.9,53c-.66-.38-1.1-.8-.91-1.51a2.33,2.33,0,0,0-2.42-2.56A6.59,6.59,0,0,0,407.64,51a2.39,2.39,0,0,0-.38,2.89,13.06,13.06,0,0,0,4.24,3.4c1.13.47,2.1,1.29,3.18,1.86a2.1,2.1,0,0,0,1.5.33,1.69,1.69,0,0,0,.66-1.32,33.87,33.87,0,0,0-.16-4.27C416.65,53.56,416.24,53.17,415.9,53Z"/><path class="cls-1" d="M429.67,44.11c-.71-.49-1.52-.83-2.26-1.27a3.09,3.09,0,0,0-3.76.46,8,8,0,0,0-2,5.09c-.06.72,0,1.16.77,1.25a1.51,1.51,0,0,1,1.35,1.21,1.79,1.79,0,0,0,1.76,1.26c.59.06,1.18.1,1.77.14a2.31,2.31,0,0,0,2.46-2.42,11.29,11.29,0,0,1,.21-2.52,16.39,16.39,0,0,1,.66-2.11A4.67,4.67,0,0,0,429.67,44.11Z"/><path class="cls-1" d="M445.2,62.36c.44-2.21-.8-3.27-1.91-4.24a2.43,2.43,0,0,0-2.16-.12,7.22,7.22,0,0,1-3.48.87,1.4,1.4,0,0,0-1.6,1.23,12.36,12.36,0,0,0-.19,2.64c.08,1.23.86,1.76,2.1,1.92s2.42.53,3.64.79a25.59,25.59,0,0,0,3.56.65c1.07.07,1.35-.66.88-1.61A19,19,0,0,1,445.2,62.36Z"/><path class="cls-1" d="M433.43,73.28a3.65,3.65,0,0,0-1.76-3.07c-1.12-.59-2.29-1.08-3.41-1.67a5.35,5.35,0,0,0-4-.11c-.51.13-.86.46-.55,1,.93,1.7,1.79,3.45,2.85,5.07a5.94,5.94,0,0,0,3.88,2.53c1.13.25,1.41-1.35,2.52-.88.07,0,.3-.2.39-.35a1.18,1.18,0,0,0,.12-.53c0-.36,0-.73,0-1.1h0A7,7,0,0,0,433.43,73.28Z"/><path class="cls-1" d="M0,185.73H278.59V0H0Zm91.75-53.56-6.07-4.41-6.06,4.41L81.93,125l-6.06-4.41h7.5l2.31-7.13L88,120.63h7.49L89.43,125ZM211,89.68,205,94.08l2.31,7.13-6.06-4.4-6.07,4.4,2.32-7.13-6.07-4.4h7.5l2.32-7.13,2.31,7.13Zm-20.42-31,2.31-7.13,2.32,7.13h7.5l-6.07,4.41L199,70.26l-6.07-4.41-6.06,4.41,2.31-7.13-6.06-4.41Zm0,61.91,2.31-7.13,2.32,7.13h7.5L196.66,125l2.32,7.13-6.07-4.41-6.06,4.41,2.31-7.13-6.06-4.41ZM167.94,36.06l2.31-7.13,2.32,7.13h7.5L174,40.47l2.32,7.13-6.07-4.41-6.06,4.41,2.31-7.13-6.06-4.41Zm0,107.23,2.31-7.13,2.32,7.13h7.5L174,147.7l2.32,7.13-6.07-4.41-6.06,4.41,2.31-7.13-6.06-4.41ZM137,27.77l2.32-7.13,2.31,7.13h7.5l-6.06,4.4,2.31,7.13-6.06-4.4-6.07,4.4,2.32-7.13-6.07-4.4Zm0,123.82,2.32-7.13,2.31,7.13h7.5l-6.06,4.4,2.31,7.13-6.06-4.4-6.07,4.4,2.32-7.13-6.07-4.4ZM106,36.06l2.31-7.13,2.32,7.13h7.5l-6.07,4.41,2.32,7.13-6.07-4.41-6.06,4.41,2.31-7.13-6.06-4.41Zm0,107.23,2.31-7.13,2.32,7.13h7.5l-6.07,4.41,2.32,7.13-6.07-4.41-6.06,4.41,2.31-7.13-6.06-4.41ZM83.37,58.72l2.31-7.13L88,58.72h7.49l-6.06,4.41,2.32,7.13-6.07-4.41-6.06,4.41,2.31-7.13-6.06-4.41Zm-8.3,31,2.32-7.13,2.31,7.13h7.5l-6.06,4.4,2.31,7.13-6.06-4.4-6.07,4.4,2.32-7.13-6.07-4.4Z"/><path class="cls-1" d="M1.93,197.63v10.29a23.72,23.72,0,0,0,.38,4.89A5.28,5.28,0,0,0,3.41,215a6,6,0,0,0,2.25,1.66,10.81,10.81,0,0,0,4.19.63,9.88,9.88,0,0,0,3.71-.58,6,6,0,0,0,2.27-1.57A5.41,5.41,0,0,0,17,212.67a26.08,26.08,0,0,0,.32-4.91V197.63H13.42V208.3a22.09,22.09,0,0,1-.17,3.27,2.72,2.72,0,0,1-1,1.67,3.92,3.92,0,0,1-2.5.68,4.15,4.15,0,0,1-2.57-.72A3.13,3.13,0,0,1,6,211.3a21.41,21.41,0,0,1-.14-3.22V197.63Z"/><polygon class="cls-1" points="36.48 216.91 36.48 197.63 32.87 197.63 32.87 210.51 24.97 197.63 21.18 197.63 21.18 216.91 24.8 216.91 24.8 204.34 32.58 216.91 36.48 216.91"/><rect class="cls-1" x="40.21" y="197.63" width="3.89" height="19.28"/><path class="cls-1" d="M62.9,200a9,9,0,0,0-6.82-2.65,10.61,10.61,0,0,0-4.16.77,7.43,7.43,0,0,0-2.49,1.73,9,9,0,0,0-1.79,2.65,12.2,12.2,0,0,0-.88,4.94,10,10,0,0,0,2.53,7.23,9.09,9.09,0,0,0,6.84,2.62,9,9,0,0,0,6.79-2.63,11.81,11.81,0,0,0,0-14.66Zm-3,12.29a4.88,4.88,0,0,1-3.82,1.68,5,5,0,0,1-3.84-1.69,9.05,9.05,0,0,1,0-9.95,5,5,0,0,1,3.88-1.65A4.9,4.9,0,0,1,60,202.26a7.26,7.26,0,0,1,1.46,5A7.36,7.36,0,0,1,59.94,212.24Z"/><polygon class="cls-1" points="71.89 204.34 79.66 216.91 83.57 216.91 83.57 197.63 79.95 197.63 79.95 210.51 72.06 197.63 68.27 197.63 68.27 216.91 71.89 216.91 71.89 204.34"/><polygon class="cls-1" points="108.93 200.89 108.93 197.63 94.63 197.63 94.63 216.91 109.3 216.91 109.3 213.67 98.53 213.67 98.53 208.42 108.21 208.42 108.21 205.17 98.53 205.17 98.53 200.89 108.93 200.89"/><path class="cls-1" d="M123.79,208.3a22.09,22.09,0,0,1-.17,3.27,2.72,2.72,0,0,1-1,1.67,3.92,3.92,0,0,1-2.5.68,4.15,4.15,0,0,1-2.57-.72,3.17,3.17,0,0,1-1.19-1.9,22.93,22.93,0,0,1-.14-3.22V197.63h-3.9v10.29a22.9,22.9,0,0,0,.39,4.89,5.13,5.13,0,0,0,1.09,2.14,6,6,0,0,0,2.25,1.66,10.81,10.81,0,0,0,4.19.63,9.85,9.85,0,0,0,3.71-.58,5.9,5.9,0,0,0,2.27-1.57,5.54,5.54,0,0,0,1.17-2.42,26.31,26.31,0,0,0,.31-4.91V197.63h-3.89Z"/><path class="cls-1" d="M144.21,216.92h4.66l-2.36-3.77A22.91,22.91,0,0,0,144.3,210a9.39,9.39,0,0,0-2.09-1.62,6.1,6.1,0,0,0,3.81-1.78A5.1,5.1,0,0,0,147.3,203a5.58,5.58,0,0,0-.84-3,4.44,4.44,0,0,0-2.24-1.85,14,14,0,0,0-4.5-.52h-8.19v19.29h3.89v-8.06h.79a6.52,6.52,0,0,1,2,.22,3.07,3.07,0,0,1,1.17.8,27.31,27.31,0,0,1,2,2.84Zm-5.91-11.13h-2.88v-4.9h3c1.58,0,2.53,0,2.84.07a2.38,2.38,0,0,1,1.47.76,2.27,2.27,0,0,1,.52,1.57,2.42,2.42,0,0,1-.4,1.44,2.06,2.06,0,0,1-1.09.82A14.65,14.65,0,0,1,138.3,205.79Z"/><path class="cls-1" d="M166.08,214.61a11.81,11.81,0,0,0,0-14.66,9,9,0,0,0-6.82-2.65,10.57,10.57,0,0,0-4.16.77,7.43,7.43,0,0,0-2.49,1.73,9,9,0,0,0-1.8,2.65,12.37,12.37,0,0,0-.88,4.94,10,10,0,0,0,2.54,7.23,10.16,10.16,0,0,0,13.63,0Zm-10.64-2.38a9,9,0,0,1,0-9.95,5.39,5.39,0,0,1,7.74,0,7.26,7.26,0,0,1,1.45,5,7.41,7.41,0,0,1-1.49,5,4.89,4.89,0,0,1-3.82,1.68A5,5,0,0,1,155.44,212.23Z"/><path class="cls-1" d="M175.28,209.64h2.54a21.68,21.68,0,0,0,4-.28,5.58,5.58,0,0,0,2-.91,5.26,5.26,0,0,0,1.63-1.9,6.3,6.3,0,0,0,.65-3,6,6,0,0,0-1.12-3.75,5,5,0,0,0-2.78-1.89,22.78,22.78,0,0,0-4.63-.29h-6.24v19.29h3.89Zm0-8.75h1.88a19.9,19.9,0,0,1,2.8.13,2.72,2.72,0,0,1,1.57.86,2.52,2.52,0,0,1,.62,1.74,2.62,2.62,0,0,1-.44,1.5,2.56,2.56,0,0,1-1.22.94,10.05,10.05,0,0,1-3.08.31h-2.13Z"/><polygon class="cls-1" points="189.09 216.91 203.75 216.91 203.75 213.67 192.98 213.67 192.98 208.42 202.66 208.42 202.66 205.17 192.98 205.17 192.98 200.89 203.38 200.89 203.38 197.63 189.09 197.63 189.09 216.91"/><polygon class="cls-1" points="195.85 192.59 194.03 196.53 196.37 196.53 199.99 192.59 195.85 192.59"/><polygon class="cls-1" points="221.08 200.89 221.08 197.63 206.78 197.63 206.78 216.91 221.45 216.91 221.45 213.67 210.68 213.67 210.68 208.42 220.36 208.42 220.36 205.17 210.68 205.17 210.68 200.89 221.08 200.89"/><polygon class="cls-1" points="239.82 216.91 239.82 197.63 236.21 197.63 236.21 210.51 228.31 197.63 224.52 197.63 224.52 216.91 228.14 216.91 228.14 204.34 235.91 216.91 239.82 216.91"/><polygon class="cls-1" points="247.33 204.34 255.1 216.91 259.01 216.91 259.01 197.63 255.39 197.63 255.39 210.51 247.5 197.63 243.71 197.63 243.71 216.91 247.33 216.91 247.33 204.34"/><polygon class="cls-1" points="266.75 208.42 276.43 208.42 276.43 205.17 266.75 205.17 266.75 200.89 277.15 200.89 277.15 197.63 262.86 197.63 262.86 216.91 277.52 216.91 277.52 213.67 266.75 213.67 266.75 208.42"/><polygon class="cls-1" points="1.45 238.94 3.41 238.94 3.41 232.21 10.36 232.21 10.36 230.46 3.41 230.46 3.41 225.87 11.44 225.87 11.44 224.12 1.45 224.12 1.45 238.94"/><path class="cls-1" d="M18.12,228a5,5,0,0,0-3.38,1.19,5.53,5.53,0,0,0-1.66,4.42,5.79,5.79,0,0,0,1.39,4.16,4.81,4.81,0,0,0,3.65,1.45,5.25,5.25,0,0,0,2.59-.66,4.46,4.46,0,0,0,1.81-1.84,7.16,7.16,0,0,0,.62-3.26,5.51,5.51,0,0,0-1.41-4A4.78,4.78,0,0,0,18.12,228Zm2.25,8.69a2.85,2.85,0,0,1-2.25,1,2.9,2.9,0,0,1-2.27-1,4.6,4.6,0,0,1-.9-3.09,4.55,4.55,0,0,1,.9-3.08,2.9,2.9,0,0,1,2.27-1,2.87,2.87,0,0,1,2.24,1,4.41,4.41,0,0,1,.91,3A4.65,4.65,0,0,1,20.37,236.65Z"/><path class="cls-1" d="M33.33,229.22a2.86,2.86,0,0,0-1.22-.91,4.52,4.52,0,0,0-1.78-.35,3.86,3.86,0,0,0-3.42,1.77V228.2H25.27v10.74h1.82v-5.87a3.63,3.63,0,0,1,.84-2.79,2.94,2.94,0,0,1,2-.74,2.38,2.38,0,0,1,1.27.33,1.69,1.69,0,0,1,.75.88,4.91,4.91,0,0,1,.21,1.66v6.53H34v-6.6a10.15,10.15,0,0,0-.1-1.77A3.42,3.42,0,0,0,33.33,229.22Z"/><path class="cls-1" d="M43.63,229.44a3.6,3.6,0,0,0-3-1.48,4.25,4.25,0,0,0-2.4.7,4.19,4.19,0,0,0-1.61,2,7.63,7.63,0,0,0-.53,2.92,6.77,6.77,0,0,0,.59,2.92,4.62,4.62,0,0,0,1.67,2,4.2,4.2,0,0,0,2.36.71,3.33,3.33,0,0,0,3-1.6v1.36h1.69V224.12H43.63Zm-.69,7.27a2.55,2.55,0,0,1-2,1,2.62,2.62,0,0,1-2.05-1,4.66,4.66,0,0,1-.87-3.08,4.9,4.9,0,0,1,.81-3.12,2.52,2.52,0,0,1,2-1,2.6,2.6,0,0,1,2.09,1,5,5,0,0,1,.85,3.23A4.47,4.47,0,0,1,42.94,236.71Z"/><path class="cls-1" d="M54.85,233.27a22.08,22.08,0,0,0-2.69-.84c-.89-.24-1.43-.4-1.61-.47a1.58,1.58,0,0,1-.7-.48,1,1,0,0,1-.22-.64,1.21,1.21,0,0,1,.54-1,2.93,2.93,0,0,1,1.79-.41,2.58,2.58,0,0,1,1.64.46,2,2,0,0,1,.7,1.29l1.78-.24a4,4,0,0,0-.63-1.66,3.07,3.07,0,0,0-1.41-1,6.23,6.23,0,0,0-2.22-.36,5.32,5.32,0,0,0-1.57.22,3.69,3.69,0,0,0-1.16.53,3.08,3.08,0,0,0-.89,1,2.76,2.76,0,0,0-.33,1.33,2.65,2.65,0,0,0,1.57,2.46,16.81,16.81,0,0,0,2.78.88,7.51,7.51,0,0,1,1.86.62,1.1,1.1,0,0,1,.53,1,1.53,1.53,0,0,1-.6,1.19,2.87,2.87,0,0,1-1.86.51,3,3,0,0,1-1.94-.57,2.54,2.54,0,0,1-.84-1.66l-1.8.28a4,4,0,0,0,1.4,2.58,5,5,0,0,0,3.19.87,5.62,5.62,0,0,0,2.26-.44A3.4,3.4,0,0,0,56,237.5a3,3,0,0,0,.53-1.72,2.65,2.65,0,0,0-.43-1.55A2.73,2.73,0,0,0,54.85,233.27Z"/><path class="cls-1" d="M68.8,228a4.7,4.7,0,0,0-3.61,1.5,5.92,5.92,0,0,0-1.4,4.2,5.67,5.67,0,0,0,1.38,4.07,5.59,5.59,0,0,0,6.81.54,4.63,4.63,0,0,0,1.65-2.56l-1.88-.23a3.53,3.53,0,0,1-1.13,1.68,2.77,2.77,0,0,1-1.7.52,3,3,0,0,1-2.25-.94,4.12,4.12,0,0,1-1-2.71h8c0-.21,0-.37,0-.48a5.81,5.81,0,0,0-1.37-4.12A4.58,4.58,0,0,0,68.8,228Zm-3,4.58a3.28,3.28,0,0,1,1-2.24,2.88,2.88,0,0,1,2.1-.84,2.79,2.79,0,0,1,2.26,1,3.68,3.68,0,0,1,.69,2Z"/><path class="cls-1" d="M82.75,234a5.7,5.7,0,0,1-.3,2.1,2.32,2.32,0,0,1-1,1.14,3,3,0,0,1-1.54.42,2.21,2.21,0,0,1-1.37-.41,1.85,1.85,0,0,1-.73-1.12,10.1,10.1,0,0,1-.11-1.92v-6H75.87v6.65a9.66,9.66,0,0,0,.11,1.7,3.44,3.44,0,0,0,.56,1.35,3,3,0,0,0,1.22.92,4.39,4.39,0,0,0,1.78.36,3.93,3.93,0,0,0,3.4-1.82v1.58h1.63V228.2H82.75Z"/><path class="cls-1" d="M90.2,228.32A4.51,4.51,0,0,0,89,229.83V228.2H87.4v10.74h1.82v-5.62a7.21,7.21,0,0,1,.3-2.13,2,2,0,0,1,.68-1,1.75,1.75,0,0,1,1.07-.36,2.64,2.64,0,0,1,1.34.39l.62-1.68a3.54,3.54,0,0,0-1.87-.59A2,2,0,0,0,90.2,228.32Z"/><path class="cls-1" d="M98.67,228a5,5,0,0,0-3.37,1.19,5.53,5.53,0,0,0-1.66,4.42A5.75,5.75,0,0,0,95,237.73a4.79,4.79,0,0,0,3.64,1.45,5.22,5.22,0,0,0,2.59-.66,4.4,4.4,0,0,0,1.81-1.84,7,7,0,0,0,.62-3.26,5.5,5.5,0,0,0-1.4-4A4.81,4.81,0,0,0,98.67,228Zm2.25,8.69a2.84,2.84,0,0,1-2.25,1,2.88,2.88,0,0,1-2.26-1,4.6,4.6,0,0,1-.9-3.09,4.55,4.55,0,0,1,.9-3.08,3,3,0,0,1,4.51,0,4.46,4.46,0,0,1,.9,3A4.65,4.65,0,0,1,100.92,236.65Z"/><path class="cls-1" d="M113,228.67a4.25,4.25,0,0,0-2.42-.71,3.67,3.67,0,0,0-1.79.41,4.14,4.14,0,0,0-1.33,1.23v-1.4h-1.65v14.85h1.82v-5.22a3.77,3.77,0,0,0,1.18,1,3.54,3.54,0,0,0,1.64.38,4.47,4.47,0,0,0,4.08-2.72,7.1,7.1,0,0,0,.6-3,7.25,7.25,0,0,0-.54-2.83A4.39,4.39,0,0,0,113,228.67Zm-.6,8a2.63,2.63,0,0,1-2.08,1,2.58,2.58,0,0,1-2-1,4.66,4.66,0,0,1-.84-3.06,4.86,4.86,0,0,1,.9-3.16,2.61,2.61,0,0,1,2.06-1.08,2.53,2.53,0,0,1,2,1,4.74,4.74,0,0,1,.85,3.07A4.87,4.87,0,0,1,112.42,236.66Z"/><path class="cls-1" d="M121.75,228a4.71,4.71,0,0,0-3.62,1.5,5.92,5.92,0,0,0-1.4,4.2,5.67,5.67,0,0,0,1.38,4.07,5.59,5.59,0,0,0,6.81.54,4.63,4.63,0,0,0,1.65-2.56l-1.88-.23a3.52,3.52,0,0,1-1.12,1.68,2.82,2.82,0,0,1-1.71.52,3,3,0,0,1-2.25-.94,4.12,4.12,0,0,1-1-2.71h8c0-.21,0-.37,0-.48a5.81,5.81,0,0,0-1.37-4.12A4.57,4.57,0,0,0,121.75,228Zm-3,4.58a3.28,3.28,0,0,1,1-2.24,2.89,2.89,0,0,1,2.11-.84,2.79,2.79,0,0,1,2.25,1,3.61,3.61,0,0,1,.69,2Z"/><polygon class="cls-1" points="124.4 224.04 122.02 224.04 120.67 226.87 122.18 226.87 124.4 224.04"/><path class="cls-1" d="M133.26,228a4.72,4.72,0,0,0-3.62,1.5,5.92,5.92,0,0,0-1.4,4.2,5.67,5.67,0,0,0,1.38,4.07,5.59,5.59,0,0,0,6.81.54,4.63,4.63,0,0,0,1.65-2.56l-1.88-.23a3.52,3.52,0,0,1-1.12,1.68,2.78,2.78,0,0,1-1.71.52,2.94,2.94,0,0,1-2.24-.94,4.07,4.07,0,0,1-1-2.71h8c0-.21,0-.37,0-.48a5.85,5.85,0,0,0-1.36-4.12A4.6,4.6,0,0,0,133.26,228Zm-3,4.58a3.28,3.28,0,0,1,.94-2.24,2.89,2.89,0,0,1,2.11-.84,2.79,2.79,0,0,1,2.25,1,3.61,3.61,0,0,1,.69,2Z"/><path class="cls-1" d="M148.42,229.22a2.86,2.86,0,0,0-1.22-.91,4.52,4.52,0,0,0-1.78-.35,3.86,3.86,0,0,0-3.42,1.77V228.2h-1.64v10.74h1.82v-5.87a3.59,3.59,0,0,1,.85-2.79,2.9,2.9,0,0,1,2-.74,2.38,2.38,0,0,1,1.27.33,1.69,1.69,0,0,1,.75.88,4.62,4.62,0,0,1,.22,1.66v6.53h1.82v-6.6a11.29,11.29,0,0,0-.1-1.77A3.58,3.58,0,0,0,148.42,229.22Z"/><path class="cls-1" d="M166.32,234.44V232a10.23,10.23,0,0,0-.09-1.67,2.85,2.85,0,0,0-.57-1.24,3,3,0,0,0-1.26-.82,6.58,6.58,0,0,0-2.23-.32,7.23,7.23,0,0,0-2.44.38,3.48,3.48,0,0,0-1.61,1.08,4.51,4.51,0,0,0-.8,1.85l1.78.24a2.76,2.76,0,0,1,.91-1.59,3.19,3.19,0,0,1,1.89-.45,3,3,0,0,1,2.07.61,2,2,0,0,1,.52,1.57c0,.07,0,.23,0,.47a15.67,15.67,0,0,1-3.25.63,14.12,14.12,0,0,0-1.61.27,4.62,4.62,0,0,0-1.31.6,3,3,0,0,0-.35,4.7,3.93,3.93,0,0,0,2.72.86,5.82,5.82,0,0,0,2-.35,6.72,6.72,0,0,0,1.94-1.22,3.77,3.77,0,0,0,.37,1.33h1.89a4,4,0,0,1-.45-1.29A25,25,0,0,1,166.32,234.44Zm-1.84-.22a4.5,4.5,0,0,1-.29,1.82,2.81,2.81,0,0,1-1.21,1.25,3.7,3.7,0,0,1-1.87.46,2.4,2.4,0,0,1-1.61-.48,1.54,1.54,0,0,1-.55-1.21,1.54,1.54,0,0,1,1-1.46,6.77,6.77,0,0,1,1.59-.36,13.36,13.36,0,0,0,3-.69Z"/><path class="cls-1" d="M176.22,229.5a3.82,3.82,0,0,0-3.13-1.54,4.35,4.35,0,0,0-2.48.71,4.47,4.47,0,0,0-1.61,2,7.2,7.2,0,0,0-.56,2.84,6.19,6.19,0,0,0,1.21,3.83,4.07,4.07,0,0,0,3.43,1.6,3.72,3.72,0,0,0,3-1.41,11.78,11.78,0,0,1-.13,2.34,2.49,2.49,0,0,1-.93,1.41,3.23,3.23,0,0,1-2,.51,3,3,0,0,1-1.85-.51,1.68,1.68,0,0,1-.62-1.19l-1.77-.26a2.94,2.94,0,0,0,1.15,2.6,5.1,5.1,0,0,0,3.1.86,5.61,5.61,0,0,0,2.72-.6,3.76,3.76,0,0,0,1.62-1.66,8.77,8.77,0,0,0,.51-3.55V228.2h-1.68Zm-.87,7a2.77,2.77,0,0,1-4.2,0,4.65,4.65,0,0,1-.84-3.08,4.36,4.36,0,0,1,.85-2.93,2.64,2.64,0,0,1,2.06-1,2.7,2.7,0,0,1,2.11,1,4.39,4.39,0,0,1,.87,3A4.51,4.51,0,0,1,175.35,236.47Z"/><path class="cls-1" d="M183.43,228.32a4.51,4.51,0,0,0-1.16,1.51V228.2h-1.64v10.74h1.82v-5.62a7.21,7.21,0,0,1,.3-2.13,2,2,0,0,1,.68-1,1.73,1.73,0,0,1,1.07-.36,2.64,2.64,0,0,1,1.34.39l.62-1.68a3.54,3.54,0,0,0-1.87-.59A2,2,0,0,0,183.43,228.32Z"/><rect class="cls-1" x="187.55" y="224.12" width="1.82" height="2.09"/><rect class="cls-1" x="187.55" y="228.2" width="1.82" height="10.73"/><path class="cls-1" d="M198.24,237a2.59,2.59,0,0,1-1.79.65,2.67,2.67,0,0,1-2.16-1,4.78,4.78,0,0,1-.83-3.14,4.65,4.65,0,0,1,.86-3.12,2.79,2.79,0,0,1,2.23-1,2.32,2.32,0,0,1,1.55.54,3,3,0,0,1,.9,1.63l1.76-.27a4,4,0,0,0-1.42-2.52,4.52,4.52,0,0,0-2.86-.88,5.24,5.24,0,0,0-2.56.65,4.06,4.06,0,0,0-1.76,2,7.53,7.53,0,0,0-.57,3,5.82,5.82,0,0,0,1.34,4.13,4.6,4.6,0,0,0,3.54,1.44,4.38,4.38,0,0,0,3-1.05,4.66,4.66,0,0,0,1.5-2.89l-1.79-.23A3.26,3.26,0,0,1,198.24,237Z"/><path class="cls-1" d="M206.85,228a5,5,0,0,0-3.38,1.19,5.55,5.55,0,0,0-1.65,4.42,5.75,5.75,0,0,0,1.39,4.16,4.79,4.79,0,0,0,3.64,1.45,5.22,5.22,0,0,0,2.59-.66,4.4,4.4,0,0,0,1.81-1.84,7,7,0,0,0,.62-3.26,5.55,5.55,0,0,0-1.4-4A4.82,4.82,0,0,0,206.85,228Zm2.25,8.69a3,3,0,0,1-4.51,0,4.6,4.6,0,0,1-.9-3.09,4.55,4.55,0,0,1,.9-3.08,3,3,0,0,1,4.51,0,4.46,4.46,0,0,1,.9,3A4.65,4.65,0,0,1,209.1,236.65Z"/><rect class="cls-1" x="213.96" y="224.12" width="1.82" height="14.82"/><path class="cls-1" d="M223,228a4.72,4.72,0,0,0-3.62,1.5,5.91,5.91,0,0,0-1.39,4.2,5.67,5.67,0,0,0,1.38,4.07,5.57,5.57,0,0,0,6.8.54,4.53,4.53,0,0,0,1.65-2.56l-1.88-.23a3.52,3.52,0,0,1-1.12,1.68,2.78,2.78,0,0,1-1.71.52,3,3,0,0,1-2.24-.94,4.07,4.07,0,0,1-1-2.71h8c0-.21,0-.37,0-.48a5.8,5.8,0,0,0-1.36-4.12A4.58,4.58,0,0,0,223,228Zm-3,4.58a3.28,3.28,0,0,1,.94-2.24,2.9,2.9,0,0,1,2.11-.84,2.77,2.77,0,0,1,2.25,1,3.61,3.61,0,0,1,.69,2Z"/><path class="cls-1" d="M243.06,228.67a4.25,4.25,0,0,0-2.42-.71,3.67,3.67,0,0,0-1.79.41,4.14,4.14,0,0,0-1.33,1.23v-1.4h-1.65v14.85h1.82v-5.22a3.77,3.77,0,0,0,1.18,1,3.54,3.54,0,0,0,1.64.38,4.47,4.47,0,0,0,4.08-2.72,7.1,7.1,0,0,0,.6-3,7.25,7.25,0,0,0-.54-2.83A4.39,4.39,0,0,0,243.06,228.67Zm-.6,8a2.63,2.63,0,0,1-2.08,1,2.58,2.58,0,0,1-2-1,4.66,4.66,0,0,1-.84-3.06,4.86,4.86,0,0,1,.9-3.16,2.61,2.61,0,0,1,2.06-1.08,2.53,2.53,0,0,1,2,1,4.69,4.69,0,0,1,.85,3.07A4.87,4.87,0,0,1,242.46,236.66Z"/><path class="cls-1" d="M251.74,228a5,5,0,0,0-3.38,1.19,5.53,5.53,0,0,0-1.66,4.42,5.79,5.79,0,0,0,1.39,4.16,4.81,4.81,0,0,0,3.65,1.45,5.25,5.25,0,0,0,2.59-.66,4.46,4.46,0,0,0,1.81-1.84,7.16,7.16,0,0,0,.62-3.26,5.51,5.51,0,0,0-1.41-4A4.78,4.78,0,0,0,251.74,228Zm2.25,8.69a2.85,2.85,0,0,1-2.25,1,2.9,2.9,0,0,1-2.27-1,4.6,4.6,0,0,1-.9-3.09,4.55,4.55,0,0,1,.9-3.08,2.9,2.9,0,0,1,2.27-1,2.87,2.87,0,0,1,2.24,1,4.41,4.41,0,0,1,.91,3A4.65,4.65,0,0,1,254,236.65Z"/><path class="cls-1" d="M265.73,234a6,6,0,0,1-.29,2.1,2.34,2.34,0,0,1-1,1.14,3,3,0,0,1-1.54.42,2.21,2.21,0,0,1-1.37-.41,1.9,1.9,0,0,1-.73-1.12,11.05,11.05,0,0,1-.11-1.92v-6h-1.82v6.65a9.66,9.66,0,0,0,.11,1.7,3.59,3.59,0,0,0,.56,1.35,3,3,0,0,0,1.23.92,4.38,4.38,0,0,0,1.77.36,3.94,3.94,0,0,0,3.41-1.82v1.58h1.62V228.2h-1.82Z"/><path class="cls-1" d="M273.18,228.32a4.51,4.51,0,0,0-1.16,1.51V228.2h-1.64v10.74h1.82v-5.62a6.9,6.9,0,0,1,.31-2.13,2,2,0,0,1,.67-1,1.75,1.75,0,0,1,1.07-.36,2.64,2.64,0,0,1,1.34.39l.62-1.68a3.53,3.53,0,0,0-1.86-.59A2,2,0,0,0,273.18,228.32Z"/><rect class="cls-1" x="283.01" y="224.12" width="1.82" height="14.82"/><path class="cls-1" d="M292.05,228a4.72,4.72,0,0,0-3.62,1.5,5.91,5.91,0,0,0-1.39,4.2,5.67,5.67,0,0,0,1.38,4.07,4.89,4.89,0,0,0,3.73,1.45,5,5,0,0,0,3.08-.91,4.57,4.57,0,0,0,1.64-2.56l-1.88-.23a3.45,3.45,0,0,1-1.12,1.68,2.78,2.78,0,0,1-1.71.52,3,3,0,0,1-2.24-.94,4.12,4.12,0,0,1-1-2.71h8c0-.21,0-.37,0-.48a5.8,5.8,0,0,0-1.36-4.12A4.58,4.58,0,0,0,292.05,228Zm-3,4.58a3.28,3.28,0,0,1,1-2.24,2.88,2.88,0,0,1,2.1-.84,2.79,2.79,0,0,1,2.26,1,3.69,3.69,0,0,1,.68,2Z"/><path class="cls-1" d="M311.75,229.44a3.55,3.55,0,0,0-1.23-1.07,3.62,3.62,0,0,0-1.73-.41,4.29,4.29,0,0,0-2.4.7,4.17,4.17,0,0,0-1.6,2,7.63,7.63,0,0,0-.54,2.92,6.92,6.92,0,0,0,.59,2.92,4.69,4.69,0,0,0,1.67,2,4.24,4.24,0,0,0,2.36.71,3.33,3.33,0,0,0,3-1.6v1.36h1.69V224.12h-1.81Zm-.68,7.27a2.57,2.57,0,0,1-2,1,2.62,2.62,0,0,1-2.05-1,4.66,4.66,0,0,1-.87-3.08,4.83,4.83,0,0,1,.82-3.12,2.5,2.5,0,0,1,2-1,2.59,2.59,0,0,1,2.09,1,5,5,0,0,1,.85,3.23A4.47,4.47,0,0,1,311.07,236.71Z"/><polygon class="cls-1" points="323.49 224.04 321.1 224.04 319.76 226.87 321.26 226.87 323.49 224.04"/><path class="cls-1" d="M320.83,228a4.72,4.72,0,0,0-3.62,1.5,5.92,5.92,0,0,0-1.4,4.2,5.67,5.67,0,0,0,1.38,4.07,5.59,5.59,0,0,0,6.81.54,4.63,4.63,0,0,0,1.65-2.56l-1.88-.23a3.52,3.52,0,0,1-1.12,1.68,2.78,2.78,0,0,1-1.71.52,3,3,0,0,1-2.24-.94,4.07,4.07,0,0,1-1-2.71h8c0-.21,0-.37,0-.48a5.85,5.85,0,0,0-1.36-4.12A4.6,4.6,0,0,0,320.83,228Zm-3,4.58a3.28,3.28,0,0,1,.94-2.24,2.89,2.89,0,0,1,2.11-.84,2.79,2.79,0,0,1,2.25,1,3.61,3.61,0,0,1,.69,2Z"/><path class="cls-1" d="M332.42,234.75c-.29.8-.51,1.48-.68,2-.2-.74-.43-1.46-.68-2.16l-2.31-6.43h-1.92l4.09,10.74h1.69l4.07-10.74h-1.87Z"/><path class="cls-1" d="M342.69,228a4.72,4.72,0,0,0-3.62,1.5,5.91,5.91,0,0,0-1.39,4.2,5.67,5.67,0,0,0,1.38,4.07,5.57,5.57,0,0,0,6.8.54,4.58,4.58,0,0,0,1.65-2.56l-1.88-.23a3.45,3.45,0,0,1-1.12,1.68,2.78,2.78,0,0,1-1.71.52,3,3,0,0,1-2.24-.94,4.07,4.07,0,0,1-1-2.71h8c0-.21,0-.37,0-.48a5.8,5.8,0,0,0-1.36-4.12A4.58,4.58,0,0,0,342.69,228Zm-3,4.58a3.28,3.28,0,0,1,.94-2.24,2.9,2.9,0,0,1,2.11-.84,2.79,2.79,0,0,1,2.25,1,3.61,3.61,0,0,1,.69,2Z"/><rect class="cls-1" x="349.76" y="224.12" width="1.82" height="14.82"/><path class="cls-1" d="M358.75,228a5,5,0,0,0-3.37,1.19,5.53,5.53,0,0,0-1.66,4.42,5.75,5.75,0,0,0,1.39,4.16,4.79,4.79,0,0,0,3.64,1.45,5.22,5.22,0,0,0,2.59-.66,4.4,4.4,0,0,0,1.81-1.84,7,7,0,0,0,.62-3.26,5.5,5.5,0,0,0-1.4-4A4.81,4.81,0,0,0,358.75,228Zm2.25,8.69a2.84,2.84,0,0,1-2.25,1,2.88,2.88,0,0,1-2.26-1,4.6,4.6,0,0,1-.9-3.09,4.55,4.55,0,0,1,.9-3.08,3,3,0,0,1,4.51,0,4.46,4.46,0,0,1,.9,3A4.65,4.65,0,0,1,361,236.65Z"/><path class="cls-1" d="M373.1,228.67a4.25,4.25,0,0,0-2.42-.71,3.67,3.67,0,0,0-1.79.41,4.14,4.14,0,0,0-1.33,1.23v-1.4h-1.65v14.85h1.82v-5.22a3.77,3.77,0,0,0,1.18,1,3.54,3.54,0,0,0,1.64.38,4.47,4.47,0,0,0,4.08-2.72,7.1,7.1,0,0,0,.6-3,7.25,7.25,0,0,0-.54-2.83A4.39,4.39,0,0,0,373.1,228.67Zm-.6,8a2.63,2.63,0,0,1-2.08,1,2.58,2.58,0,0,1-2-1,4.66,4.66,0,0,1-.84-3.06,4.86,4.86,0,0,1,.9-3.16,2.63,2.63,0,0,1,2.06-1.08,2.53,2.53,0,0,1,2,1,4.69,4.69,0,0,1,.85,3.07A4.87,4.87,0,0,1,372.5,236.66Z"/><path class="cls-1" d="M384.62,228.67a4.28,4.28,0,0,0-2.43-.71,3.67,3.67,0,0,0-1.79.41,4,4,0,0,0-1.32,1.23v-1.4h-1.66v14.85h1.82v-5.22a3.7,3.7,0,0,0,1.19,1,3.47,3.47,0,0,0,1.63.38,4.39,4.39,0,0,0,2.37-.7,4.51,4.51,0,0,0,1.72-2,7.73,7.73,0,0,0,.05-5.8A4.37,4.37,0,0,0,384.62,228.67Zm-.61,8a2.61,2.61,0,0,1-2.07,1,2.55,2.55,0,0,1-2-1,4.66,4.66,0,0,1-.84-3.06,4.86,4.86,0,0,1,.89-3.16,2.63,2.63,0,0,1,2.06-1.08,2.53,2.53,0,0,1,2,1,4.69,4.69,0,0,1,.85,3.07A4.87,4.87,0,0,1,384,236.66Z"/><path class="cls-1" d="M393.34,228a4.72,4.72,0,0,0-3.62,1.5,5.92,5.92,0,0,0-1.4,4.2,5.67,5.67,0,0,0,1.38,4.07,5.59,5.59,0,0,0,6.81.54,4.63,4.63,0,0,0,1.65-2.56l-1.88-.23a3.52,3.52,0,0,1-1.12,1.68,2.78,2.78,0,0,1-1.71.52,2.94,2.94,0,0,1-2.24-.94,4.07,4.07,0,0,1-1-2.71h8c0-.21,0-.37,0-.48a5.85,5.85,0,0,0-1.36-4.12A4.6,4.6,0,0,0,393.34,228Zm-3,4.58a3.28,3.28,0,0,1,.94-2.24,2.89,2.89,0,0,1,2.11-.84,2.79,2.79,0,0,1,2.25,1,3.61,3.61,0,0,1,.69,2Z"/><path class="cls-1" d="M411.67,228a3.86,3.86,0,0,0-3.31,1.88,2.66,2.66,0,0,0-1.08-1.38,3.53,3.53,0,0,0-1.95-.5,3.74,3.74,0,0,0-1.91.48,3.83,3.83,0,0,0-1.35,1.27V228.2h-1.63v10.74h1.82v-5.57a6.55,6.55,0,0,1,.3-2.25,2.31,2.31,0,0,1,.94-1.18,2.65,2.65,0,0,1,1.42-.4,1.71,1.71,0,0,1,1.46.6,3.13,3.13,0,0,1,.44,1.82v7h1.82V232.7a3.31,3.31,0,0,1,.75-2.41,2.54,2.54,0,0,1,1.88-.75,2,2,0,0,1,1.09.29,1.54,1.54,0,0,1,.64.77,5,5,0,0,1,.18,1.58v6.76H415v-7.37a3.8,3.8,0,0,0-.86-2.73A3.3,3.3,0,0,0,411.67,228Z"/><path class="cls-1" d="M422.09,228a4.74,4.74,0,0,0-3.62,1.5,6,6,0,0,0-1.39,4.2,5.67,5.67,0,0,0,1.38,4.07,4.89,4.89,0,0,0,3.73,1.45,5,5,0,0,0,3.08-.91,4.63,4.63,0,0,0,1.65-2.56l-1.89-.23a3.45,3.45,0,0,1-1.12,1.68,2.78,2.78,0,0,1-1.71.52,3,3,0,0,1-2.24-.94,4.12,4.12,0,0,1-1-2.71h8c0-.21,0-.37,0-.48a5.81,5.81,0,0,0-1.37-4.12A4.58,4.58,0,0,0,422.09,228Zm-3,4.58a3.28,3.28,0,0,1,.95-2.24,2.88,2.88,0,0,1,2.1-.84,2.79,2.79,0,0,1,2.26,1,3.61,3.61,0,0,1,.68,2Z"/><path class="cls-1" d="M437.25,229.22a2.83,2.83,0,0,0-1.21-.91,4.57,4.57,0,0,0-1.79-.35,3.85,3.85,0,0,0-3.41,1.77V228.2H429.2v10.74H431v-5.87a3.63,3.63,0,0,1,.84-2.79,2.91,2.91,0,0,1,2-.74,2.4,2.4,0,0,1,1.27.33,1.69,1.69,0,0,1,.75.88,4.91,4.91,0,0,1,.21,1.66v6.53h1.82v-6.6a10.15,10.15,0,0,0-.1-1.77A3.58,3.58,0,0,0,437.25,229.22Z"/><path class="cls-1" d="M443.88,237.38a1.22,1.22,0,0,1-.62-.13.8.8,0,0,1-.31-.35,3.34,3.34,0,0,1-.1-1v-6.27h1.83V228.2h-1.83v-3.75l-1.8,1.09v2.66h-1.34v1.42h1.34v6.17a6.47,6.47,0,0,0,.22,2.15,1.76,1.76,0,0,0,.77.83,3.18,3.18,0,0,0,1.53.31,7.41,7.41,0,0,0,1.38-.16l-.27-1.61A5.4,5.4,0,0,1,443.88,237.38Z"/><path class="cls-1" d="M455,228.32a4.51,4.51,0,0,0-1.16,1.51V228.2h-1.64v10.74H454v-5.62a6.9,6.9,0,0,1,.31-2.13,2,2,0,0,1,.67-1,1.75,1.75,0,0,1,1.07-.36,2.64,2.64,0,0,1,1.34.39l.62-1.68a3.53,3.53,0,0,0-1.86-.59A2,2,0,0,0,455,228.32Z"/><path class="cls-1" d="M466,234a5.7,5.7,0,0,1-.3,2.1,2.34,2.34,0,0,1-1,1.14,3,3,0,0,1-1.53.42,2.22,2.22,0,0,1-1.38-.41,1.84,1.84,0,0,1-.72-1.12,9.84,9.84,0,0,1-.12-1.92v-6h-1.81v6.65a8.77,8.77,0,0,0,.11,1.7,3.3,3.3,0,0,0,.56,1.35,2.91,2.91,0,0,0,1.22.92,4.38,4.38,0,0,0,1.77.36,3.94,3.94,0,0,0,3.41-1.82v1.58h1.63V228.2H466Z"/><path class="cls-1" d="M473.39,228.32a4.51,4.51,0,0,0-1.15,1.51V228.2H470.6v10.74h1.82v-5.62a7.21,7.21,0,0,1,.3-2.13,2,2,0,0,1,.68-1,1.71,1.71,0,0,1,1.07-.36,2.61,2.61,0,0,1,1.33.39l.63-1.68a3.56,3.56,0,0,0-1.87-.59A2.07,2.07,0,0,0,473.39,228.32Z"/><path class="cls-1" d="M486.2,234.44V232a10.23,10.23,0,0,0-.09-1.67,2.84,2.84,0,0,0-.56-1.24,2.94,2.94,0,0,0-1.27-.82,6.54,6.54,0,0,0-2.23-.32,7.27,7.27,0,0,0-2.44.38,3.44,3.44,0,0,0-1.6,1.08,4.38,4.38,0,0,0-.8,1.85l1.78.24a2.7,2.7,0,0,1,.9-1.59,3.22,3.22,0,0,1,1.9-.45,3.06,3.06,0,0,1,2.07.61,2,2,0,0,1,.51,1.57c0,.07,0,.23,0,.47a15.55,15.55,0,0,1-3.24.63,14.8,14.8,0,0,0-1.62.27,4.75,4.75,0,0,0-1.31.6,3,3,0,0,0-.94,1,3.05,3.05,0,0,0,.59,3.65,3.94,3.94,0,0,0,2.72.86,5.74,5.74,0,0,0,2-.35,6.89,6.89,0,0,0,1.95-1.22,3.77,3.77,0,0,0,.36,1.33h1.9a4.07,4.07,0,0,1-.46-1.29A25,25,0,0,1,486.2,234.44Zm-1.84-.22a4.33,4.33,0,0,1-.29,1.82,2.84,2.84,0,0,1-1.2,1.25,3.73,3.73,0,0,1-1.87.46,2.36,2.36,0,0,1-1.61-.48,1.62,1.62,0,0,1-.3-2.08,1.62,1.62,0,0,1,.72-.59,6.65,6.65,0,0,1,1.58-.36,13.36,13.36,0,0,0,3-.69Z"/><rect class="cls-1" x="488.98" y="224.12" width="1.82" height="14.82"/></svg>