<svg xmlns="http://www.w3.org/2000/svg" viewBox="0 0 47.2 31"><g data-name="Calque 2"><g data-name="Calque 1" fill="#fff"><path d="M30.7 0h16.5v31L39 28.6 30.7 31V0z"/><path d="M31.9 29.5l7.1-2.1 7 2.1v-10a40 40 0 0 0-14.1 3zm0-14.6A33.9 33.9 0 0 1 46 17v-6.8a32.6 32.6 0 0 0-14.1 4.7zm0-5.7a41.6 41.6 0 0 1 5.8 1.5 32.6 32.6 0 0 0-5.8 2.7zm0 6.9v5.1A38.7 38.7 0 0 1 46 18.3a34.5 34.5 0 0 0-10.4-2.2 22.3 22.3 0 0 0-3.7 0zm0-14.9V8a39 39 0 0 1 7.7 2.1A36.9 36.9 0 0 1 46 9V1.2zm-3.7 17.2v-1.3l-2-.3a9.3 9.3 0 0 0-2.9.5v7h1.4v-6l1.5-.2a6.9 6.9 0 0 1 2 .3m-7.8.9c0 2.5-1.2 3.8-3.2 3.8s-3.1-1.3-3.1-3.8 1.1-3.9 3.1-3.9 3.2 1.3 3.2 3.9m1.7 0c0-3.3-1.9-5.3-4.9-5.3s-4.9 2-4.9 5.3 1.9 5.2 4.9 5.2 4.9-2 4.9-5.2m-11-4.5a1.1 1.1 0 1 0-2.2 0 1 1 0 0 0 .9 1 8.2 8.2 0 0 1-1 2.4H10a7.2 7.2 0 0 0 1.1-3.4m-5.9 8.1a3.7 3.7 0 0 1-1.5.3c-1.3 0-2-.8-2-2.5s.7-2.6 2-2.6l1.5.2zm2.7 1.4v-1.2h-.7c-.4 0-.5-.1-.5-.5v-9.8H5.2V17l-1.5-.2c-2.2 0-3.6 1.5-3.6 3.9s1.4 3.8 3.6 3.8a4.1 4.1 0 0 0 1.9-.4 1.6 1.6 0 0 0 1.2.4l1.1-.2M0 7.4a4.5 4.5 0 0 0 4.9 4.9 11.7 11.7 0 0 0 2.6-.4v-1.4a7.8 7.8 0 0 1-2.6.4c-2.1 0-3.3-1.2-3.3-3.5s1.2-3.6 3.3-3.6a11.7 11.7 0 0 1 2.6.4V2.9a7.8 7.8 0 0 0-2.6-.4A4.5 4.5 0 0 0 0 7.4zm11.5-5.2l.9 1.5h1.3l-1.4-2.5h-1.6L9.4 3.7h1.3l.8-1.5zm.1 2.4C9.4 4.6 8 6 8 8.4s1.4 3.9 3.6 3.9 3.5-1.5 3.5-3.9-1.3-3.8-3.5-3.8zm0 6.4c-1.3 0-2.1-.9-2.1-2.6s.8-2.6 2.1-2.6 2 .9 2 2.6-.8 2.6-2 2.6zm6.8-8.5l-1.4.2v2h-1.6V6H17v3.6c0 1.7 1 2.7 2.9 2.7l1-.2v-1.3l-1 .2c-1 0-1.5-.5-1.5-1.4V6h2.5V4.7h-2.5zM25 4.6c-2.1 0-3.5 1.4-3.5 3.8a3.4 3.4 0 0 0 2.1 3.5 7.6 7.6 0 0 0 .8-1.1A2.1 2.1 0 0 1 23 8.9h5.4v-.5c0-2.4-1.3-3.8-3.4-3.8zm-1.9 3.1a1.9 1.9 0 1 1 3.8 0zm4.8 3.4h-2.8l-.8 1.2h3.1a2.1 2.1 0 0 0 .5-1.2zm-1.4 16v.4h.7v2h.4v-2h.8v-.4zm-.7 0v1.8l-1.2-1.8h-.4v2.4h.4v-1.8l1.1 1.8h.5v-2.4zm-3.2.4h1.1v-.4h-1.5v2.4h1.5v-.4h-1.1v-.6h1v-.4h-1zm-1.4-.4l-.6 1-.7-1h-.4v2.4h.4v-1.8l.7 1.1.7-1.1v1.8h.4v-2.4zm-3.3.4H19v-.4h-1.5v2.4H19v-.4h-1.1v-.6h1v-.4h-1zm-2.5-.4v.4h.7v2h.4v-2h.7v-.4zm-1.6 1.2v-.8h.5a.4.4 0 0 1 0 .8zm.8.3a.8.8 0 0 0 .5-.7.7.7 0 0 0-.8-.8h-.9v2.4h.4v-.9h.4l.5.9h.5zm-3-.1l.4-.9.3.9zm1 1h.5l-.9-2.4h-.5l-.9 2.4h.5l.2-.6h.9zM10 28.3h-.4v-.8h.4c.4 0 .4.2.4.4s0 .4-.4.4m0-1.2h-.8v2.4h.4v-.8h.4a.8.8 0 1 0 0-1.6m-2.2-.2h.3l.3-.4h-.3zm-.2.6h1.1v-.4H7.2v2.4h1.5v-.4H7.6v-.6h1v-.4h-1zm-1.9 1.6h-.4v-1.6h.4c.5 0 .7.2.7.8s-.2.8-.7.8m0-2h-.8v2.4h.8c.7 0 1.1-.4 1.1-1.2s-.4-1.2-1.1-1.2m-3.4.4h1.1v-.4H1.9v2.4h1.5v-.4H2.3v-.6h.9v-.4h-.9zM.5 29.1v-2H.1v2.4h1.5v-.4z"/></g></g></svg>