<svg xmlns="http://www.w3.org/2000/svg" viewBox="0 0 76.9 32"><g data-name="Calque 2"><g data-name="Calque 1" fill="#fff"><path d="M16 0a16 16 0 1 0 16 16A16 16 0 0 0 16 0zm10.8 23v-1.6h-3.5v3.5h2c0 .1-.1.1-.2.2a13 13 0 0 1-4.1 2.8 13.9 13.9 0 0 1-5 1 14.4 14.4 0 0 1-5-1 14.2 14.2 0 0 1-4.1-2.8A11.3 11.3 0 0 1 4.2 21a12.2 12.2 0 0 1-1.1-5 12.5 12.5 0 0 1 1.1-5A12.2 12.2 0 0 1 11 4.2a12.5 12.5 0 0 1 5-1.1 12.2 12.2 0 0 1 5 1.1 11.3 11.3 0 0 1 4.1 2.7 14.2 14.2 0 0 1 2.8 4.1 14.4 14.4 0 0 1 1 5 13.9 13.9 0 0 1-1 5 12.8 12.8 0 0 1-1.1 2z"/><path d="M10.7 7.3v3.6h7.1v3.3h-7.1v4.9H14a2.4 2.4 0 0 1 2.3-1.9 2.4 2.4 0 0 1 1.5.4 2.5 2.5 0 0 1 .9 2 2.2 2.2 0 0 1-.9 1.9A2.4 2.4 0 0 1 14 20h-3.3v4.9h10.7V7.3H10.7z"/><path d="M4.5 19.6a.4.4 0 0 0 .4.4h5.8v-.9H4.9a.5.5 0 0 0-.4.5zm31.9-6.2h-1.3v1.4h2.7v1.3h-2.7v4h4v-6.7h-2.7zm1.4 5.3h-1.4v-1.3h1.4zm26.8-5.3h-1.3v1.4h2.6v1.3h-2.6v4h4v-6.7h-2.7zm1.3 5.3h-1.3v-1.3h1.3zm-22.4-5.3h-1.3v6.7h1.3v-5.3h2.7v-1.4h-2.7zm8.4-1.3h-1.3v1.3h-1.3v1.4h1.3v5.3h2.6v-1.4h-1.3v-3.9h1.3v-1.4h-1.3v-1.3zm6.8 1.3h-2.6v6.7h4v-8h-1.4zm0 2.7v2.6h-1.3v-3.9h1.3zm16.9-2.7h-5.3v6.7h1.3v-5.3h1.3v5.3h1.3v-5.3h1.4v5.3h1.3v-6.7h-1.3z"/></g></g></svg>