<svg xmlns="http://www.w3.org/2000/svg" viewBox="0 0 61.1 36.8"><g data-name="Calque 2"><path d="M28.5 4.7l-1.8-1-.3-.2h1l2.4.6c.1.1.1.1.1.3l-.5.4c-.3.1-.3.1-.9-.1M37.7 8a25.4 25.4 0 0 1-4.6-1.6l-.7-.2 1.3-.5 2.7.8a3.9 3.9 0 0 1 1.3.6c.6.2.9.5.9.7s-.1.3-.2.3h-.7m4.1 1c-.1-.1-.1-.3 0-.9a3.7 3.7 0 0 1 .6-2.2c.1-.2.3-.3.7-.2s1.1.4.6 1.1l-.4.7A6.9 6.9 0 0 1 42.1 9h-.3m-.8.1a2.5 2.5 0 0 1-.7-1.2.9.9 0 0 1-.1-.5c0-.4 0-.4.3-.7l.5-.5h.3c.1.2.1.4.1 1.2a3.8 3.8 0 0 1-.2 1.6H41m-1.2.2c-.7-.4-1-.8-.8-1.2s.4-.5.5-.5.4.1.6.5.4 1.2.1 1.3h-.4m2.8.3c-.1-.1-.1-.1 0-.3a8.9 8.9 0 0 1 1.3-1.8c.4-.4.7-.6 1-.6l.7.2c.3.3.5.5.5.8l-.2.4a4.4 4.4 0 0 1-1.6.8 4.6 4.6 0 0 1-1.5.5h-.2m-3.7.4a.3.3 0 0 1-.3-.3c-.1-.2-.1-.3 0-.4h.3a1.9 1.9 0 0 1 1.1.5c.1.1.1.1 0 .2a2.1 2.1 0 0 1-1.1.1m5.7.7l-1.5-.2c-.7-.2-.6-.4.3-.7l2.1-.5c.6 0 .8.2.6.8l-.4.6h-.2a1.3 1.3 0 0 1-.9 0m-3.5 0c-.2-.1-.4-.4-.3-.6a.6.6 0 0 1 1.1 0c.1.2-.1.5-.3.6a.4.4 0 0 1-.5 0m-2 .1c-.2-.2-.3-.3-.2-.5h.7c.6 0 .7 0 .5.3s-.8.4-1 .3m.5.8l-.3-.3c0-.1 0-.1.1-.2l.7-.4c.3 0 .4.1.2.3l-.5.6h-.2m4.5.3a2.6 2.6 0 0 1-1.2-.7c-.4-.3-.5-.4-.3-.5h1.1l1.2.4a.4.4 0 0 1 0 .6.8.8 0 0 1-.8.1m5 .2l-1.7-.5-1-.5a.5.5 0 0 1 .3-.4 1 1 0 0 1 .9-.3l1.5.4c.9.3 1.3.6 1.2 1s-.5.4-1.2.3m-8.7.3c-.1 0-.2-.2-.3-.3a.2.2 0 0 1 0-.3.3.3 0 0 1 .1-.2l.4-.5h.1a1.1 1.1 0 0 1 0 1.1c-.1.2-.2.2-.3.2m2.5.3a1.3 1.3 0 0 1-.8-.8 2.6 2.6 0 0 1-.3-.7c.1-.3.7 0 1.6.8s.4.6-.1.7h-.4m-1.5 0c-.3-.1-.3-.1-.3-.4a2.7 2.7 0 0 1 0-.9h.1c.2-.1.5.2.6.7s.1.9-.4.7m1.6 4.6a7.2 7.2 0 0 1-2.8-.7 4.3 4.3 0 0 1-2.1-1.9 6 6 0 0 1-.6-1.9 4.3 4.3 0 0 1 0-1.6 1.1 1.1 0 0 1 .3-.8h.1a3.2 3.2 0 0 0 .1.7 7 7 0 0 0 .9 2.5l1 1a5 5 0 0 0 2.6.8h2.3a9.8 9.8 0 0 0 6.1-2.9 4.5 4.5 0 0 0 1.3-1.7 11.1 11.1 0 0 0 .8-2.1 9.1 9.1 0 0 0 .1-1.7v-1a4.7 4.7 0 0 0-1-2 8.4 8.4 0 0 0-4.3-2.5 10.3 10.3 0 0 0-2.6-.3 13.7 13.7 0 0 0-5.7 1 60.6 60.6 0 0 0-7.4 3l-2.3 1.1a24.5 24.5 0 0 1-6 1.6h-2.2a6.6 6.6 0 0 1-4.7-1.8A4.1 4.1 0 0 1 15.6 4a2.9 2.9 0 0 1 0-1.3 2.4 2.4 0 0 1 .3-1A3.8 3.8 0 0 1 18.3.3a3.9 3.9 0 0 1 1.6-.2 9.1 9.1 0 0 1 2.3.3c1.5.6 2.8 1.4 3.1 2.1a.6.6 0 0 1 0 .6c-.1.4-.6.6-1.3.8a3.4 3.4 0 0 1-2 0 1.7 1.7 0 0 1-1.1-1.1q0-.6.9-.6h.4c.2 0 .2 0 .2.1v.3a.8.8 0 0 0 .7.4h.4l.5-.3v-.3c-.2-.5-1.2-.9-2.5-1.1h-1.4A1.9 1.9 0 0 0 18.2 3a2.4 2.4 0 0 0 0 1.2 3 3 0 0 0 1.9 1.9 9.8 9.8 0 0 0 4.2.6 24.5 24.5 0 0 0 6-1.6l3.2-1.4 3.4-1.6A31.8 31.8 0 0 1 44.4 0h3.1a18.7 18.7 0 0 1 3.9.9 6.7 6.7 0 0 1 2.2 1.3 7.2 7.2 0 0 1 1.7 2.2 6 6 0 0 1 .5 3.8c-.2.7-.5 1.8-.8 2.6a8.9 8.9 0 0 1-2.1 2.9 12.1 12.1 0 0 1-5 3.2 8.6 8.6 0 0 1-2.6.5H43m12.4 1.1c-.9-.2-1.5-.5-1.7-1a1.1 1.1 0 0 1-.2-.5 1.5 1.5 0 0 1 .4-1c0-.1 0-.1.1 0a1.4 1.4 0 0 0 .2.7 1.1 1.1 0 0 0 1.6.5 1.5 1.5 0 0 0 .6-.5V16a5.3 5.3 0 0 0-1.7-1.6l-.5-.3h-.1v-.2c.2-.3.7-.4 1.3-.4h.6a3.3 3.3 0 0 1 1.5 1.8 1.6 1.6 0 0 1 .2 1 2 2 0 0 1-.3 1.1 2 2 0 0 1-1.7 1.2h-.3M2.3 14.1a7.6 7.6 0 0 0 .9-.9.8.8 0 0 0 .1-.8c-.2-.2-.7 0-1.2.5l-.2.3a2.1 2.1 0 0 0 0 .8c0 .2.2.2.4.1m1.2 6.2c-.2-.1-.4-.4-.8-1.1a21.8 21.8 0 0 1-.9-2.3v.5a5.2 5.2 0 0 1-.1 1.9.6.6 0 0 1-.5.5H.7a2.5 2.5 0 0 1-.2-1.2 31 31 0 0 1 .6-3.4 7.6 7.6 0 0 0 .3-1.8.7.7 0 0 0-.1-.5c-.1-.2-.3-.2-.7 0H.4V10a41.1 41.1 0 0 1 .4-5.4 4.2 4.2 0 0 1 .4-1c.9-1.7 1.7-2.4 2.3-2.2s.7.6 1 1.5a16.4 16.4 0 0 1 .7 7c-.3 2.2-1 4-2.1 4.9h-.2v.2a6.7 6.7 0 0 0 .5 2 4 4 0 0 0 .7 1.3c.2.3.3.4.3.6s-.1.2-.1.3-.1.3-.2.4-.4.8-.6.7m4.3-3a.8.8 0 0 0 .7-.3v-.3a3 3 0 0 0-.3-1.1c-.3-.7-.7-.6-1 .2a4.3 4.3 0 0 0-.2 1.1c0 .4 0 .4.3.4h.5m1.1 3.8c-.1-.1-.1-.3-.2-1s-.2-1.2-.4-1.3a.1.1 0 0 0-.1-.1l-.6.3a5.4 5.4 0 0 0-1.1 1.3c-.3.5-.5.6-.6.4s-.4-1-.3-2.3a45.1 45.1 0 0 1 2-12.3 28 28 0 0 1 1.1-3.2c.2-.4.4-.5.5-.3s.3.7.3 3.2.1 1.9.1 4.5c.1.7.1 2.4.1 3.8v2.7l.4.3.4.4-.4.7-.4.8v.5c-.2 1-.4 1.5-.6 1.6h-.2m4.5 2.5a5.6 5.6 0 0 1-1.6-.7 3.6 3.6 0 0 1-1.1-1.4v-.7a4.5 4.5 0 0 1 .1-1.2v-.2h.6l.6.2a1 1 0 0 0-.1.9c.1.2.4.3.8.1a.9.9 0 0 0 .5-.4v-.3a.7.7 0 0 0-.1-.5c-.1-.3-.6-.7-1-1a1.4 1.4 0 0 1-.7-.6c-.3-.4-.3-1-.2-2a47.2 47.2 0 0 1 2.7-8.9 2.8 2.8 0 0 1 .5-.8l.4-.2c.3 0 .6.3.7.9a4.9 4.9 0 0 1 .3 1.5 23.7 23.7 0 0 1 .1 6A10.9 10.9 0 0 1 15 18l-.4.5a.7.7 0 0 1-.6-.4 1.7 1.7 0 0 1-.3-.6h.2a1 1 0 0 0 .8-.6.6.6 0 0 0 .1-.4c0-.2 0-.3-.1-.4a1.7 1.7 0 0 0-.6-.6h-.3a.6.6 0 0 0-.5.2 2.8 2.8 0 0 0-.6 1.5 2.9 2.9 0 0 0 .2.9c.1.3.3.5.8.9l.6.6a3.9 3.9 0 0 1 .6 1.8 8.9 8.9 0 0 1-.3 1.4 1 1 0 0 1-.8.8h-.4m6-1.7l.4-.3v-.5c-.1-.2-.3-.3-.4-.4h-.6a.7.7 0 0 0-.3.9l.4.4h.5m-1.3 4.4a2.2 2.2 0 0 1-1.2-.5 1.5 1.5 0 0 1-.4-2.2 1.4 1.4 0 0 0 .3-.9 2.5 2.5 0 0 0 .1-.8h-.1a1.7 1.7 0 0 1-.8-1.8.6.6 0 0 1 .1-.4c0-.1.1-.7.2-1.2a19.1 19.1 0 0 1 .6-2.7 15 15 0 0 1 1.8-4.8l.5-.5c.4-.4.6-.5.8-.5s.6.5.8 1.2a23.6 23.6 0 0 1 .8 7 10.5 10.5 0 0 1-.4 3.1 5.1 5.1 0 0 1-.7 1.5c-.3.3-.7.3-1.3.2s-1-.3-1.1-.2 0 .2.2 1.8.2 1.8.2 1.9h-.4m40.5 1a11.3 11.3 0 0 0 0-2.6 6.7 6.7 0 0 0-.7-3.1 1.4 1.4 0 0 0-.6-.7h-.4c-.6-.2-.8-.4-.7-.7s.1-.4.4-.7l1-1 1.4-1.7a2.4 2.4 0 0 1 1.1-.6c.2 0 .3.1.4.3A4.8 4.8 0 0 1 61 19v.5h-.1c0 .1-.2.2-.4.3l-.6.3a1 1 0 0 0-.5.8v.7c.3 2.3.6 3.8.9 4.1v.3l-.3.8a1.7 1.7 0 0 1-1.3 1h-.1zM24 23.9a1.4 1.4 0 0 0 .6-1.5c-.1-.4-.3-.8-.6-.9s-.8 0-1.1.5-.5 1-.4 1.2.3.4.6.5a1.5 1.5 0 0 0 .9.2m0 7.3c-.1-.1-.1-.1-.1-.3s.4-5.9.4-5.9a8.3 8.3 0 0 0-1.2 1.3 19.6 19.6 0 0 0-1.3 2.5v.3h-.1c-.4-.4-.5-1.9-.3-4a31.9 31.9 0 0 1 2.8-10.2c.3-.6.9-1.5.9-1.5l.2.3c.5 1.4.6 6.1.4 10.3v.5l.4.5.5.4-.3.2-.5.4-.3.2v.8a7.8 7.8 0 0 1-.6 3.6.9.9 0 0 1-.8.6m31.7.4c-.9-.4-1.6-3.6-1.7-8.7v-1.3h1.3a1.6 1.6 0 0 1 1.4 1.2 4.4 4.4 0 0 1 .2 1.5v1c-.1.3-.2.4-.7.4h-.4a.4.4 0 0 0-.3.5.5.5 0 0 0 .2.4h.4c.7.1.9.2.9.3s-.1.3-.7.6l-.5.2c-.1 0-.1 0-.1.2.1 0 .1 0 .1.1h.1c.2.3.6.3 1.3 0l.2-.2a1.1 1.1 0 0 1 .3.6 2 2 0 0 1 .2 1 2.1 2.1 0 0 1-.3 1.2 2.3 2.3 0 0 1-1.3.7h-.6m3.2 3.2a5 5 0 0 1-1.6-.3c-.7-.2-.8-.5-.3-1a4.2 4.2 0 0 1 1.9-.9 3.3 3.3 0 0 1 1.4 0 .9.9 0 0 1 .8 1 1.1 1.1 0 0 1-1 1.2 2.4 2.4 0 0 1-1.2 0m-28.3.5l-1.5-.8-.9-.6c-.4-.3-.5-.8-.6-1.5a13.1 13.1 0 0 1 .4-2.7 7.7 7.7 0 0 0 .2-1.8A2.6 2.6 0 0 0 28 26a1.4 1.4 0 0 0-.7-.8l-.2-.2a22.8 22.8 0 0 1-.2-3.1c.1-1.4.1-2.3.3-4.6a14 14 0 0 0 .2-1.8.7.7 0 0 1 1.2-.2l.4.6a5.9 5.9 0 0 0 1.4 2.6l.4.3h.2v.8c.2 2.5.4 4.5.5 5.5s.1 1-.1 1.2-.6.2-1.5-.1h-.2c-.1 0-.2.7-.2 1.1a8.8 8.8 0 0 0 0 2.3 14.2 14.2 0 0 0 1.2 3.7 5.2 5.2 0 0 1 .6 1.6c0 .3-.2.4-.6.2m21 .5a2.6 2.6 0 0 1-1.3-.8c-1-1-1.6-3-1.8-5.8 0-.7 0-2.8.1-3.4s.2-2.2.3-3.1a7.5 7.5 0 0 1 .3-1.5v.7a30.7 30.7 0 0 0 0 4.3 9.8 9.8 0 0 0 .7 3.8 1.2 1.2 0 0 0 .6.6h.6a2 2 0 0 0 .8-.8 3.5 3.5 0 0 0 .1-1.2 41.3 41.3 0 0 0-.5-5.3c-.1-.7-.2-1.4-.2-1.6a1 1 0 0 0-.1-.4h.1a8.2 8.2 0 0 1 1.1 2.7 39.5 39.5 0 0 1 .9 7.7 10.4 10.4 0 0 1-.5 3.1c-.2.6-.5 1-.9 1h-.3m-17.2-7l.6-.4a1.1 1.1 0 0 0 0-1.7 1.3 1.3 0 1 0-1.2 2.1h.6m2.4 7.9a11.1 11.1 0 0 1-.9-3.9c-.3-1.7-.4-2.3-.5-2.6s-.1-.3-.2-.3l-.2.2c-.6.6-1.1 2.6-1.4 5.8v.5c0 .2 0 .2-.1.1s-.4-.7-.5-1a11.8 11.8 0 0 1-.9-4 20.9 20.9 0 0 1 0-5 40.7 40.7 0 0 1 1.6-7.6 3.9 3.9 0 0 1 .4-1 17.1 17.1 0 0 1 1.1 4.5 45.5 45.5 0 0 1 .7 4.5v.5l.2.3a1.6 1.6 0 0 1 .6 1.4 2.1 2.1 0 0 1-.2.6v.2a10.4 10.4 0 0 1 .1 1.1 19.5 19.5 0 0 1 .3 5.6v.2a.1.1 0 0 1-.1-.1m-31.3.1a6.6 6.6 0 0 1-4.1-1.9 6.6 6.6 0 0 1-1.3-2.8 12.4 12.4 0 0 1 0-4.7A4.8 4.8 0 0 1 4.5 23a4.3 4.3 0 0 1 1.6 0 9.4 9.4 0 0 1 4.9 2.4l2 2.2a19.2 19.2 0 0 1 1.6 2.7 5.4 5.4 0 0 0 .6 1.1c1.2 2.3 2.2 3.4 3.5 3.9h2.1a3.6 3.6 0 0 0 1.1-1 1.3 1.3 0 0 0 0-1 1.3 1.3 0 0 0-.6-.7 2.1 2.1 0 0 0-1.2-.5c-.2 0-.4.1-.4.2a1.1 1.1 0 0 0-.1.5 1.6 1.6 0 0 0 1 .8c.1 0 .1 0 .1.1h-.2a1.9 1.9 0 0 1-1.5 0 1.9 1.9 0 0 1-.7-1.6 1.4 1.4 0 0 1 .4-1.1c.2-.2.4-.2.6-.3a3.7 3.7 0 0 1 2.1 0 3.4 3.4 0 0 1 1.1.7 2.6 2.6 0 0 1 .9 1.9 1.6 1.6 0 0 1-.2 1 4.1 4.1 0 0 1-2.4 1.9 5.7 5.7 0 0 1-4.6-1.2 6 6 0 0 1-1.1-1.2 4.2 4.2 0 0 1-.7-1.1 24.3 24.3 0 0 0-1.8-2.4A7.3 7.3 0 0 0 8.9 28a4.9 4.9 0 0 0-1.8-.4 3.5 3.5 0 0 0-3 2.1 3.6 3.6 0 0 0 0 2.5A2.7 2.7 0 0 0 5.9 34 2.1 2.1 0 0 0 7 34a2.7 2.7 0 0 0 1.2-.6 1.8 1.8 0 0 0 .5-1.1.8.8 0 0 0-.4-1 1.5 1.5 0 0 0-1.1.2c-.2.2-.4.4-.4.5h-.1l-.4-.6c-.3-.6-.1-1.1.5-1.6s2-.2 2.9.9a3.3 3.3 0 0 1 .8 1.7c.3 1.6-.5 2.8-2.2 3.6a5 5 0 0 1-2.7.5m40.3-5.2l.5-.4a3.6 3.6 0 0 0 .2-1.8 1.7 1.7 0 0 0-.6-.8h-.6a1.8 1.8 0 0 0-.6.8 4.7 4.7 0 0 0 0 1.2 1.9 1.9 0 0 0 .5.9.7.7 0 0 0 .6.1m-.2 5.4c-1.2-.2-2-1.5-2.4-3.6a25.8 25.8 0 0 1-.2-3.2 39.7 39.7 0 0 1 .6-5.6 6.6 6.6 0 0 1 .7-2.8c.5-.7 1.1-.3 1.6 1.1a37.5 37.5 0 0 1 2 8 11 11 0 0 1 .2 2.5v1.2c-.2 1.5-.7 2.2-1.6 2.4h-.9m-6.9 0h-.3a.8.8 0 0 1 .1-.3c0-.7 0-2.3-.1-4-.3-4.6-1.1-11.7-1.5-13.7v-.4a1.3 1.3 0 0 1 .6-.2A3.3 3.3 0 0 1 39 18c.6.1.9.5 1 1.5a19.6 19.6 0 0 1-.4 3.8 33.1 33.1 0 0 0-.4 4.3c0 .9 0 1.2.2 1.2a6.5 6.5 0 0 0 .9-1.6 5.1 5.1 0 0 0 .4-1c.5-1.1.7-1.5.9-1.6s.3 0 .6 1.2a3.5 3.5 0 0 1 .2 1.2 3.2 3.2 0 0 1-1.4 2.2l-.4.3a1.5 1.5 0 0 0-.1 1.4 10.5 10.5 0 0 0 2.2 3.8l.3.4c.3.4.2.6-.3 1s-.5.4-.7.4-.3 0-.6-.3a8.1 8.1 0 0 1-1.3-2.8l-.2-.6v.6a11.2 11.2 0 0 1 .3 2.2c0 .7 0 .8-.2 1s-.5.3-1.2.2" fill="#fff" data-name="Calque 1"/></g></svg>