<svg xmlns="http://www.w3.org/2000/svg" viewBox="0 0 74.1 35.7"><g data-name="Calque 2"><g data-name="Calque 1" fill="#fff"><path d="M14.8 24.2h3.8v-.8h-8.4v.8h3.5a1.7 1.7 0 0 0-1.1.6h-.9v.7h.7v3.6h.8s0-2.8.1-3.5 2.5-.9 2.5-.9a1.9 1.9 0 0 0-1-.5zm-2.4 1zm1.6-1zM33.6 5.9l.6.3 1.3.7c.7.4.9.8.9 1.3a1.5 1.5 0 0 1-1.7 1.5 2.3 2.3 0 0 1-1.5-.5 1 1 0 0 1-.3-.8V8H32v2.3h.2l2.2.2c2.2 0 3.9-1.4 3.9-3.2a2.9 2.9 0 0 0-1.6-2.5l-1.2-.6-.4-.2c-1-.5-1.4-.9-1.4-1.6a1.2 1.2 0 0 1 .4-.9 2.1 2.1 0 0 1 1.2-.4 2.5 2.5 0 0 1 1.3.4c.2.1.2.3.2.5v.5h.9V.7h-.2a6.2 6.2 0 0 0-1.8-.5 4.2 4.2 0 0 0-3 1.1 3.2 3.2 0 0 0-.8 2 2.8 2.8 0 0 0 1.7 2.6zm8.6 4.7a4.4 4.4 0 0 0 3-1.4l.4-.4-.3-.5-.4.3a3.1 3.1 0 0 1-1.7.5 2.7 2.7 0 0 1-2.7-2.7l.6-.2 4.1-.6h.2A2.4 2.4 0 0 0 42.8 3a3.8 3.8 0 0 0-3.7 4c0 2.1 1.3 3.6 3.1 3.6zm0-6.8c.7 0 1.2.4 1.2 1s-.5.5-2.3.8h-.7a2 2 0 0 1 1.8-1.8zm4.6 1.7V9c-.1.8-.1.9-.4.9h-.1v.4h3.1v-.4h-.3c-.4 0-.6-.3-.6-1.1V6.3c0-.9.1-1.1.4-1.4a1.8 1.8 0 0 1 1.2-.5 1.2 1.2 0 0 1 1.1.7c.2.3.2.6.2 1.3v1.1a11 11 0 0 1-.1 2.1.3.3 0 0 1-.3.3h-.1v.4H54v-.4h-.3c-.4 0-.6-.3-.6-1.1V6.4c0-.9.1-1.2.4-1.5a1.8 1.8 0 0 1 1.2-.5 1.2 1.2 0 0 1 1.1.7c.2.3.2.6.2 1.3v1.1a11 11 0 0 1-.1 2.1.3.3 0 0 1-.3.3h-.1v.4h3.2v-.4h-.3c-.4 0-.6-.3-.6-1.1V6c0-.6-.1-.9-.1-1.2a3 3 0 0 0-.4-1 2.4 2.4 0 0 0-1.6-.7 2.8 2.8 0 0 0-1.3.4A6 6 0 0 0 53 4.6a1.3 1.3 0 0 0-.5-.9 1.7 1.7 0 0 0-1.4-.6 2.8 2.8 0 0 0-1.3.4 7.6 7.6 0 0 0-1.3 1V3.3h-.1l-2.6.2v.4h.2c.6-.1.8.4.8 1.6zm12.8-.1v2.4a2.8 2.8 0 0 0 .2 1.5 1.5 1.5 0 0 0 .6.9 2.5 2.5 0 0 0 1.2.4 2.8 2.8 0 0 0 1.3-.4 5.3 5.3 0 0 0 1.4-1v1.1H67v-.4h-.2c-.6 0-.8-.4-.9-1.3V6.7c0-1 0-2 .1-3v-.4h-.1l-2.8.2v.4h.3c.6 0 .8.4.8 1.6v2c0 .9-.1 1.1-.4 1.4a1.7 1.7 0 0 1-1.2.5 1.1 1.1 0 0 1-.9-.5 1.4 1.4 0 0 1-.2-.6 8.2 8.2 0 0 1-.2-1.8 24.4 24.4 0 0 1 .1-2.7v-.5h-.1l-2.8.2v.4h.3c.6-.1.8.3.8 1.5zm8.8.4V9c-.1.8-.1.9-.4.9h-.1v.4h3.3v-.4h-.4c-.5 0-.7-.3-.7-1.2v-2c0-.9 0-1.2.4-1.6s.6-.6.8-.6a.6.6 0 0 1 .6.6h.3c.6 0 .9-.5.9-1.1a.9.9 0 0 0-1-1 1.6 1.6 0 0 0-1 .5A6.9 6.9 0 0 0 70 4.8V3.4h-2.8v.4h.2c.8 0 1 .5 1 2zM40.8 26.3v-.7h-.4c-.2 0-.3-.1-.6-.5s-.3-.8-.4-1.2l-2.1-5.7a5.4 5.4 0 0 0-.3-1h-1.7a3.8 3.8 0 0 1-.3 1L33 23l-.9 2-.4.6h-.3v.6h3v-.6h-.8c-.1-.2 0-.5.1-1s.3-1 .5-1.5H37l.2.5.5 1.7v.4h-.3v.5h3.4zm-5.1-4.2h-1.1l1.1-2.8 1 2.8zm10.1 3.1v1h2.6v-.4h-.3c-.4 0-.7-.3-.7-1.2s-.1-1.5-.1-1.8a28.1 28.1 0 0 1 .1-2.9v-.4h-2.7v.5h.2c.6 0 .8.4.8 1.5v2c0 .8-.1 1-.4 1.3a1.4 1.4 0 0 1-1.1.5 1.1 1.1 0 0 1-.9-.5c-.1-.2-.1-.4-.2-.6a7.2 7.2 0 0 1-.2-1.7 22.6 22.6 0 0 1 .1-2.6v-.4h-2.7v.5h.2c.6 0 .8.4.8 1.5v2.3a4.9 4.9 0 0 0 .2 1.5 1.6 1.6 0 0 0 .6.8 2.1 2.1 0 0 0 1.2.4 2.8 2.8 0 0 0 1.2-.4zm7 .6h-.1v.5h3.2v-.5h-.3c-.4 0-.6-.3-1.2-1.2l-1.1-1.8h-.1l1.2-1.5c.8-1 .9-1.2 1.2-1.2h.1v-.4h-2.6v.3h.2c.4 0 .5.1.5.4a1.6 1.6 0 0 1-.4.9l-.7.8-.6-1c-.3-.5-.5-.8-.4-.9s0-.2.2-.2v-.4h-3.1v.4h.3c.4 0 .6.3 1.2 1.3l1 1.5-1.2 1.6c-.8 1-1.1 1.3-1.4 1.3v.5h2.7v-.5h-.3c-.3 0-.5-.1-.5-.4a2.4 2.4 0 0 1 .6-1.1l.6-.8.6.9a4 4 0 0 1 .6 1.3c0 .2-.1.2-.2.2zm10.5-3a3.3 3.3 0 0 0-3.5-3.5 3.5 3.5 0 0 0-3.7 3.6 3.3 3.3 0 0 0 3.5 3.6 3.6 3.6 0 0 0 3.7-3.7zm-5.3-.1c-.1-1.7.5-2.7 1.6-2.7s1.8 1.2 1.8 3.2-.5 2.6-1.6 2.6-1.8-1.2-1.8-3.1zm8.7-5.9c0-.9-.1-.9-1-.8s-.9.2-.9 1 0 .9.7.9 1.2-.3 1.2-1.1zM64.9 25c0 .8-.1.8-.3.8h-.1v.5h3v-.5h-.3c-.4 0-.6-.2-.6-1v-2.6a21.7 21.7 0 0 1 .1-2.6h-2.8v.4h.3c.6 0 .8.4.8 1.5v2a6.6 6.6 0 0 1-.1 1.5zm3.5-.6v1.7h.1a5.5 5.5 0 0 0 1.7.3 2.5 2.5 0 0 0 2.7-2.4c0-.9-.6-1.4-1.6-1.9l-.6-.3c-.7-.4-1-.6-1-1a.9.9 0 0 1 1.1-.8 1.5 1.5 0 0 1 .9.2c.2.2.3.2.3.6v.4h.5v-1.6a4.1 4.1 0 0 0-1.5-.2c-1.6 0-2.7.9-2.7 2.1a1.9 1.9 0 0 0 1.2 1.7l.9.5c.7.3 1.1.6 1.1 1.1s-.5 1-1.3 1a1.2 1.2 0 0 1-1.3-1.2v-.2zM51.5 14.1h.1c0-.9-.7-1.4-1.8-1.4a2.4 2.4 0 0 0-2.5 2.3 2.1 2.1 0 0 0 2.1 2 3.4 3.4 0 0 0 2.1-.8l.2-.2-.2-.3h-.2a2.5 2.5 0 0 1-1.2.4 1.7 1.7 0 0 1-1.8-1.7h.4zm-3.3 0a1.1 1.1 0 0 1 1.2-1c.5 0 .8.2.8.5s-.3.3-1.5.5zm7.2 2.5v.3h2.1v-.3h-.2c-.3 0-.4-.2-.4-.6v-1.7a1.7 1.7 0 0 0-.2-.9 1 1 0 0 0-.4-.5 1.4 1.4 0 0 0-.9-.3l-.9.2-.9.6v-.6h-1.9v.2h.2c.4 0 .6.3.6 1v1.4c0 .2-.1.6-.1.7s0 .5-.2.5h-.1v.3h2.1v-.3H54c-.3 0-.4-.2-.4-.6v-1.5c0-.5.1-.7.3-.8a1.1 1.1 0 0 1 .8-.3 1 1 0 0 1 .9.4 1.7 1.7 0 0 1 .1.8v.6a4.5 4.5 0 0 1-.1 1.3c0 .1 0 .1-.2.1zm3.5-2.8v.9a117.3 117.3 0 0 1 13.7 0l.8-1s-10.5.3-14.5.1zm-13.6.8v-1c-4.6.5-14.3 0-14.3 0l.6.9c3.9-.2 13.7.1 13.7.1zM33.1 34.3a.9.9 0 0 1-.9.5 1.3 1.3 0 0 1-1.3-1.4c0-.9.5-1.3 1.1-1.3a.9.9 0 0 1 .8.4h.2c.1 0 .1-.2.1-.3s0-.3-.1-.4h-.7a1.8 1.8 0 0 0-2 1.8 1.7 1.7 0 0 0 .5 1.3 1.8 1.8 0 0 0 1.1.4 1.6 1.6 0 0 0 1.4-.9zm.8-4.2c0 .3.1.4.4.4a.4.4 0 1 0 0-.8.4.4 0 0 0-.4.4zM35 35c-.3-.1-.3-.2-.3-.8v-2.5h-.1l-.8.4c-.1 0-.1.1 0 .1.2.1.2.2.2.5v1.4c0 .6 0 .7-.3.8h-.1c-.1 0-.1.2 0 .2h1.5c.1 0 .1-.2 0-.2zm1.8-2.7h.9a.3.3 0 0 0 0-.4h-.9c-.1 0-.1 0-.1-.2v-.3h-.2l-.4.5-.5.3v.2h.3c.1 0 .1 0 .1.2v1.9a.8.8 0 0 0 .9.9 1.3 1.3 0 0 0 .9-.4c0-.1 0-.1-.1-.1h-.4c-.6 0-.6-.4-.6-.9v-1.5c0-.2 0-.2.1-.2zm4 2.1a1 1 0 0 1-.8.4c-.9 0-1.3-.7-1.3-1.5s0-.3.2-.3h2v-.2a1 1 0 0 0-1.1-1 1.7 1.7 0 0 0-1.7 1.9 1.9 1.9 0 0 0 .3 1 1.7 1.7 0 0 0 1.2.6 1.3 1.3 0 0 0 1.3-.8c0-.1 0-.1-.1-.1zM39.7 32a.6.6 0 0 1 .6.6c0 .1 0 .1-.1.1h-1.5a1.2 1.2 0 0 1 1-.7zm.7-2.2c-.1 0-.1.1-.2.2l-.8 1.4h.2l1-1.1.2-.3-.2-.2zm8.8 5.2c-.3-.1-.4-.2-.4-.8v-1.4c0-.6-.3-1-.9-1a2.8 2.8 0 0 0-1.2.4h-.2a.7.7 0 0 0-.8-.5 2.1 2.1 0 0 0-1.1.4c-.1 0-.1 0-.1-.1v-.4h-.1l-.8.4c-.1 0-.1.1 0 .1.2.1.2.2.2.5V34c0 .6 0 .7-.3.8h-.2s0 .2.1.2h1.5c.1 0 .1-.2 0-.2h-.1c-.3-.1-.3-.2-.3-.8v-1c0-.3 0-.4.1-.5s.3-.3.7-.3.7.3.7.8v1.2c0 .6 0 .7-.3.8h-.1c-.1 0-.1.2 0 .2h1.5c.1 0 .1-.2 0-.2H47c-.3-.1-.3-.2-.3-.8V33c0-.3 0-.4.1-.5s.3-.3.7-.3.7.3.7.8v1.2c0 .6 0 .7-.3.8h-.1c-.1 0-.1.2 0 .2h1.5c.1 0 .1-.2.1-.2zm3.3-.6a1 1 0 0 1-.8.4 1.4 1.4 0 0 1-1.4-1.5.3.3 0 0 1 .3-.3h2v-.2a1.1 1.1 0 0 0-1.2-1 1.7 1.7 0 0 0-1.6 1.9 1.9 1.9 0 0 0 .3 1 1.7 1.7 0 0 0 1.2.6 1.3 1.3 0 0 0 1.3-.8c0-.1 0-.1-.1-.1zM51.4 32a.6.6 0 0 1 .6.6c0 .1 0 .1-.1.1h-1.5a1.1 1.1 0 0 1 1-.7zm.9-1.6l.2-.3-.2-.2h-.2a.2.2 0 0 0-.2.2l-.8 1.4c0 .1.1.1.2.1zm4.5 4.4h-.3c-.3 0-.3-.3-.3-.9v-4.6l-.9.3c-.1 0-.1.1 0 .2h.1c.2.2.2.2.2.7v1.4H55a1.9 1.9 0 0 0-2 1.9 1.5 1.5 0 0 0 1.5 1.6 2.5 2.5 0 0 0 1.1-.4v.3h.1l1.1-.3c.1.1.1-.2 0-.2zm-1.2-.5v.4l-.7.2c-.8 0-1.2-.7-1.2-1.5a1.3 1.3 0 0 1 1.1-1.4.8.8 0 0 1 .7.4.4.4 0 0 1 .1.3zm3 .7c-.3-.1-.3-.2-.3-.8v-2.5h-.1l-.8.4h.1c.2.1.2.2.2.5V34c0 .6 0 .7-.3.8h-.2c-.1 0 0 .2 0 .2h1.6zm-1.1-4.9a.4.4 0 0 0 .4.4c.3 0 .5-.1.5-.4a.4.4 0 0 0-.4-.4.5.5 0 0 0-.5.4zm4.4 4.3a.9.9 0 0 1-.7.4 1.4 1.4 0 0 1-1.4-1.5c0-.2 0-.3.2-.3h2c.1 0 .1-.1.1-.2a1.1 1.1 0 0 0-1.2-1 1.7 1.7 0 0 0-1.7 1.9 1.4 1.4 0 0 0 .4 1 1.4 1.4 0 0 0 1.2.6 1.5 1.5 0 0 0 1.3-.8c0-.1-.1-.1-.2-.1zM60.8 32a.5.5 0 0 1 .6.6h-1.5a1 1 0 0 1 .9-.6zm.7-2.2l-.2.2-.7 1.4a.1.1 0 0 0 .1.1l1.1-1.1a.4.4 0 0 0 .1-.3.3.3 0 0 0-.1-.2zm4.3 2.1h-1.2c-.1 0-.1.1 0 .2h.2a.1.1 0 0 1 .1.1 1.1 1.1 0 0 1-.1.5l-.5 1.3c-.1.1-.1.3-.2.3V34a13.8 13.8 0 0 1-.6-1.6c-.1-.2-.1-.3.2-.3h.1v-.2h-1.6c-.1 0-.1.1 0 .2h.2c.3.1.3.3.5.6l.6 1.7a3.6 3.6 0 0 1 .4.9h.1a3.6 3.6 0 0 0 .3-.7l.8-1.8c.2-.4.3-.7.6-.7h.1c.1-.1.1-.2 0-.2zm3.2 2.9a.1.1 0 0 0-.1.1h-.2c-.3 0-.4-.3-.4-.7v-1.4c.1-.7-.2-1-.8-1s-1.5.6-1.5 1 0 .1.1.1h.4a.4.4 0 0 0 .1-.3c0-.3.3-.4.6-.4s.6.4.6.7v.4a.4.4 0 0 1-.1.3l-1 .3c-.5.2-.7.4-.7.7a.9.9 0 0 0 .3.6l.6.2.6-.2.3-.2h.1a.9.9 0 0 0 .6.3.6.6 0 0 0 .6-.4zm-1.3-.5c0 .2 0 .3-.1.4l-.5.2a.5.5 0 0 1-.5-.5c0-.3.2-.4.7-.6h.4zm2.9.7c-.3-.1-.3-.2-.3-.8v-4.9h-.1l-.9.3v.2h.1c.3.2.3.2.3.7v3.7c0 .6 0 .7-.4.8h-.1c-.1 0-.1.2 0 .2h1.6V35zm3.3-.6a.9.9 0 0 1-.8.4 1.4 1.4 0 0 1-1.3-1.5c0-.2 0-.3.2-.3h2v-.2a1 1 0 0 0-1.1-1 1.7 1.7 0 0 0-1.7 1.9 1.4 1.4 0 0 0 .4 1 1.4 1.4 0 0 0 1.2.6 1.5 1.5 0 0 0 1.3-.8zM72.8 32a.5.5 0 0 1 .6.6h-1.5a1 1 0 0 1 .9-.6zM16.9 19.2h1.8v.71h-1.8zm.8-11.1h1.9v.97h-1.9zm-.5 10.6h.2v-.2c-.1.1-.1.2-.2.2zm-6.3-7L16 18a4.3 4.3 0 0 0 1.2-1.5l-4.9-6.1h-1.4zm7.2 5.6h.5v-.9h-.1a2.5 2.5 0 0 1-.4.9zm1.5 2.5v-.6h-.5v.7h.5v-.1zm-1.8-1.9v.8h1.8v-.9h-1.8zm1.3-1.5h.5v.97h-.5zm-9.1.9h.4l-.4-.9zM8.9 9.5h.7v.96h-.7zm0 1.4h.9v.96h-.9zm3.2 9h.6l-.6-.5zm2.7-1.2l-3.9-4.9v.5a9 9 0 0 0 .2 1.8 4.6 4.6 0 0 0 3.2 2.8zm1.7.7l-.7.5h.7zm-5.5-.7h.3l-.3-.3zM8.9 8.1h2.5v.97H8.9zm11.5 14.7h1.3v-.3l-.4-.5h-1.4l.5.8zM19 24.2h2.9l-.1-.8H19v.8zm.9-1.4l-.5-.8h-1.9v.8h2.4zM18.6 16h1v-1h-.9c0 .3-.1.7-.1 1zm1.8 9.5H22l-.1-.7h-1.5v.7zM19 26.8h3.1l-.1-.7h-3v.7z"/><path d="M17.6 24.8H20v.74h-2.4zm-4.8-4.5h-2l-.3 1.2h2.3v-1.2zm6.4-10.8h.4v.96h-.4zm-.5 2.7h.9v.96h-.9zm.4 1.4h.5v.96h-.5zm-.4-2.7h.9v.96h-.9zM8.8 22.8h2.5V22H9.4l-.6.8zm8.8-7.7a20.6 20.6 0 0 0 0-2.5l-1.8-2.2h-2zm-3.2-7h2.9v.97h-2.9zm-2.6 0h2.1v.97h-2.1zM6.2 28.6H8v-1.2H6.3l-.1 1.2zm14.4 0h1.6l-.1-1.2h-1.5v1.2zM9.7 26.1H6.5l-.1.7h3.3v-.7zM8 24.8H6.6l-.1.7H8v-.7zm2.4-4.5H8.5l-.9 1.2H10l.4-1.2zM8.9 22H7.2l-.4.5-.1.3h1.5l.7-.8zm.8 1.4h-3l-.1.8h3.1v-.8zm6.4 2.7h2.6v.73h-2.6zM8.9 7.6v.1h.9l-.9-1.3h.9l.6 1.3h1.1l-.3-1.3h1.1l.4 1.3h1.1V6.4h1.3L15 7.7h.6l.4-1.3h1.3l-.5 1.3h1.1l.7-1.3h1.3l-.5 1.3h.2v-.1L21 5.8H7.5l1.4 1.8zm8.3 17.2h-1.4c.2.2.2.5.3.7h1.1zm-1.1 2.6h4.2v1.28h-4.2zm-5.9-1.3h2.2v.73h-2.2zm-1.8 1.3h4v1.28h-4zm0-2.6h2.9v.74H8.4zm6-2.8H17v.85h-2.6zm1-1.7h-.5l-.6.2-.7-.2h-.3v1.2h2.1zM11.8 22H14v.85h-2.2zm-2.9-4.2h1.7v.97H8.9zm0-1.4h.6v.97h-.6z"/><path d="M14.2 0H0v16.6c-.1 16.1 14.2 19.1 14.2 19.1s14.2-3 14.2-19.1V0zM16 3.9V2h2.8v1.9h.3V2h2.7v3.5l-1.7 2.3v11.8l2.2 2.7.6 6.9H5.6l.6-6.9 2.1-2.7V7.8L6.6 5.5V2h2.8v1.9h.2V2h2.9v1.9h.3V2h2.9v1.9z"/><path d="M15.1 2.5h-1.8v1.9H12V2.5h-1.8v2H8.8v-2H7.2v2.8h14.1V2.5h-1.7v1.9h-1.3V2.5h-1.8v2h-1.4zM8.4 4.8h-.7V3.1h.7zm3.1 0h-.7V3.1h.7zm8.6-1.7h.7v1.7h-.7zm-3 0h.7v1.7h-.7zm-2.5 1.7h-.7V3.1h.7zm-5.7 7.4h.9v.96h-.9zm0 1.4h.7v.96h-.7zm0 2.4H10c-.1-.3-.1-.7-.2-1h-.9zm6.9 4.3v1.2h2.3l-.4-1.2h-1.9zm2.3 0l.5 1.2h2.3l-1-1.2h-1.8zm-9.2-.5v.1h.6v-.7h-.6v.6zm1-.6h1.8v.71H9.9z"/></g></g></svg>