<svg xmlns="http://www.w3.org/2000/svg" viewBox="0 0 107.1 22.8"><g data-name="Calque 2"><g data-name="Calque 1" fill="#fff"><path d="M107.1 15.8H13.4a29.7 29.7 0 0 1-.7 4.3c0 .3-.1.7-.1 1a2.3 2.3 0 0 1-2.1 1.6H1.3A1.3 1.3 0 0 1 0 21.2c.3-1.4.6-2.8.8-4.1a2 2 0 0 1 1-1.7 1.9 1.9 0 0 1 1-.3h103.6c.6 0 .6 0 .7.4zm-96.3 5.1c0-.2 0-.3-.1-.4l-.6-3.1c-.1-.3-.2-.4-.6-.4h-.8a.5.5 0 0 0-.4.2l-1.4 2.2-.8 1.3V20H3.8l.7-3h-.9c-.3 0-.5.1-.5.4a.9.9 0 0 1-.1.5l-.6 2.9h4.7l.3-.3a.7.7 0 0 1 .7-.4h1.3v.6zm61.1-7.8h-2l-.2-.3V9.6a20.1 20.1 0 0 1 .1-2.5 10.9 10.9 0 0 0-.1-1.8c-.7 2.6-1.5 5.1-2.2 7.7h-2l-.3-.2-2.1-7.3v7.6h-2.3V2h3.1c.2 0 .3 0 .4.2s.9 3.2 1.3 4.8.5 1.7.8 2.7a12.4 12.4 0 0 0 .4-1.6c.5-1.4.9-2.9 1.3-4.4s.3-1 .4-1.5l.2-.2h3.2zM45.5 5.8a6.6 6.6 0 0 0 .1 1.4 2.9 2.9 0 0 0 2.3 2 2.2 2.2 0 0 0 1.7-.5l.9-.9c0-.1.1-.3 0-.5a3.4 3.4 0 0 1-.1-2c0-.2.2-.5.1-.6a2.7 2.7 0 0 0-.8-.7 2.6 2.6 0 0 0-2.9.1l-.4.3.8-1.4L48.9.2l.3-.2h3.5c.1 0 .3.1.3.2l2 3.3.4.7-1.2-.6c-1.8-.4-3.7 1-3.4 2.8a.7.7 0 0 0 .1.5l.4.2a3.6 3.6 0 0 1 2.6 1.7l.2.3a2.6 2.6 0 0 0 1.8-1.2 3.6 3.6 0 0 0 .5-2.1L57 7l1.5 2.4a.6.6 0 0 1 0 .7l-1.7 2.7c-.1.2-.2.3-.4.3h-4.7c1.6-.7 2.4-1.9 2-3.5a2.9 2.9 0 0 0-2.6-2 3.6 3.6 0 0 1-2.2 2h-.4c-.3 0-.3.1-.3.3a2.8 2.8 0 0 0 1.5 2.9l.4.3h-4.7l-.4-.2-1.8-3v-.3l2-3.3zm-35.3-.7H8l-.6-.9a2.4 2.4 0 0 0-3.6-.4 4.4 4.4 0 0 0-1.4 2.8 4.5 4.5 0 0 0 .4 3 3.2 3.2 0 0 0 3.6 1.7 2.2 2.2 0 0 0 1.5-1.7h2.3a3.3 3.3 0 0 1-.5 1.5 4.3 4.3 0 0 1-3.2 2.1 5.8 5.8 0 0 1-3.2-.3A5.7 5.7 0 0 1 .5 10a6.9 6.9 0 0 1-.4-3.2 6.2 6.2 0 0 1 2-4.3 5.6 5.6 0 0 1 3.1-1.2 4.5 4.5 0 0 1 3 .7 4.7 4.7 0 0 1 1.7 2.2zm20.2 7.2l-.5.5c-.9.8-3.1.5-3.9-.3a5 5 0 0 1-1.4-2.8 5.3 5.3 0 0 1 .2-2.2 3.5 3.5 0 0 1 2.8-2.8 3 3 0 0 1 2.8.8V2.1h2.1a.3.3 0 0 1 .1.2v10.8h-1.9c-.3 0-.3-.1-.3-.4zm-3.7-3.1a3 3 0 0 0 .4 1.4 1.5 1.5 0 0 0 1.6 1 1.7 1.7 0 0 0 1.5-1.3 3.3 3.3 0 0 0-.1-2.9 1.6 1.6 0 0 0-2.8-.4 3 3 0 0 0-.6 2.2zm74.3 1.3h2.2a3.3 3.3 0 0 1-1.1 1.9 3.9 3.9 0 0 1-2.9.9 4.3 4.3 0 0 1-4-3.3 4.5 4.5 0 0 1 .6-3.6 4.4 4.4 0 0 1 3.1-1.8 4.3 4.3 0 0 1 4.3 3.4c0 .4.1.8.1 1.2s-.1.4-.4.4h-5.5a1.7 1.7 0 0 0 1.6 1.8 1.7 1.7 0 0 0 2-.9zm0-2.6a1.5 1.5 0 0 0-1.7-1.5 1.7 1.7 0 0 0-1.9 1.5zM18 9.6c.2 1.1.7 1.7 1.7 1.8s1.6-.1 1.9-.9h2.2a3.7 3.7 0 0 1-.7 1.4 3.8 3.8 0 0 1-3.3 1.3 4.3 4.3 0 0 1-4-3.5 4.2 4.2 0 0 1 1.2-4 4 4 0 0 1 2.8-1.2 4.2 4.2 0 0 1 3.9 3 12 12 0 0 1 .3 2zM18 8h3.6c.1-.8-.5-1.4-1.6-1.5A1.7 1.7 0 0 0 18 8zm60.6 5.1l-.2-.7a2.6 2.6 0 0 1-1.7.9 2.7 2.7 0 0 1-2.5-.9 2.8 2.8 0 0 1-.6-1.5 7.6 7.6 0 0 1-.1-1.5V4.9h2.2v4.7a3.4 3.4 0 0 0 .1 1 1.2 1.2 0 0 0 1.6.7c.8-.2 1.1-.6 1.1-1.7s0-2.6-.1-3.8.1-.1.1-.2-.1-.6 0-.7.5 0 .8 0h1c.3-.1.4.1.4.3s-.1 1.4-.1 2.1.1 1.7.1 2.5v3.1l-.2.2zM92 4.9h2.1v8.2H92v-.7a2.8 2.8 0 0 1-1.5.8 2.6 2.6 0 0 1-3.2-1.8 5.8 5.8 0 0 1-.3-2.3V5h1.9l.3.2v2c0 1.1 0 2.2.1 3.3a1 1 0 0 0 .9 1c.5 0 1.4-.2 1.6-.9a1.9 1.9 0 0 0 .1-.8c.1-1.7.1-3.3.1-4.9zm-50.4 6.6v1.6h-2.2a1.4 1.4 0 0 1-1.4-1.4 4.3 4.3 0 0 1-.2-1.2V6.4H37c-.2 0-.3 0-.3-.3a4.8 4.8 0 0 0 0-1.2h1.1V2.2h2.1c.2 0 .2.1.2.3v2.4h1.1c.2 0 .3 0 .3.2v1.3h-1.2c-.2 0-.2 0-.2.3v4c0 .5.2.7.7.7zm43.1-9.3v2.6h1.4v1.6h-1.4v4.1c0 .7.4 1 1.1 1h.1c.5 0 .5 0 .4.5v1.2h-2.5c-.7-.1-1.1-.5-1.2-1.5a22.6 22.6 0 0 1-.1-2.6V6.6l-.2-.2h-.7l-.2-.2a5.7 5.7 0 0 1 0-1.3h.8a.3.3 0 0 0 .3-.3V2.4a.3.3 0 0 1 .1-.2zm20.7-.3h.8c.1 0 .3.1.3.2s-.1 1.8-.1 2.7.1 1.3.1 2-.1 2.7-.1 4a13.4 13.4 0 0 0 .1 2c0 .2 0 .3-.3.3h-1.8l-.2-.3V3.1c0-.3.1-.6.1-.9s0-.3.2-.3zM11.2 13.1V4.9h2.1a2 2 0 0 0 .1.7 2.4 2.4 0 0 1 1.4-.9h.8c.1 0 .2.2.2.3v1.5l-1.1.2a1.7 1.7 0 0 0-1.3 1.9v4.2c0 .2 0 .3-.2.3zm24.9 0h-2c-.3 0-.2-.2-.2-.4V5.2c0-.3.1-.3.3-.3h1.6c.2 0 .3 0 .3.2v8z"/><path d="M16.9 18.5c.7-.5 1.2-.6 1.8-.1a1.2 1.2 0 0 1 .4.8 2.4 2.4 0 0 1-.5 2 1.6 1.6 0 0 1-2.4-.2c-.1.1-.1.4-.2.4h-.9v-.3c.3-1.5.7-2.9 1-4.4l.3-.2h.9zm.6.5a1 1 0 0 0-.9 1.3c.1.4.4.5.8.4a1.1 1.1 0 0 0 .4-1.4c-.1-.2-.3-.2-.3-.3zm62.6 2.1l-.4 1.7h-1.2l1-4.6h1.1v.3c.4-.1.7-.4 1-.4a1.2 1.2 0 0 1 1.4 1.5 2.7 2.7 0 0 1-.3 1.2 1.5 1.5 0 0 1-2.6.3zm1.6-1.4a.5.5 0 0 0-.4-.6c-.3-.1-.5 0-.7.3a1.1 1.1 0 0 0-.3.8c.1.4.3.5.7.5a1 1 0 0 0 .7-1zm-46.8-.9l.2-.6h1l-1 4.6h-1.2l.4-1.5c-.5.2-.9.5-1.4.3a1.3 1.3 0 0 1-.9-1.2 2 2 0 0 1 .6-1.9 1.4 1.4 0 0 1 2.3.3zm-1.7 1.3a.7.7 0 0 0 .3.6.6.6 0 0 0 .7-.2 1.6 1.6 0 0 0 .3-.9c.1-.2-.1-.4-.3-.5s-.4 0-.6.1a1 1 0 0 0-.4.9zm30.5-1.3v-.6h1.1l-1 4.6h-1.1l.3-1.4-1.1.2a1.1 1.1 0 0 1-1.1-.9 2.3 2.3 0 0 1 .5-2.1 1.5 1.5 0 0 1 2.4.2zm-.4.9c0-.4-.2-.7-.5-.7a1 1 0 0 0-.8 1c0 .5.2.7.5.7a1 1 0 0 0 .8-1zm3.6-1.5h1.2l-.3 1.6c-.1.3-.2.6.1.8a.9.9 0 0 0 1-.5c.1-.6.3-1.3.4-1.9h1.2a5 5 0 0 0-.2 1.2 11.8 11.8 0 0 0-.4 2c0 .1-.1.1-.2.1a3.3 3.3 0 0 1-1 0v-.2a.1.1 0 0 0-.1.1 1.5 1.5 0 0 1-1.3.3c-.5-.1-.8-.4-.8-.8a7.8 7.8 0 0 1 .2-1.6 3 3 0 0 1 .2-1.1zM41 21.6h-1v-.4l-1 .4c-1.1.2-1.4-.6-1.3-1.4a3.6 3.6 0 0 1 .2-1 3.6 3.6 0 0 1 .2-1h1.2a5.9 5.9 0 0 0-.2 1.3 1.3 1.3 0 0 0-.1.6.7.7 0 0 0 .1.5h.5c.5-.2.5-.7.6-1.1l.3-1.3h1.2zm-12.5 0c.1-.7.3-1.3.4-1.9s0-.5-.2-.5a.6.6 0 0 0-.6.1.7.7 0 0 0-.4.6 8.5 8.5 0 0 0-.4 1.7h-1.1v-.3a15.5 15.5 0 0 0 .5-2.3 1.3 1.3 0 0 0 .1-.6l.3-.2h.9v.5a1.8 1.8 0 0 1 1.3-.6.9.9 0 0 1 1 1 13.8 13.8 0 0 1-.3 2c0 .5-.2.5-.6.5h-.9zm59.3 0c-.3-.2-.9.3-1-.4a1.4 1.4 0 0 1-1.5.4 1.1 1.1 0 0 1-.6-1.5 1.6 1.6 0 0 1 1.3-.6h1.1c0-.6-.6-.7-1.7-.2a1.9 1.9 0 0 1 .1-.8h.1a3.1 3.1 0 0 1 1.9-.1 1.3 1.3 0 0 1 .7 1.3 13 13 0 0 0-.4 1.9zM87 20a3.5 3.5 0 0 0-1.1.3.2.2 0 0 0-.1.3l.3.2c.5 0 .7-.2.9-.8zm-65.4-.9a1.3 1.3 0 0 1 .1-.6c0-.1.1-.2.2-.3a3.5 3.5 0 0 1 2 .1 1.1 1.1 0 0 1 .5 1.3 11.6 11.6 0 0 1-.4 1.8l-.2.2c-.1 0-.3-.1-.4 0s-.4-.1-.3-.4a1.4 1.4 0 0 1-2 .1 1 1 0 0 1 .2-1.5 3 3 0 0 1 2-.4.5.5 0 0 0-.5-.5zm1.5.9l-.9.2c-.1 0-.2.3-.2.4s.3.3.4.2.7-.2.7-.8zm31.1 1.6v-.4c-.4.5-1 .4-1.5.4s-.6-.4-.7-.8a1.3 1.3 0 0 1 .6-1.1 2.2 2.2 0 0 1 1.6-.3h.3c0-.6-.6-.7-1.7-.2s.1-.6.1-.8l.2-.2a2.9 2.9 0 0 1 1.6 0 1 1 0 0 1 .9 1.3 12.9 12.9 0 0 1-.4 1.9.2.2 0 0 1-.2.2zm.1-1.6h-.9l-.3.5.4.2c.4.1.6-.1.8-.7zm44.7.3c.3.6.6.7 1.9.3v.8a3.7 3.7 0 0 1-1.8.2 1.6 1.6 0 0 1-1-2.3 1.9 1.9 0 0 1 2.8-.9 1.4 1.4 0 0 1 .6 1.3c0 .6 0 .6-.6.6H99zm1.4-.8a.6.6 0 0 0-.6-.6.9.9 0 0 0-.7.6zm-55.9.8a.5.5 0 0 0 .4.5h1.5c0 .2-.1.4-.1.7h-.1a4.5 4.5 0 0 1-2 0 1.4 1.4 0 0 1-.8-1.8 2 2 0 0 1 2.7-1.5 1.5 1.5 0 0 1 .8 1.6c-.1.4-.2.5-.6.5a10.8 10.8 0 0 0-1.8 0zm1.4-.8c-.1-.3-.1-.5-.4-.6a1 1 0 0 0-.9.6zm48.4 2.1l.9-4.6a.3.3 0 0 1 .3-.3 3.3 3.3 0 0 0 1 0c-.3 1.6-.7 3.1-1 4.6l-.3.3zm-3.7-3.4h1v.5a1.3 1.3 0 0 1 1.5-.5l-.3 1c-.9-.3-1.3.1-1.5 1a3 3 0 0 1-.2 1c0 .3-.1.4-.4.4h-.8zm14.1.5a1.2 1.2 0 0 1 1.5-.5l-.3 1c-.7-.3-1.2 0-1.4.9l-.3 1.3a.2.2 0 0 1-.2.2h-.8a.2.2 0 0 1-.2-.2 28.2 28.2 0 0 1 .7-3.1h1.1zM19.6 1.8h2.5a8.6 8.6 0 0 1-.7 1 3.6 3.6 0 0 1-.7 1h-1.8zM36 3.9h-1.8c-.2 0-.3 0-.3-.2a7.5 7.5 0 0 0 0-1.5c0-.2 0-.2.2-.2H36a10.8 10.8 0 0 1 0 1.9zm36.1 17.7l.3-1.6.3-1.6c0-.2.1-.3.3-.2h1c-.2 1.1-.5 2.2-.7 3.3h-1.2zM55 17.9c-.3-.1-.6 0-.9-.2l-1.1-.8c1.2-.2 1.6 0 2 1zm19.3-1.1a1.4 1.4 0 0 0-.2.6c0 .3-.1.3-.3.3h-.9a1.9 1.9 0 0 1 .2-.8h1.2zM9.2 19.4h-1L9 18z"/></g></g></svg>