<svg viewBox="0 0 511 231" xmlns="http://www.w3.org/2000/svg" xmlns:xlink="http://www.w3.org/1999/xlink"><defs><path id="a" d="M0 .975h87.29v185.603H0z"/></defs><g fill="none" fill-rule="evenodd"><g transform="translate(0 42)"><mask id="b" fill="#fff"><use xlink:href="#a"/></mask><path d="M52.16 51.776c-.318 2.965-.832 5.537-1.487 7.703-.657 2.16-1.512 3.966-2.552 5.408-1.037 1.448-2.266 2.551-3.693 3.31-1.425.758-3.105 1.256-5.071 1.49-.338.04-.68.082-1.02.124 1.358-11.37 2.36-22.563 2.612-33.76l2.525-.156c3.2-.192 5.61.988 7.177 3.477 1.565 2.494 2.137 6.61 1.51 12.404m-10.44 67c-1.19 7.12-2.614 12.471-4.363 15.779-1.755 3.323-4.087 5.237-7.126 5.745l-1.16.196c1.41-14.16 3.322-27.678 5.2-40.788a592.1 592.1 0 0 1 2.258-.373c6.1-.934 7.64 5.255 5.192 19.441M68.383 82.97c4.001-4.4 7.662-9.564 10.816-15.45A70.148 70.148 0 0 0 86.4 46.584c2.525-14.165-.498-25.145-6.955-33.28C73.003 5.2 64.368.92 54.586.977 37.388 1.069 19.238 1.426 0 2.109v184.47c14.297-.337 28.528-.615 42.71-.844 6.212-.027 10.654-6.206 14.427-17.965 3.767-11.59 6.773-26.95 10.494-43.951 2.293-10.615 3.86-18.768 3.973-25.066.132-6.288-.858-11.489-3.22-15.783" fill="#FB85ED" mask="url(#b)"/></g><path d="M123.947 33c.48-9.929-2.287-20.628-9.855-33H91c9.224 11.81 14.512 22.451 17.051 32.466 5.385.16 10.681.338 15.896.534m-1.85 110.532c5.931-15.063 13.265-28.28 19.105-40.972a652.67 652.67 0 0 0-16.58-.037c2.564-6.406 4.772-12.689 6.312-18.98 8.616.13 16.872.387 24.816.753 3.902-12.405 4.83-24.977-.237-39.1A1626.712 1626.712 0 0 0 97.715 43c17.486 56.257-33.378 98.608-25.973 185 16.657-.196 33.262-.329 49.843-.412-5.232-23.705-4.431-43.456-.614-60.633-6.819.247-13.758.615-20.854 1.12 1.886-8.446 4.348-16.337 7.074-23.816a536.79 536.79 0 0 1 14.906-.727" fill="#FB85ED"/><path d="M225.305 49.426c-8.37-.714-16.947-1.418-25.776-2.092 6.093 19.263.22 34.862-9 50.673l-.137-.012c5.185-16.165 6.218-32.327-5.027-51.699A1906.39 1906.39 0 0 0 165.401 45c20.243 56.177-58.599 86.189-34.919 180.786 8.923-.033 17.84-.055 26.756-.066-9.9-29.079-8.768-51.705-2.909-70.716l.13.002c-2.423 19.581.193 42.778 16.673 72.982 6.816 0 13.635.006 20.454.012-46.69-97.355 49.116-118.816 33.719-178.574M255.933 42c.547-11.852-2.236-25.577-9.445-42H223c11.216 15.826 17.472 29.275 20.11 41.086 4.31.31 8.584.615 12.823.914" fill="#FB85ED"/><path d="M210.63 167.411c.519-7.725 2.385-14.776 5.104-21.367 4.263.486 8.538.993 12.832 1.52 5.163-13.225 14.125-24.64 22.733-36.121-4.13-.627-8.267-1.252-12.433-1.865 4.197-5.676 8.258-11.341 11.681-17.223 6.153.873 12.214 1.748 18.236 2.61 7.36-12.047 12.405-25.123 10.974-41.106-14.344-1.188-29.021-2.52-44.336-3.859 13.645 59.897-81.799 80.276-33.82 174.772 16.685.048 33.387.13 50.13.228-15.9-22.56-21.697-40.567-21.55-55.89-6.575-.603-13.08-1.176-19.551-1.699" fill="#FB85ED"/><path d="M338 58.53a946.45 946.45 0 0 1-22.248-1.082c-2.396 22.015-14.395 38.488-27.258 53.756-.042-.007-.08-.01-.122-.017 9.42-15.739 18.093-32.531 16.003-54.473A1803.387 1803.387 0 0 1 281.865 55c10.84 64.218-82.798 83.921-6.96 170.814 8.641.06 17.297.123 25.969.186-65.846-82.623 26.414-98.972 37.126-167.47" fill="#FB85ED"/><path d="M343.626 127.041c-.29 1.365-.82 2.99-1.553 4.875-.732 1.876-1.66 3.921-2.732 6.122-2.158 4.408-4.173 8.019-6.31 10.848-2.091 2.707-3.844 4.014-5.498 3.882-1.635-.127-2.653-1.653-2.735-4.525-.056-2.864.976-6.536 3.34-11.013 2.332-4.421 5.013-7.97 7.703-10.68 2.737-2.765 4.884-4.136 6.392-4.045.782.044 1.28.47 1.5 1.277.222.803.182 1.893-.107 3.259m12.3 55.651c-1.007-12.934 1.573-25.722 6.623-39.518 5.1-13.848 11.338-26.749 15.204-39.6 4.048-12.877 5.232-24.347 3.423-33.43-1.778-9.102-6.029-14.207-10.978-14.143-5.06-.029-9.85 5.19-16.05 14.184-6.21 8.987-13.561 19.98-23.118 31.978-9.481 12.183-20.035 23.843-27.206 36.748-7.335 13.194-9.2 26.16-3.413 39.978 5.714 13.844 18.26 26.709 31.491 36.602 13.516 10.042 25.298 15.572 30.965 15.508 5.981.032 5.092-5.388 1.792-14.59-3.309-9.283-7.762-20.825-8.733-33.717" fill="#FB85ED"/><path d="M401.828 182.185C391.121 141.293 420.462 108.103 430.04 56c-8.507.786-16.8 1.392-24.926 1.84-12.905 70.285-73.775 100.197-4.744 168.878 17.415.114 34.95.21 52.63.282-11.703-15.879-18.241-30.42-21.292-44.375a1546.283 1546.283 0 0 1-29.88-.44" fill="#FB85ED"/><path d="M511 90.43V44c-18.864 3.87-36.489 6.882-53.186 9.172-10.262 68.153-41.43 112.47.411 175.734 17.434.065 35.018.099 52.775.094v-46.43c-12.109.521-23.773.906-35.029 1.166-.767-7.24-1.148-14.425-1.23-21.594a1498.54 1498.54 0 0 0 24.904-1.533c-.077-15.19.254-30.368.754-45.637a1134.4 1134.4 0 0 1-23.155 3.214c.784-7.31 1.695-14.688 2.64-22.171A1029.1 1029.1 0 0 0 511 90.43" fill="#FB85ED"/></g></svg>