<svg viewBox="0 0 562 246" xmlns="http://www.w3.org/2000/svg" xmlns:xlink="http://www.w3.org/1999/xlink"><defs><path id="a" d="M.15.205h139.734v98.619H.15z"/></defs><g fill="none" fill-rule="evenodd"><path d="M137.558 78.85c10.109-7.832 17.498-17.764 22.165-29.693 4.73-11.907 7.095-27.028 7.096-46.424-22.293.089-44.588.127-66.883.085 0 8.632-.795 16.078-2.381 22.42-1.59 6.34-3.858 11.565-6.806 15.724-2.948 4.158-6.546 7.202-10.79 9.145-4.246 1.943-9.024 2.807-14.34 2.593V2.688A6821.199 6821.199 0 0 1 0 2v112.998c21.873 11.776 43.747 19.41 65.62 23.875V93.85c21.386 3.925 32.89 21.356 34.51 49.579 23.624 1.51 47.247-.08 70.87-3.55-1.104-13.744-4.489-25.822-10.159-35.822-5.672-10.01-13.432-18.447-23.283-25.207M190 137c22-4.066 44-9.47 66-15.24V2c-22 .166-44 .322-66 .439V137zm215.744-95.817c-5.634-3.692-18.068-6.652-37.3-8.656-7.382-.818-12.84-1.665-16.367-2.564-3.528-.897-5.296-2.082-5.294-3.509 0-1.505.905-2.846 2.72-3.999 1.81-1.154 4.759-1.886 8.838-2.215 6.863-.55 13.438.033 19.72 1.63 6.279 1.605 11.98 4.057 17.095 7.47 5.44-9.097 10.879-17.12 16.319-24.064-3.887-.614-8.161-1.158-12.822-1.64a496.657 496.657 0 0 0-15.25-1.315 609.271 609.271 0 0 0-16.028-.954A338.98 338.98 0 0 0 352.028 1c-23.443-.048-41.12 2.39-53.036 8.817-11.916 6.33-17.872 16.526-17.873 29.17 0 7.53 2.819 13.443 8.451 17.44 5.699 3.963 16.186 6.362 31.472 7.223 6.215.396 10.797 1.02 13.745 1.88 2.949.86 4.419 2.28 4.42 4.277-.003 1.681-1.053 3.308-3.158 4.896-2.104 1.59-4.744 2.75-7.916 3.475-6.41 1.464-13.05 1.475-19.913-.09-6.93-1.548-12.661-4.455-17.192-8.796-5.343 13.553-10.685 27.577-16.028 41.652 10.685.275 21.564-.492 32.637-2.124 11.074-1.63 22.764-3.978 35.066-6.824 23.636-5.475 41.428-11.606 53.376-19.232 11.946-7.594 17.92-16.44 17.921-26.561.001-6.47-2.754-11.399-8.256-15.02" fill="#413A90"/><g transform="translate(422)"><mask id="b" fill="#fff"><use xlink:href="#a"/></mask><path d="M61.521 62.924c-2.117.767-4.77.954-7.958.605-6.445-.702-13.119-2.66-20.018-5.738-6.967-3.073-12.727-6.71-17.284-10.988C10.891 56.908 5.521 68.08.15 80.31c10.74 2.25 21.677 4.156 32.81 5.852 11.13 1.7 22.881 3.459 35.251 5.667 23.761 4.254 41.647 7.91 53.658 6.793 12.01-1.004 18.017-6.836 18.016-18.948 0-7.697-2.768-15.502-8.3-22.558-5.663-7.185-18.163-16.37-37.497-24.05-7.421-2.988-12.906-5.086-16.454-6.71-3.547-1.615-5.323-2.995-5.321-4.262-.001-1.334.91-2.353 2.733-3.084 1.823-.726 4.786-.93 8.886-.538 6.901.668 13.508 2.459 19.823 5.744 6.313 3.285 12.043 7.83 17.187 13.849 5.468-9.357 10.936-19.182 16.405-30.466-3.907-1.356-8.205-2.492-12.89-3.426-4.688-.935-9.798-1.693-15.33-2.302A279.223 279.223 0 0 0 93.011.587 301.05 301.05 0 0 0 77.585.205c-23.567.07-41.34 1.674-53.317 5.188C12.29 8.942 6.3 14.603 6.301 23.119c0 5.087 2.83 9.583 8.495 13.358 5.727 3.789 16.274 7.274 31.638 11.93 6.25 1.946 10.856 3.894 13.818 5.605 2.963 1.716 4.442 3.545 4.443 5.412.002 1.576-1.06 2.737-3.174 3.5" fill="#413A90" mask="url(#b)"/></g><path d="M137.558 208.066c10.109-4.936 17.498-11.5 22.165-19.62 4.73-8.097 7.095-18.547 7.096-31.94-22.293 3.066-44.588 4.391-66.883 2.947 0 5.746-.795 10.591-2.381 14.639-1.59 4.048-3.858 7.295-6.806 9.798-2.948 2.5-6.546 4.223-10.79 5.159-4.246.934-9.024 1.102-14.34.419v-34.563C43.747 150.435 21.874 142.79 0 131v113.129c21.873.354 43.747.583 65.62.717v-28.138c21.386 2.763 32.89 13.4 34.51 28.275 23.624.045 47.247-.003 70.87-.107-1.104-8.139-4.489-15.677-10.159-21.765-5.672-6.12-13.432-11.113-23.283-15.045M190 245c22-.122 44-.283 66-.456V138c-22 5.747-44 11.131-66 15.182V245zm178.444-89.102c-7.382-1.238-12.84-2.32-16.367-3.452-3.528-1.128-5.296-2.624-5.294-4.553 0-2.034.905-3.908 2.72-5.634 1.81-1.723 4.759-3.004 8.838-3.793 6.863-1.325 13.438-.936 19.72 1.284 6.279 2.224 11.98 6.028 17.095 11.54 5.44-14.45 10.879-28.26 16.319-41.205-3.887-.827-8.161-1.42-12.822-1.752-4.662-.33-9.747-.421-15.25-.243-5.504.179-10.846.595-16.028 1.215a163.99 163.99 0 0 0-15.347 2.587c-23.443 5.147-41.12 13.155-53.036 22.623-11.916 9.537-17.872 20.513-17.873 33.032 0 7.48 2.819 13.143 8.451 17.296 5.699 4.096 16.186 7.051 31.472 9.57 6.215 1.07 10.797 2.39 13.745 3.846 2.949 1.456 4.419 3.487 4.42 6.032-.003 2.142-1.053 4.047-3.158 5.678-2.104 1.635-4.744 2.593-7.916 2.91-6.41.645-13.05-.577-19.913-3.32-6.93-2.735-12.661-6.5-17.192-11.314-5.343 13.765-10.685 27.066-16.028 39.489 10.685 2.634 21.564 4.79 32.637 6.126 11.074 1.334 22.764 2.139 35.066 2.14 23.636.073 41.428-4.277 53.376-13.42 11.946-9.068 17.92-22.125 17.921-37.874.001-10.097-2.754-18.15-8.256-24.184-5.634-6.118-18.068-11.541-37.3-14.624m147 .966c-7.383-4.206-12.838-7.425-16.368-9.951-3.528-2.52-5.294-4.742-5.293-6.744 0-2.106.906-3.696 2.72-4.74 1.813-1.043 4.76-1.146 8.838-.204 6.865 1.587 13.437 4.99 19.72 10.06 6.279 5.07 11.979 11.428 17.095 18.82 5.44-10.575 10.879-20.117 16.319-29.158a144.018 144.018 0 0 0-12.822-9.25 161.31 161.31 0 0 0-15.25-8.641c-5.506-2.739-10.847-5.025-16.028-6.91a120.804 120.804 0 0 0-15.347-4.481c-23.443-5.061-41.121-2.467-53.036 4.029-11.916 6.647-17.873 17.273-17.873 31.878.001 8.75 2.816 16.31 8.451 22.645 5.697 6.288 16.188 12.273 31.472 18.739 6.217 2.687 10.798 5.248 13.745 7.541 2.947 2.3 4.418 4.85 4.42 7.663 0 2.367-1.055 4.268-3.158 5.724-2.105 1.458-4.744 2.116-7.916 1.962-6.411-.302-13.05-2.764-19.913-7.336-6.93-4.564-12.66-10.384-17.192-17.354-5.343 16.299-10.685 33.574-16.028 51.568 10.684 4.346 21.563 7.584 32.637 9.463 11.072 1.89 22.761 2.82 35.066 2.813 23.636-.016 41.428-4.499 53.376-10.87C555.024 227.607 561 219.832 561 207.945c0-7.644-2.754-14.994-8.257-22.355-5.633-7.387-18.067-17.841-37.299-28.727" fill="#413A90"/></g></svg>