<svg viewBox="0 0 495 218" xmlns="http://www.w3.org/2000/svg"><path d="M106.293 42.634l.66-.06c2.664-.235 4.608-.905 5.83-2.005 1.223-1.1 1.849-2.744 1.878-4.941.027-2.022-.514-3.596-1.625-4.732-1.112-1.134-2.752-1.642-4.921-1.51l-1.648.102-.174 13.146zm14.039-27.62c4.479-.133 8.451.65 11.919 2.297 3.468 1.622 6.063 3.875 7.786 6.77 1.722 2.838 2.563 5.97 2.52 9.424-.038 2.955-.685 5.665-1.942 8.156-1.255 2.492-3.066 4.674-5.428 6.564 3.39 3.687 6.067 7.974 8.03 12.877 1.962 4.904 3.224 10.38 3.783 16.467a829.073 829.073 0 0 0-28.998 4.075c-.46-8.691-1.602-14.832-3.42-18.437-1.818-3.63-4.597-5.26-8.332-4.808l-.165.02-.334 25.263A828.512 828.512 0 0 0 78 89l.858-72.535c13.815-.55 27.64-1.035 41.474-1.45zM197.12 0a1369.123 1369.123 0 0 0-15.932 10.563c-4.799.056-9.597.119-14.396.188C168.948 7.137 171.1 3.555 173.25 0h23.87zM206 13.91l-.092 14.758c-8.004.161-16.006.37-24.005.626l-.07 7.441c5.573-.223 11.147-.419 16.722-.584l-.108 14.84c-5.586.234-11.172.508-16.754.825l-.07 7.402c8.03-.519 16.064-.94 24.102-1.265l-.092 14.757A801.27 801.27 0 0 0 154 77c.246-20.756.492-41.512.74-62.27 17.079-.38 34.167-.653 51.26-.82zm37.713 44.633l1.146-.004c3-.006 5.168-.46 6.503-1.371 1.336-.913 2.002-2.463 2-4.66-.005-4.387-2.58-6.604-7.723-6.599l-1.919.005-.007 12.629m.013-22.427l.774-.001c1.494-.002 2.758-.105 3.79-.308 1.033-.204 1.875-.532 2.528-.992a3.838 3.838 0 0 0 1.404-1.775c.285-.727.427-1.6.426-2.62-.002-1.991-.621-3.434-1.856-4.33-1.235-.894-2.99-1.343-5.27-1.342l-1.79.002-.006 11.366m11.708-23.107c7.5.015 13.31 1.475 17.44 4.382 4.184 2.909 6.293 6.982 6.318 12.181.016 2.961-.67 5.451-2.06 7.467-1.39 2.017-3.387 3.69-5.993 5.028 3.215 1.646 5.658 3.561 7.329 5.727 1.67 2.166 2.515 4.841 2.532 8.01.026 5.079-1.847 8.987-5.629 11.734-3.808 2.777-8.901 4.065-15.267 3.96A800.967 800.967 0 0 0 216 72l.286-58.884c13.048-.098 26.098-.134 39.148-.107m94.193 2.054l.368 29.228c.046 3.725-.21 7.113-.767 10.146-.558 3.034-1.426 5.735-2.603 8.097-1.177 2.363-2.67 4.422-4.482 6.175-1.811 1.756-3.96 3.226-6.445 4.419-4.945 2.39-10.378 3.255-16.293 2.719-5.533-.503-10.825-2.24-15.866-5.171-5.013-2.929-8.83-6.686-11.45-11.328-2.566-4.613-3.872-11.022-3.924-19.276L288 14c9.152.09 18.302.21 27.451.36l.279 28.366c.024 2.42.27 4.114.743 5.088.498.922 1.358 1.42 2.58 1.491.734.043 1.324-.08 1.769-.37.445-.291.793-.771 1.044-1.446.25-.673.418-1.55.502-2.633.083-1.082.117-2.392.1-3.93l-.277-26.45c9.147.166 18.293.362 27.436.587m38.844-1.028c2.115.068 4.257.248 6.428.55 2.17.3 4.41.709 6.72 1.226 2.308.519 4.44 1.1 6.398 1.745a41.83 41.83 0 0 1 5.386 2.177 2846.888 2846.888 0 0 1-6.55 22.123c-2.18-3.51-4.595-6.248-7.244-8.24-2.65-1.994-5.413-3.064-8.285-3.257-1.707-.114-2.937.187-3.685.897-.75.71-1.117 1.628-1.102 2.758.014 1.071.766 2.153 2.256 3.259 1.49 1.106 3.79 2.438 6.894 4.026 8.09 4.05 13.324 8.059 15.718 11.748 2.338 3.62 3.535 7.949 3.593 12.892.09 7.711-2.332 13.174-7.269 16.245-4.937 3.09-12.342 3.55-22.244 1.806a115.763 115.763 0 0 1-14.722-3.562c-4.659-1.466-9.248-3.39-13.763-5.746a3012.126 3012.126 0 0 0 6.454-20.855c1.943 3.318 4.382 6.111 7.314 8.392 2.905 2.277 5.703 3.62 8.39 3.98 1.33.179 2.43-.03 3.303-.633.872-.603 1.301-1.453 1.287-2.548-.017-1.301-.65-2.512-1.897-3.621-1.246-1.108-3.18-2.36-5.8-3.728-6.441-3.304-10.88-6.457-13.309-9.615-2.402-3.184-3.63-6.891-3.686-11.18-.092-7.194 2.336-12.476 7.28-15.974 4.943-3.486 12.322-5.169 22.135-4.865M26.344 170.623c.236-.112.47-.224.707-.335 3.194-1.513 5.51-3.328 6.939-5.463 1.428-2.135 2.156-4.883 2.18-8.279.02-2.974-.643-4.976-1.989-6.025-1.346-1.045-3.415-1.014-6.2.143l-1.536.642-.101 19.317m3.751-51.967c6.446-2.086 12.202-2.157 17.243-.462 5.042 1.702 8.933 5.147 11.667 10.272 2.733 5.098 4.063 10.977 3.992 17.794-.071 6.952-1.575 13.9-4.497 21.09-2.867 7.1-6.893 13.46-12.054 19.194-5.135 5.684-10.943 10.377-17.413 13.986A515.907 515.907 0 0 0 0 218v-88.832a707.2 707.2 0 0 1 30.095-10.512M124 95l-.215 16.57a599.163 599.163 0 0 0-23.986 5.573l-.11 8.584a565.92 565.92 0 0 1 16.682-4.276l-.22 16.806a509.453 509.453 0 0 0-16.683 4.866l-.11 8.54a484.34 484.34 0 0 1 24-7.211l-.216 16.571C105.956 166.236 88.892 172.563 72 180l.82-73.79A693.23 693.23 0 0 1 124 95m64.484 15l.667-.07c2.69-.28 4.653-.911 5.882-1.911 1.228-.999 1.85-2.472 1.864-4.424.014-1.795-.544-3.18-1.673-4.152-1.13-.971-2.789-1.366-4.978-1.165l-1.662.155-.1 11.567m13.99-24.93c4.514-.286 8.526.306 12.04 1.732 3.511 1.402 6.151 3.441 7.917 6.088 1.766 2.597 2.644 5.484 2.634 8.658-.009 2.714-.637 5.194-1.883 7.45-1.246 2.26-3.056 4.213-5.43 5.887 3.464 3.425 6.215 7.453 8.25 12.057 2.036 4.605 3.369 9.747 3.998 15.421a426.924 426.924 0 0 0-29.394 2.207c-.531-7.772-1.734-13.27-3.6-16.48-1.869-3.236-4.693-4.667-8.474-4.22a23.52 23.52 0 0 1-.167.02l-.19 22.229A434.784 434.784 0 0 0 160 151l.71-62.038a708.47 708.47 0 0 1 41.765-3.892m86.149.198l.094 14.741a583.774 583.774 0 0 0-24.124-1.225l.02 7.184c5.606.181 11.21.448 16.812.802l.078 14.67a481.24 481.24 0 0 0-16.85-.913c.008 2.383.014 4.765.02 7.147a456.3 456.3 0 0 1 24.232 1.586L289 144a411.145 411.145 0 0 0-52-2.024l.092-57.903a682.026 682.026 0 0 1 51.532 1.195m38.355 51.598l1.141.206c2.991.548 5.144.478 6.464-.246 1.319-.722 1.965-2.26 1.938-4.616-.055-4.709-2.642-7.55-7.771-8.401l-1.914-.315.142 13.372zm-.253-23.745l.774.116c1.49.226 2.75.311 3.778.256 1.028-.057 1.863-.275 2.508-.663.645-.386 1.105-.946 1.38-1.68.276-.732.408-1.646.395-2.74-.024-2.134-.657-3.774-1.9-4.91-1.242-1.138-3-1.862-5.275-2.173-.595-.081-1.19-.161-1.787-.24l.127 12.034zm11.42-23.004c7.483 1.007 13.287 3.453 17.426 7.31 4.19 3.864 6.323 8.763 6.396 14.531.042 3.285-.616 5.915-1.978 7.878-1.36 1.963-3.326 3.425-5.901 4.392 3.209 2.422 5.651 5.027 7.327 7.77 1.676 2.744 2.537 5.898 2.582 9.42.072 5.649-1.747 9.56-5.464 11.716-3.745 2.188-8.775 2.405-15.1.895a416.353 416.353 0 0 0-43.98-8.03L299 86a677.303 677.303 0 0 1 39.146 4.117zm96.498 19.067l.351 35.461c.045 4.521-.21 8.548-.761 12.054-.551 3.506-1.41 6.518-2.57 9.024-1.161 2.506-2.633 4.545-4.418 6.119-1.786 1.576-3.903 2.703-6.356 3.398-4.879 1.404-10.247.833-16.113-1.472-5.488-2.154-10.755-5.646-15.794-10.358-5.012-4.705-8.853-9.96-11.51-15.88-2.602-5.88-3.965-13.445-4.087-22.844L373 95a695.471 695.471 0 0 1 27.549 5.612l.418 33.315c.035 2.841.29 4.887.764 6.146.501 1.204 1.36 2 2.578 2.394.73.237 1.316.24 1.758.01.441-.23.785-.71 1.032-1.441.247-.73.41-1.725.489-2.98.079-1.256.107-2.792.085-4.612l-.382-31.28a700.06 700.06 0 0 1 27.353 7.02M495 128.647v39.228a629.983 629.983 0 0 0-13.843-6.331l.138 47.456a533.056 533.056 0 0 0-27.554-14.894l-.342-44.06a611.449 611.449 0 0 0-14.071-5.235L439 111a759.849 759.849 0 0 1 56 17.647" fill="#413A8F" fill-rule="evenodd"/></svg>