<?xml version="1.0" encoding="utf-8"?>
<!-- Generator: Adobe Illustrator 22.0.0, SVG Export Plug-In . SVG Version: 6.00 Build 0)  -->
<svg version="1.1" id="Calque_1" xmlns="http://www.w3.org/2000/svg" xmlns:xlink="http://www.w3.org/1999/xlink" x="0px" y="0px"
	 viewBox="0 0 129.4 119.8" style="enable-background:new 0 0 129.4 119.8;" xml:space="preserve">
<style type="text/css">
	.st0{fill:#87382E;}
</style>
<g>
	<g>
		<path class="st0" d="M100.7,108.5c0,5.3-3.7,9.9-8.9,11c-1.5,0.3-3.1,0.3-4.6,0c-5.2-1.1-8.9-5.7-8.9-11V92.8h8.9v15.7
			c0,1.3,1,2.3,2.3,2.3c1.3,0,2.3-1,2.3-2.3V92.8h8.9L100.7,108.5z"/>
		<polygon class="st0" points="129.4,89.6 113.2,89.6 113.2,119.7 105.3,119.7 105.3,89.6 78,89.6 78,82 129.4,82 		"/>
		<path class="st0" d="M15.1,82L0,119.7h7.9l2.8-7.6h16.9l2.8,7.6h8L23.5,82H15.1z M13.6,105.3l3.2-8.3c1.3-3.3,2.6-6.6,2.7-6.7h0.1
			c0.1,0.1,1.4,3.4,2.7,6.7l3.1,8.3H13.6z"/>
		<path class="st0" d="M74.9,100.8c0-10.5-8.6-19-19.1-18.9s-19,8.6-18.9,19.1c0,10.5,8.6,19,19.1,18.9
			C66.5,119.8,74.9,111.3,74.9,100.8C74.9,100.8,74.9,100.8,74.9,100.8z M56.2,112.3c-6.3,0-11.4-5.1-11.4-11.4s5.1-11.4,11.4-11.4
			c0,0,0,0,0.1,0c6.3,0,11.4,5.1,11.4,11.4c0,0,0,0,0,0.1C67.7,107.2,62.6,112.3,56.2,112.3z"/>
	</g>
	<g>
		<path class="st0" d="M62.2,73.1H0V58.8c0-13.8,30.6-20.5,38.4-26c4.1-2.8,4.9-4.8,4.9-7.9c-0.2-5.8-5.9-10.3-12.8-10.2
			c0,0,0,0,0,0c-7.1,0-11.8,4.9-13.3,10.5L0,21.3C3.2,8.3,15.4,0,30.4,0s31.1,3.1,31.1,24.9c0.1,5.7-2.5,11.2-7.3,15.3
			c-5.7,4.8-12.8,7.8-20.1,10.6s-12.8,5.1-12.8,8.1h40.9L62.2,73.1z"/>
		<path class="st0" d="M97.3,73.1C79.5,73.1,65,61,65,46.1l0,0h15.7c0.1,7.6,7.5,13.8,16.7,13.8s16.5-6.3,16.4-13.9
			c0-5.5-4-10.5-10.1-12.7l-9.8-3.4l5.6-10.7l2.7-5.5H69.4V0.3h55.4l-6.3,12.3l-5.1,10c15.4,7.7,20.5,24.3,11.3,37.2
			C119.1,67.9,108.6,73,97.3,73.1L97.3,73.1z"/>
	</g>
</g>
</svg>
