<?xml version="1.0" encoding="utf-8"?>
<!-- Generator: Adobe Illustrator 22.0.0, SVG Export Plug-In . SVG Version: 6.00 Build 0)  -->
<svg version="1.1" id="Calque_1" xmlns="http://www.w3.org/2000/svg" xmlns:xlink="http://www.w3.org/1999/xlink" x="0px" y="0px"
	 viewBox="0 0 129.4 117.6" style="enable-background:new 0 0 129.4 117.6;" xml:space="preserve">
<style type="text/css">
	.st0{fill:#F5A568;}
</style>
<g>
	<path class="st0" d="M62.9,70.8H0V57c0-13.4,30.9-19.9,38.8-25.2c4.1-2.7,5-4.7,5-7.7c-0.2-5.6-6-10-13-9.9c0,0,0,0,0,0
		c-7.2,0-12,4.8-13.5,10.1L0,20.7C3.2,8.1,15.6,0,30.8,0s31.5,3,31.5,24.1c0.2,5.5-2.5,10.9-7.4,14.8c-5.8,4.7-13,7.5-20.3,10.3
		s-13,4.9-13,7.8h41.4L62.9,70.8z"/>
	<polygon class="st0" points="129.4,57.8 117.1,57.8 117.1,70.9 102.9,70.9 102.9,57.8 77.6,57.8 68.9,53.3 63.8,50.7 103.8,0.5 
		118.5,7.9 89.1,44.6 102.9,44.6 102.9,34.8 117.1,34.8 117.1,44.6 129.4,44.6 	"/>
	<path class="st0" d="M100.7,106.3c0,5.3-3.7,9.9-8.9,11c-1.5,0.3-3.1,0.3-4.6,0c-5.2-1.1-8.9-5.7-8.9-11V90.6h8.9v15.7
		c0,1.3,1,2.3,2.3,2.3c1.3,0,2.3-1,2.3-2.3V90.6h8.9L100.7,106.3z"/>
	<polygon class="st0" points="129.4,87.3 113.2,87.3 113.2,117.4 105.3,117.4 105.3,87.3 78,87.3 78,79.7 129.4,79.7 	"/>
	<path class="st0" d="M15.1,79.7L0,117.4h7.9l2.8-7.6h16.9l2.8,7.6h8L23.5,79.7H15.1z M13.6,103.1l3.2-8.3c1.3-3.3,2.6-6.6,2.7-6.7
		h0.1c0.1,0.1,1.4,3.4,2.7,6.7l3.1,8.3H13.6z"/>
	<path class="st0" d="M74.9,98.5c0-10.5-8.6-19-19.1-18.9s-19,8.6-18.9,19.1c0,10.5,8.6,19,19.1,18.9C66.5,117.5,74.9,109,74.9,98.5
		C74.9,98.5,74.9,98.5,74.9,98.5z M56.2,110c-6.3,0-11.4-5.1-11.4-11.4s5.1-11.4,11.4-11.4c0,0,0,0,0.1,0c6.3,0,11.4,5.1,11.4,11.4
		c0,0,0,0,0,0.1C67.7,104.9,62.6,110,56.2,110z"/>
</g>
</svg>
