<svg viewBox="0 0 507 254" xmlns="http://www.w3.org/2000/svg"><g fill="#2FA666" fill-rule="evenodd"><path d="M56.648 76.869c2.208-.22 4.416-.437 6.624-.649-4.9-7.748-10.742-15.447-17.573-23.095l-.114.017c4.496 7.957 8.2 15.867 11.063 23.727M31.51 17C68.64 48.773 89.357 81.385 97 114.742c-5.583.12-11.165.247-16.748.38a120.41 120.41 0 0 0-5.278-16.34c-4.176.23-8.353.47-12.53.717a100.942 100.942 0 0 1 1.135 16.04c-5.591.147-11.181.301-16.773.461C46.848 85.716 30.132 54.45 0 22.3A1434.764 1434.764 0 0 1 31.51 17"/><path d="M68.848 12.919C81.39 23.735 92.084 34.712 101.18 45.837l.115-.01c-5.718-11.45-12.641-22.901-20.769-34.352A1441.55 1441.55 0 0 1 102.706 9C123.98 44.269 135.745 79.537 138 114.805c-4.244.06-8.488.127-12.732.195a179.08 179.08 0 0 0-13.773-31.683l-.103.006c2.91 10.337 4.794 20.673 5.655 31.01-5.598.102-11.195.212-16.793.328C97.055 81.452 81.304 48.241 53 15.032c5.283-.734 10.565-1.438 15.848-2.113"/><path d="M132.82 3C149.1 39.59 158.16 76.182 160 112.773c-5.515.07-11.03.145-16.546.227C141.257 77.004 130.439 41.008 111 5.012c7.273-.73 14.547-1.4 21.82-2.012m31.502.777a296.526 296.526 0 0 1 14.999 22.316c.95-7.736 1.917-15.494 2.976-23.268 7.096-.33 14.193-.604 21.29-.825 6.237 36.88 9.708 73.759 10.413 110.637-5.554.026-11.107.058-16.661.098a487.498 487.498 0 0 0-4.74-55.011c-1.291 7.153-2.608 14.288-4.012 21.401a317.23 317.23 0 0 0-9.82-20.91c3.3 18.206 5.283 36.413 5.952 54.619-5.553.05-11.107.104-16.66.166C166.361 77.07 158.008 41.139 143 5.209c7.107-.532 14.215-1.01 21.322-1.432m75.079 63.441c2.2-.011 4.4-.016 6.599-.017-1.116-9.201-2.306-18.4-3.616-27.598h-.114a2543.027 2543.027 0 0 0-2.869 27.615M257.225.034c4.366 37.676 6.849 75.353 10.775 112.934-5.561-.018-11.122-.027-16.683-.03-.712-6.365-1.422-12.73-2.147-19.095a3246.7 3246.7 0 0 0-12.483.02 3991.724 3991.724 0 0 1-1.98 19.086c-5.568.01-11.138.028-16.707.051 3.728-37.5 5.23-75.14 7.837-112.828C236.3.007 246.762-.04 257.225.034M317 1.512c-4.42 16.47-7.973 32.943-10.656 49.413-3.121-.112-6.243-.216-9.363-.311A568.885 568.885 0 0 0 291.94 113c-5.566-.036-11.132-.064-16.698-.085a923.652 923.652 0 0 1 3.12-62.758c-3.12-.06-6.242-.109-9.363-.149A1349.93 1349.93 0 0 1 272.826 0C287.55.266 302.276.77 317 1.512m29 2.851C331.65 40.576 323.663 76.787 322.041 113c-5.68-.058-11.36-.11-17.041-.154C306.254 76.231 312.43 39.614 323.526 3c7.491.396 14.983.85 22.474 1.363m7.653 50.437c-.988 3.36-1.328 6.098-1.104 8.192.243 2.098.941 3.174 2.07 3.237 1.133.063 2.344-.903 3.697-2.898 1.38-2.087 2.569-4.75 3.607-7.994.518-1.622.911-3.124 1.163-4.507.253-1.383.37-2.575.341-3.577-.03-1-.208-1.8-.543-2.398-.335-.596-.813-.918-1.434-.964-1.205-.085-2.588.889-4.087 2.932-1.484 2.002-2.734 4.658-3.71 7.977m26.04-51.742c4.737.445 7.697 3.344 8.794 8.61 1.12 5.268.346 12.114-1.73 20.525-2.026 8.37-5.117 17.408-8.643 27.194-3.512 9.742-6.89 18.685-10.35 26.915-3.439 8.23-6.589 14.755-10.045 19.57-3.45 4.769-6.8 7.17-10.347 7.127-3.53-.042-6.694-2.525-9.322-7.514-2.589-4.935-4.337-11.76-4.887-20.468-.532-8.66.214-18.103 2.577-28.292 2.314-9.95 5.88-19.183 10.778-27.655 4.867-8.376 10.511-14.933 16.628-19.641 6.12-4.711 11.828-6.817 16.547-6.37m46.53 7.858c-4.815 11.717-8.904 23.304-12.02 34.748l.114.012c6.486-11.077 14.339-22.155 23.558-33.233 7.374.997 14.75 2.052 22.125 3.164-31.03 32.465-48.19 64.928-51.48 97.392-4.233-.09-8.467-.175-12.7-.257-1.743-10.302-2.318-20.738-1.923-31.298l-.104-.006c-3.108 10.121-5.121 20.241-6.04 30.363-5.585-.11-11.169-.212-16.753-.309C373.668 77.33 386.806 43.164 410.414 9c5.27.61 10.54 1.249 15.809 1.917"/><path d="M494.436 19.489c1.708.306 3.261.768 4.652 1.39a19.094 19.094 0 0 1 3.846 2.287c1.171.904 2.096 1.854 2.78 2.86A7.811 7.811 0 0 1 507 29.255c-13.277 9.151-24.632 18.406-34.171 27.759 2.022-4.44 3.314-8.001 3.57-10.653.266-2.653-.626-4.168-2.739-4.497-1.25-.198-2.636.18-4.117 1.142-1.481.958-2.89 2.22-4.204 3.778-1.244 1.472-1.875 2.97-1.92 4.465-.046 1.499.327 3.277 1.11 5.318 2.136 5.196 2.38 9.97 1.038 14.44-1.324 4.386-3.847 9.621-6.909 15.765-4.747 9.565-8.32 16.778-12.5 21.807-4.136 5.021-8.836 7.55-14.875 7.417-3.13-.072-6.049-.672-8.742-1.83-2.69-1.162-5.237-3.106-7.541-5.883 3.11-10.804 7.825-21.523 14.262-32.154-.92 4.759-.856 8.607-.073 11.549.774 2.942 2.062 4.449 3.736 4.567.832.057 1.693-.398 2.617-1.37.923-.968 1.684-2.208 2.305-3.736.74-1.808 1.042-3.419.862-4.83-.181-1.409-.737-2.962-1.674-4.661-2.342-4.093-3.16-8.456-2.264-13.026.944-4.606 3.418-10.164 7.958-16.613 7.636-10.823 16.651-18.71 25.703-23.493 9.065-4.79 18.082-6.44 26.004-5.026M93.802 137.383c-1.205 12.107-4.15 24.214-8.836 36.321 2.996.238 5.992.471 8.988.697 4.426-12.28 7.208-24.56 8.346-36.839 5.567.114 11.133.221 16.7.322-2.748 34.373-16.334 68.745-40.76 103.116a1416.42 1416.42 0 0 1-22.017-2.87c10.26-12.456 18.827-24.911 25.704-37.367-3.232-.347-6.463-.703-9.695-1.07-7.28 12.28-16.352 24.561-27.214 36.842a1444.258 1444.258 0 0 1-22.018-3.4c32.42-32.046 50.455-64.09 54.102-96.135 5.567.135 11.133.262 16.7.383m37.922 51.354c-1.023 3.337-1.538 6.053-1.448 8.149.103 2.1.736 3.198 1.916 3.282 1.178.086 2.53-.868 3.998-2.864 1.495-2.09 2.722-4.775 3.646-8.047.46-1.633.767-3.146.927-4.538.159-1.386.182-2.583.078-3.584-.106-.998-.341-1.793-.701-2.378-.36-.584-.829-.892-1.4-.925-1.113-.061-2.291.933-3.594 2.978-1.293 1.997-2.415 4.64-3.422 7.927m13.112-51.736c3.534.044 6.692 2.55 9.288 7.594 2.585 5.038 4.285 11.848 4.747 20.425.477 8.53-.348 17.917-2.842 28.114-2.49 10.145-6.267 19.486-11.371 27.951-5.088 8.47-10.9 15.037-17.086 19.682-6.19 4.597-11.912 6.637-16.594 6.167-4.702-.468-7.587-3.366-8.58-8.603-1.005-5.187-.051-12.07 2.227-20.618 2.264-8.51 5.532-17.608 9.184-27.38 3.57-9.55 7.01-18.39 10.501-26.609 3.47-8.128 6.656-14.614 10.147-19.472 3.474-4.852 6.825-7.298 10.38-7.251m40.346 4.159c1.992 7.597 3.785 15.224 5.456 22.879 2.991-7.56 5.697-15.153 8.194-22.772 5.389.036 10.778.067 16.167.092-.697 36.88-4.144 73.76-10.34 110.641-7.333-.225-14.666-.51-21.999-.852 4.696-18.338 8.35-36.677 10.959-55.014a316.59 316.59 0 0 1-10.86 20.942c-.969-7.164-1.944-14.308-2.985-21.43-3.28 18.209-7.872 36.417-13.776 54.625-7.333-.43-14.666-.917-21.999-1.463 14.976-35.937 23.307-71.872 24.99-107.808 5.398.06 10.796.113 16.193.16m68.899-.118c.033 9.449.097 18.897.194 28.345-5.121.012-10.243.01-15.364-.008-.07 4.661-.151 9.323-.245 13.984 3.66.016 7.32.024 10.979.022.032 9.45.071 18.9.12 28.348-3.936.005-7.871-.005-11.807-.03-.139 4.637-.29 9.274-.452 13.91 5.908.041 11.816.048 17.724.02.224 9.448.48 18.897.769 28.344-14 .08-28-.05-42-.386 4.93-37.53 7.672-75.061 8.226-112.591 10.619.037 21.237.052 31.856.042m22.021.139c2.382 7.8 4.897 15.584 7.617 23.346 1.915-7.822 3.876-15.629 5.959-23.413 5.36-.032 10.719-.069 16.079-.114 1.23 36.993 7.31 73.986 18.242 110.98-7.293.407-14.586.753-21.879 1.043a629.981 629.981 0 0 1-9.072-56.026c-1.46 7.272-2.921 14.558-4.442 21.853a390.819 390.819 0 0 1-9.327-21.545 901.054 901.054 0 0 0 6.27 56.273c-7.293.2-14.586.34-21.879.422A2174.8 2174.8 0 0 1 260 141.227c5.368-.008 10.735-.024 16.103-.046m65.292 62.175c2.317-.137 4.634-.278 6.951-.425a262.79 262.79 0 0 1-9.797-26.074l-.104.005c.625 8.809 1.624 17.64 2.95 26.494m4.35-64.356c6.446 35.385 21.425 70.292 48.255 104.626-7.31.771-14.622 1.486-21.933 2.141a290.38 290.38 0 0 1-11.07-17.828c-5.007.4-10.015.774-15.022 1.12a501.804 501.804 0 0 0 4.257 18.493A1395.63 1395.63 0 0 1 328.266 249c-5.834-36.862-9.025-73.464-6.253-109.712 7.91-.083 15.822-.18 23.733-.288m51.543 62.648c.167-.014.334-.031.502-.047 2.271-.217 3.437-1.315 3.518-3.283.09-1.962-.906-5.074-2.74-9.33-1.6-3.731-3.152-6.559-4.787-8.494-1.633-1.934-3.331-2.834-5.174-2.71l-1.016.07c2.627 7.933 5.86 15.863 9.697 23.794m-15.566-62.646c4.002-.075 7.69 1.971 11.396 6.049 3.725 4.075 7.183 9.996 11.213 17.742 4.025 7.705 8.144 15.974 12.594 24.907 4.532 9.103 8.763 17.622 11.989 25.658 3.22 7.941 4.754 14.241 3.81 18.871-.929 4.577-4.102 7.264-9.466 7.937a1397.055 1397.055 0 0 1-24.2 2.834C377.45 208.442 365.431 173.884 363 139.327c6.241-.1 12.482-.209 18.723-.325m56.67-2.002c1.026 7.707 3.066 15.415 6.122 23.124-5.046.39-10.093.766-15.14 1.127a128.466 128.466 0 0 0 4.86 11.78c3.606-.332 7.213-.676 10.82-1.028 3.962 7.786 8.916 15.572 14.862 23.358-3.88.528-7.757 1.043-11.636 1.543a201.81 201.81 0 0 0 8.952 11.718 1505.11 1505.11 0 0 0 17.467-2.613c7.085 7.708 15.185 15.415 24.3 23.123A1442.41 1442.41 0 0 1 457.61 236c-30.328-32.742-47.198-65.485-50.61-98.227 10.465-.235 20.93-.492 31.393-.773"/></g></svg>