<svg viewBox="0 0 779 375" xmlns="http://www.w3.org/2000/svg"><path d="M50.261 361.836h13.967l-6.87-7.355h-.225l-6.872 7.355zm33.855-17.905l29.606 30.092H76.015l-4.915-5.087H43.392l-4.916 5.087H.712L30.32 343.93h53.796zm64.5 14.217c0 .947.799 1.71 2.402 2.287 1.638.58 3.648.868 6.032.868 2.383 0 4.393-.289 6.033-.868 1.638-.604 2.459-1.366 2.459-2.287 0-.46-.216-.884-.643-1.27-.429-.39-1.014-.722-1.759-.998-.746-.276-1.65-.493-2.71-.65a23.363 23.363 0 0 0-3.436-.237c-2.383 0-4.376.296-5.976.887-1.603.58-2.402 1.334-2.402 2.268m8.434-14.69c8.044 0 15.437.696 22.179 2.09 6.738 1.393 12.008 3.273 15.808 5.64 3.834 2.353 5.753 4.941 5.753 7.77 0 2.812-1.919 5.415-5.753 7.807-3.8 2.393-9.07 4.286-15.808 5.68-6.779 1.38-14.173 2.07-22.179 2.07-8.009 0-15.382-.69-22.122-2.07-6.666-1.368-11.935-3.255-15.808-5.66-3.836-2.393-5.755-5.002-5.755-7.828 0-2.76 1.881-5.338 5.642-7.73 3.763-2.367 9.03-4.253 15.81-5.66 6.778-1.406 14.189-2.109 22.233-2.109m108.262-6.646l13.407 5.284h-17.317l-10.055-2.386-8.66 2.386h-16.254l13.293-5.284h25.586zm29.662 7.118v13.922c0 1.775-.408 3.398-1.226 4.871-.82 1.472-2.06 2.803-3.717 3.993-1.658 1.19-3.743 2.255-6.257 3.195s-5.484 1.764-8.91 2.474c-6.814 1.42-14.264 2.13-22.346 2.13-7.559 0-14.767-.658-21.617-1.972-6.816-1.315-11.993-3.128-15.53-5.442-3.464-2.3-5.195-5.568-5.195-9.8v-13.37h37.764v14.177c0 1.21.313 2.052.95 2.525.668.447 1.84.67 3.518.67 1.004 0 1.816-.079 2.43-.237.614-.157 1.098-.407 1.452-.749.354-.342.596-.782.727-1.32.128-.54.193-1.19.193-1.954V343.93h37.764zm83.069 0v13.331H359.05v16.761h-37.764v-16.76h-18.993V343.93zM152.616 77.158c0 2.884-.663 5.715-1.987 8.498-1.323 2.778-3.31 5.544-5.955 8.289-2.647 2.748-5.978 5.52-9.99 8.317-4.016 2.798-8.709 5.657-14.09 8.574h37.144v14.007H.712c25.53-12.771 42.48-21.852 50.847-27.241 8.371-5.424 12.556-9.836 12.556-13.235 0-2.3-1.881-4.205-5.637-5.715-3.758-1.546-8.326-2.318-13.705-2.318a61.003 61.003 0 0 0-20.618 3.554c-3.335 1.166-6.854 2.625-10.57 4.376-3.713 1.75-7.667 3.81-11.848 6.18l1.538-35.635c2.218-.651 4.76-1.338 7.621-2.06a567.825 567.825 0 0 1 9.797-2.368c7.429-1.716 15.115-3.037 23.054-3.966 8.025-.926 17.077-1.39 27.153-1.39 15.284 0 29.286 1.288 42.011 3.862 12.808 2.609 22.585 6.317 29.329 11.123 6.92 4.84 10.376 10.556 10.376 17.148m0 135.617c0 6.751-.663 13.38-1.987 19.894-1.323 6.506-3.31 12.98-5.955 19.409-2.647 6.431-5.978 12.92-9.99 19.47-4.016 6.551-8.709 13.244-14.09 20.073h37.144v32.793H.712c25.53-29.9 42.48-51.159 50.847-63.775 8.371-12.702 12.556-23.029 12.556-30.986 0-5.383-1.881-9.845-5.637-13.38-3.758-3.621-8.326-5.428-13.705-5.428-7.09 0-13.959 2.772-20.618 8.322-3.335 2.729-6.854 6.146-10.57 10.245-3.713 4.099-7.667 8.922-11.848 14.467l1.538-83.427c2.218-1.525 4.76-3.135 7.621-4.823a347.047 347.047 0 0 1 9.797-5.545c7.429-4.018 15.115-7.112 23.054-9.286 8.025-2.166 17.077-3.252 27.153-3.252 15.284 0 29.286 3.015 42.011 9.04 12.808 6.109 22.585 14.79 29.329 26.041 6.92 11.336 10.376 24.716 10.376 40.148m110.557-36.773l-41.245 44.73h41.245v-44.73zm86.965-35.563v80.293H381.9v41.955h-31.762v61.727h-86.965v-61.727h-78.001v-39.302l78.001-82.946h86.965zM263.173 61.45l-41.245 19.106h41.245V61.45zm86.965-15.19v34.296H381.9v17.92h-31.762v26.367h-86.965V98.477h-78.001V81.689l78.001-35.428h86.965zM152.616 13.9c0 1.229-.663 2.434-1.987 3.618-1.323 1.184-3.31 2.361-5.955 3.529-2.647 1.17-5.978 2.35-9.99 3.541-4.016 1.192-8.709 2.409-14.09 3.651h37.144v5.963H.712c25.53-5.438 42.48-9.303 50.847-11.598 8.371-2.309 12.556-4.187 12.556-5.635 0-.978-1.881-1.79-5.637-2.432-3.758-.658-8.326-.988-13.705-.988-7.09 0-13.959.504-20.618 1.514a213.296 213.296 0 0 0-10.57 1.863 314.164 314.164 0 0 0-11.848 2.631L3.275 4.385c2.218-.277 4.76-.57 7.621-.877 2.858-.306 6.124-.642 9.797-1.008A479.498 479.498 0 0 1 43.747.811C51.772.418 60.824.22 70.9.22c15.284 0 29.286.548 42.011 1.644 12.808 1.111 22.585 2.689 29.329 4.735 6.92 2.062 10.376 4.495 10.376 7.301m110.557-6.687l-41.245 8.134h41.245V7.215zM350.138.745v14.603H381.9v7.63h-31.762v11.224h-86.965V22.978h-78.001v-7.149L263.173.745h86.965zm99.725 25.428h13.857l-6.817-7.166h-.222l-6.818 7.166zM483.45 8.727l29.372 29.32h-37.409l-4.876-4.956h-27.488l-4.878 4.957h-37.465l29.374-29.32h53.37zm63.99 13.853c0 .923.792 1.665 2.382 2.229 1.625.564 3.62.845 5.985.845 2.364 0 4.358-.281 5.985-.845 1.625-.589 2.44-1.331 2.44-2.229 0-.448-.214-.861-.638-1.238-.426-.38-1.006-.703-1.745-.972-.74-.269-1.637-.48-2.69-.633a23.593 23.593 0 0 0-3.408-.23c-2.364 0-4.342.288-5.929.863-1.59.565-2.382 1.3-2.382 2.21m8.367-14.313c7.98 0 15.315.678 22.003 2.035 6.685 1.359 11.914 3.19 15.683 5.496 3.804 2.293 5.708 4.815 5.708 7.57 0 2.741-1.904 5.278-5.708 7.608-3.77 2.332-8.998 4.176-15.683 5.534-6.725 1.345-14.06 2.018-22.003 2.018-7.945 0-15.26-.673-21.947-2.018-6.613-1.332-11.841-3.17-15.683-5.514-3.805-2.332-5.709-4.874-5.709-7.628 0-2.69 1.866-5.2 5.597-7.532 3.733-2.306 8.96-4.143 15.685-5.514 6.724-1.37 14.076-2.055 22.057-2.055m107.405-6.476l13.3 5.149h-17.18l-9.975-2.325-8.592 2.325H624.64l13.19-5.15h25.383zm29.427 6.936v13.565c0 1.73-.405 3.31-1.216 4.746-.814 1.434-2.044 2.731-3.688 3.89-1.644 1.16-3.713 2.198-6.207 3.114-2.494.915-5.44 1.718-8.84 2.41-6.76 1.384-14.15 2.076-22.169 2.076-7.499 0-14.65-.642-21.446-1.922-6.762-1.281-11.898-3.048-15.407-5.302-3.436-2.242-5.153-5.426-5.153-9.55V8.727h37.464V22.54c0 1.18.311 2 .942 2.46.664.436 1.827.653 3.49.653.997 0 1.803-.077 2.412-.23.609-.154 1.089-.397 1.44-.73.351-.334.592-.762.722-1.288.126-.525.191-1.159.191-1.902V8.727h37.465zm82.411 0v12.99h-18.842v16.33h-37.465v-16.33H699.9V8.726zM554.983 128.004a112 112 0 0 1-2.017 21.273c-1.344 6.959-3.363 13.88-6.047 20.755-2.691 6.879-6.072 13.817-10.147 20.822-4.078 7.005-8.845 14.161-14.31 21.464h37.724v35.066h-159.48c25.93-31.972 43.144-54.705 51.641-68.197 8.502-13.582 12.752-24.626 12.752-33.135 0-5.755-1.908-10.528-5.723-14.308-3.818-3.87-8.458-5.803-13.921-5.803-7.2 0-14.176 2.964-20.942 8.897-3.384 2.92-6.96 6.573-10.734 10.957-3.77 4.383-7.784 9.54-12.03 15.47l1.56-89.212c2.253-1.631 4.835-3.352 7.74-5.157 2.903-1.804 6.22-3.78 9.95-5.93 7.545-4.297 15.35-7.605 23.415-9.93 8.15-2.315 17.343-3.478 27.577-3.478 15.522 0 29.742 3.224 42.667 9.667 13.007 6.533 22.938 15.815 29.786 27.847 7.03 12.122 10.54 26.43 10.54 42.932m215.461 48.859c0 14.356-3.686 27.12-11.059 38.291-7.368 11.346-17.426 20.068-30.178 26.168-12.921 6.19-27.578 9.283-43.964 9.283-21.42 0-40.761-4.553-58.02-13.66-17.255-9.113-27.965-21.66-32.128-37.646l1.56-1.81c7.457 4.904 14.765 8.514 21.92 10.83 7.156 2.325 14.848 3.483 23.088 3.483 11.792 0 21.463-2.578 29.011-7.735 7.541-5.157 11.314-11.861 11.314-20.112 0-8.25-3.598-14.483-10.794-18.69-7.2-4.213-17.823-6.32-31.872-6.32-4.598 0-8.845.302-12.747.9-3.903.604-7.437 1.377-10.603 2.325-3.166.944-5.983 1.995-8.454 3.157-2.473 1.158-4.487 2.301-6.047 3.416l-2.081-1.678 29.266-116.412h150.244V85.85h-70.115l-6.892 26.553c22.111 1.377 39.064 7.866 50.86 19.47 11.792 11.43 17.69 26.426 17.69 44.99M554.983 289.231c0 2.803-.673 5.553-2.017 8.258-1.344 2.7-3.363 5.387-6.047 8.054-2.691 2.67-6.072 5.364-10.147 8.082-4.078 2.72-8.845 5.497-14.31 8.331h37.724v13.612h-159.48c25.93-12.411 43.144-21.234 51.641-26.47 8.502-5.272 12.752-9.56 12.752-12.861 0-2.234-1.908-4.086-5.723-5.553-3.818-1.504-8.458-2.253-13.921-2.253-7.2 0-14.176 1.15-20.942 3.454-3.384 1.133-6.96 2.55-10.734 4.252-3.77 1.702-7.784 3.703-12.03 6.005l1.56-34.627a217.037 217.037 0 0 1 7.74-2.002c2.903-.7 6.22-1.467 9.95-2.302 7.545-1.667 15.35-2.95 23.415-3.854 8.15-.898 17.343-1.35 27.577-1.35 15.522 0 29.742 1.252 42.667 3.752 13.007 2.537 22.938 6.139 29.786 10.808 7.03 4.707 10.54 10.26 10.54 16.664m215.461 18.964c0 5.572-3.686 10.527-11.059 14.862-7.368 4.404-17.426 7.79-30.178 10.157-12.921 2.402-27.578 3.603-43.964 3.603-21.42 0-40.761-1.767-58.02-5.302-17.255-3.537-27.965-8.407-32.128-14.612l1.56-.702c7.457 1.903 14.765 3.304 21.92 4.204 7.156.902 14.848 1.351 23.088 1.351 11.792 0 21.463-1.001 29.011-3.002 7.541-2 11.314-4.604 11.314-7.805 0-3.204-3.598-5.623-10.794-7.255-7.2-1.636-17.823-2.453-31.872-2.453-4.598 0-8.845.117-12.747.35-3.903.233-7.437.534-10.603.901-3.166.366-5.983.774-8.454 1.226-2.473.45-4.487.893-6.047 1.326l-2.081-.652 29.266-45.184h150.244v13.662h-70.115l-6.892 10.306c22.111.534 39.064 3.053 50.86 7.557 11.792 4.437 17.69 10.257 17.69 17.462M554.983 358.89c0 .9-.673 1.783-2.017 2.65-1.344.867-3.363 1.729-6.047 2.585-2.691.857-6.072 1.721-10.147 2.594-4.078.873-8.845 1.765-14.31 2.673h37.724v4.369h-159.48c25.93-3.983 43.144-6.815 51.641-8.495 8.502-1.692 12.752-3.067 12.752-4.128 0-.717-1.908-1.311-5.723-1.782-3.818-.483-8.458-.724-13.921-.724-7.2 0-14.176.37-20.942 1.11a294.6 294.6 0 0 0-10.734 1.364 432.67 432.67 0 0 0-12.03 1.928l1.56-11.114c2.253-.203 4.835-.418 7.74-.642 2.903-.226 6.22-.471 9.95-.74 7.545-.535 15.35-.946 23.415-1.236 8.15-.288 17.343-.433 27.577-.433 15.522 0 29.742.402 42.667 1.204 13.007.814 22.938 1.97 29.786 3.469 7.03 1.51 10.54 3.292 10.54 5.347m215.461 6.087c0 1.79-3.686 3.38-11.059 4.77-7.368 1.414-17.426 2.5-30.178 3.26-12.921.771-27.578 1.156-43.964 1.156-21.42 0-40.761-.567-58.02-1.702-17.255-1.134-27.965-2.697-32.128-4.688l1.56-.227a528.988 528.988 0 0 0 21.92 1.35c7.156.29 14.848.434 23.088.434 11.792 0 21.463-.322 29.011-.963 7.541-.643 11.314-1.478 11.314-2.506 0-1.028-3.598-1.804-10.794-2.328-7.2-.525-17.823-.788-31.872-.788-4.598 0-8.845.037-12.747.113-3.903.075-7.437.17-10.603.289-3.166.117-5.983.249-8.454.394a208.96 208.96 0 0 0-6.047.424l-2.081-.209 29.266-14.501h150.244v4.385h-70.115l-6.892 3.308c22.111.171 39.064.98 50.86 2.424 11.792 1.426 17.69 3.292 17.69 5.605" fill="#FB85ED" fill-rule="evenodd"/></svg>