<svg xmlns="http://www.w3.org/2000/svg" viewBox="0 0 822.8 822.8"><title>logo_2019</title><g id="Calque_2" data-name="Calque 2"><g id="Calque_1-2" data-name="Calque 1"><circle cx="411.4" cy="411.4" r="411.4" fill="#fff"/><path d="M150.5,631c.6,3.8,3.9,5.8,8.7,5.8s6.8-1.6,6.8-4.8-5.2-4.6-10-5.7-11.8-3.5-11.8-11.6,5.6-11.3,14.1-11.3,13.1,3.1,15.2,9.9l-7.4,1.9c-1-3.2-3.5-5-8-5s-6.1,1.6-6.1,4.3,4.1,4.6,9.5,5.7,12.2,3.3,12.2,11.8-5.4,11.5-14.5,11.5c-6.6,0-14.2-2-16.1-10.5Z" fill="#6f1512"/><path d="M178.9,611.9h23.4v6.8H186.2v5.1H198v6.5H186.2V636h16.4v6.8H178.9Z" fill="#6f1512"/><path d="M233.8,628.9v-6.3h-.1l-6.6,12.7h-4.7l-6.7-13.1h-.2v20.6h-7V611.9h8.8l5,9c1.7,3.2,2.8,5.5,2.8,5.5h.2c.1,0,1.2-2.3,2.9-5.5l4.8-9h8.1v30.9h-7.3Z" fill="#6f1512"/><path d="M276.1,628.4c0,10.4-5.6,15-14.2,15s-14.2-4.6-14.2-15V611.9h7.4V629c0,5.4,2.3,7.8,6.9,7.8s6.9-2.4,6.9-7.8V611.9h7.2Z" fill="#6f1512"/><path d="M294.9,632.2H290v10.6h-7.3V611.9h12c8.2,0,12.9,3.9,12.9,10.2a8.7,8.7,0,0,1-5.8,8.7l7.3,12h-7.8Zm.3-5.6c3.3,0,5-1.4,5-4.1s-1.7-4.1-5-4.1H290v8.2Z" fill="#6f1512"/><path d="M329,630.3V624h22v6.3Z" fill="#6f1512"/><path d="M373.1,611.9h23.5v6.8H380.4v5.1h11.9v6.5H380.4V636h16.5v6.8H373.1Z" fill="#6f1512"/><path d="M424,642.8l-13.9-19.7H410s.1,3.4.1,6.9v12.8h-7.3V611.9h7.5L424.2,631h.2s-.1-2.9-.1-6V611.9h7.3v30.9Z" fill="#6f1512"/><path d="M453.7,630.3V624h22v6.3Z" fill="#6f1512"/><path d="M506.3,635.1l-3,7.7h-8.1l15.5-38.6h8.6l15.5,38.6h-8.2l-3-7.7Zm11.4-15.5c-1.3-3.3-2.6-6.7-2.7-6.8h-.1c-.1.1-1.4,3.4-2.7,6.8l-3.3,8.5h12Z" fill="#6f1512"/><path d="M565.4,628.4c0,10.4-5.6,15-14.2,15s-14.2-4.6-14.2-15V611.9h7.4V629c0,5.4,2.3,7.8,6.9,7.8s6.9-2.4,6.9-7.8V611.9h7.2Z" fill="#6f1512"/><path d="M588.2,637.1c-2.2-3-3.3-4.7-3.4-4.7h-.1s-1.2,1.6-3.3,4.8l-3.9,5.6h-8.2L580.5,627l-10.4-15.1h8.7l3.3,5c2.3,3.3,3.4,5,3.5,5h0c.1,0,1.3-1.9,3.6-5.2l3-4.8h7.9L589.7,627,601,642.8h-8.8Z" fill="#6f1512"/><path d="M618.6,611.3c9.5,0,16.5,6.7,16.5,16s-7,16.1-16.5,16.1S602,636.7,602,627.3,609,611.3,618.6,611.3Zm0,25.5c5.3,0,9.1-3.8,9.1-9.5s-3.8-9.3-9.1-9.3-9.2,3.8-9.2,9.3S613.2,636.8,618.6,636.8Z" fill="#6f1512"/><path d="M640.3,611.9h7.3v30.9h-7.3Z" fill="#6f1512"/><path d="M659.2,633.3c.4,2.2,2.4,4.5,6.8,4.5s5-1.1,5-3.7-3.7-3.6-9.3-4.8c-4-1-8.5-2.6-8.5-8.7s4.6-9.3,12.1-9.3,11.4,2.6,12.8,7.6l-6.3,1.8c-.7-2.3-2.7-3.8-6.1-3.8s-5,1.2-5,3.4,2.7,3.1,7.7,4.1,10.1,2.4,10.1,9.6-5.4,9.4-12.5,9.4c-5.4,0-11.9-1.6-13.3-8.3Z" fill="#6f1512"/><path d="M250.9,665.4c4.7,0,7.6,2.4,7.6,6.7s-2.9,6.5-7.6,6.5h-3v6.6h-4V665.4Zm.1,9.8c2.4,0,3.6-1.2,3.6-3.1s-1.2-3.1-3.6-3.1h-3.1v6.2Z" fill="#6f1512"/><path d="M263.1,681.3l-1.5,3.9h-4.1l7.9-19.8h4.5l7.9,19.8h-4.2l-1.5-3.9Zm5.9-7.9a24.9,24.9,0,0,0-1.4-3.5h0a36.5,36.5,0,0,0-1.4,3.5l-1.7,4.3h6.2Z" fill="#6f1512"/><path d="M286.8,678.3h-2.9v6.9H280V665.4h7c4.9,0,7.8,2.5,7.8,6.5a5.5,5.5,0,0,1-4,5.6l4.6,7.7h-4.6Zm.5-3.2c2.2,0,3.5-.9,3.5-3s-1.3-3.1-3.5-3.1h-3.4v6.1Z" fill="#6f1512"/><path d="M316.4,679.5a10.2,10.2,0,0,1-19.6-4.2A9.9,9.9,0,0,1,307,665c4.6,0,7.9,2.5,9.2,5.6l-3.9,1.1a6.2,6.2,0,0,0-5.5-3c-3.6,0-6.1,2.6-6.1,6.6s2.6,6.6,6.1,6.6a6,6,0,0,0,5.7-3.5Z" fill="#6f1512"/><path d="M334.1,665.4c5.9,0,10.4,4,10.4,10s-4.5,9.8-10.4,9.8h-8V665.4Zm-.2,16.2c3.5,0,6.7-1.9,6.7-6.2s-3.2-6.3-6.8-6.3h-3.7v12.5Z" fill="#6f1512"/><path d="M347.2,665.4h14.1v3.7H351.1v4.1h7.7v3.7h-7.7v4.7h10.3v3.6H347.2Z" fill="#6f1512"/><path d="M367.3,679.2c.3,1.9,2,3,4.4,3s3.5-.9,3.5-2.5-2.6-2.3-5.1-2.9-6.1-1.8-6.1-5.9,2.9-5.9,7.3-5.9,6.7,1.6,7.8,5.1l-3.8,1c-.5-1.7-1.8-2.6-4.1-2.6s-3.1.9-3.1,2.2,2.1,2.4,4.8,3,6.3,1.7,6.3,6-2.8,5.9-7.5,5.9-7.2-1-8.2-5.4Z" fill="#6f1512"/><path d="M400.4,685.5v3.7h-4v-3.7a10,10,0,0,1-8.4-10.2c0-6.1,4.4-10.3,10.4-10.3s10.4,4.2,10.4,10.3A10,10,0,0,1,400.4,685.5Zm4.4-10.2a6.4,6.4,0,1,0-6.4,6.6C402.1,681.9,404.8,679.4,404.8,675.3Z" fill="#6f1512"/><path d="M428.2,676.6c0,5.8-3.2,9-8.3,9s-8.4-3.2-8.4-9V665.4h3.9v11.1c0,3.7,1.5,5.4,4.5,5.4s4.4-1.7,4.4-5.4V665.4h3.9Z" fill="#6f1512"/><path d="M431.6,665.4h3.9v19.8h-3.9Z" fill="#6f1512"/><path d="M443.1,672H443v13.2h-3.9V665.4h4l9.5,13.1h.1c0-.1-.1-2.5-.1-4.7v-8.4h3.9v19.8h-4Z" fill="#6f1512"/><path d="M478.8,679.5a10.2,10.2,0,0,1-19.6-4.2A9.9,9.9,0,0,1,469.4,665c4.6,0,7.9,2.5,9.2,5.6l-3.9,1.1a6,6,0,0,0-5.4-3c-3.7,0-6.1,2.6-6.1,6.6s2.6,6.6,6,6.6a6.3,6.3,0,0,0,5.8-3.5Z" fill="#6f1512"/><path d="M491,665c6,0,10.4,4.2,10.4,10.3S497,685.6,491,685.6s-10.4-4.2-10.4-10.3S485,665,491,665Zm0,16.9a6.6,6.6,0,1,0-6.4-6.6C484.6,679.4,487.3,681.9,491,681.9Z" fill="#6f1512"/><path d="M508,672h-.1s.1,2.4.1,4.9v8.3h-3.9V665.4H508l9.5,13.1h.1V665.4h3.9v19.8h-4Z" fill="#6f1512"/><path d="M543.8,679.5a9.8,9.8,0,0,1-9.4,6.1c-5.9,0-10.2-4.1-10.2-10.3A9.8,9.8,0,0,1,534.4,665c4.6,0,7.9,2.5,9.2,5.6l-3.9,1.1a6.2,6.2,0,0,0-5.5-3c-3.6,0-6.1,2.6-6.1,6.6s2.6,6.6,6.1,6.6a6,6,0,0,0,5.7-3.5Z" fill="#6f1512"/><path d="M546.5,665.4h14v3.7H550.4v4.1H558v3.7h-7.6v4.7h10.2v3.6H546.5Z" fill="#6f1512"/><path d="M566.5,679.2c.3,1.9,2.1,3,4.5,3s3.5-.9,3.5-2.5-2.7-2.3-5.2-2.9-6-1.8-6-5.9,2.9-5.9,7.2-5.9,6.8,1.6,7.8,5.1l-3.7,1c-.6-1.7-1.9-2.6-4.1-2.6s-3.2.9-3.2,2.2,2.1,2.4,4.9,3,6.3,1.7,6.3,6-2.8,5.9-7.5,5.9-7.3-1-8.2-5.4Z" fill="#6f1512"/><path d="M366.3,291v65.3a28.8,28.8,0,0,1-22.9,28.2,29.8,29.8,0,0,1-11.9,0,28.8,28.8,0,0,1-22.9-28.2V291h22.9v65.3a6,6,0,0,0,11.9,0V291Z" fill="#6f1512"/><path d="M441.7,375.7l-18-22.8h18V291H379.3v39h-7.1v22.9h7.1v32.2h22.9l.2-22.4,16.4,20.9,4.6,5.8Zm-23-45.7H402.3V313.9h16.4Z" fill="#6f1512"/><path d="M604.9,291v65.3a28.7,28.7,0,0,1-28.8,28.8,28.1,28.1,0,0,1-5.9-.6,28.8,28.8,0,0,1-23-28.2V291h23v65.3a5.9,5.9,0,0,0,5.9,5.9,6,6,0,0,0,5.9-5.9V291Z" fill="#6f1512"/><path d="M680.3,375.7l-17.9-22.8h17.9V291H618v39h-7.2v22.9H618l-.2,32.2h22.9l.2-22.4,16.5,20.9,4.5,5.8ZM657.4,330H640.9V313.9h16.5Z" fill="#6f1512"/><polygon points="534.2 291 534.2 385.3 511.2 385.3 511.2 330.9 508.9 334 494.5 352.9 480 334 477.7 330.9 477.7 385.3 454.7 385.3 454.7 291 475.9 291 477.7 293.2 494.5 315.1 511.2 293.2 513 291 534.2 291" fill="#6f1512"/><polygon points="343.9 412.2 343.9 424.2 362.8 424.2 362.8 435.9 343.9 435.9 343.9 453.7 331.4 453.7 331.4 400.5 369.8 400.5 369.8 412.2 343.9 412.2" fill="#6f1512"/><polygon points="379.3 400.5 419.7 400.5 419.7 412.2 391.8 412.2 391.8 421 412.3 421 412.3 432.2 391.8 432.2 391.8 442.1 420.2 442.1 420.2 453.7 379.3 453.7 379.3 400.5" fill="#6f1512"/><path d="M438.5,437.4c.7,3.8,4.1,7.7,11.6,7.7,5.2,0,8.7-1.9,8.7-6.3,0-6-6.4-6.2-16-8.3-7-1.7-14.7-4.4-14.7-15s7.9-16,20.8-16,19.6,4.5,22.1,13.2l-10.9,2.9c-1.2-3.9-4.7-6.4-10.5-6.4s-8.5,2.1-8.5,5.8,4.5,5.3,13.1,7c7,1.4,17.4,4.3,17.4,16.5s-9.2,16.3-21.5,16.3c-9.3,0-20.5-2.7-22.9-14.4Z" fill="#6f1512"/><polygon points="504.7 412.2 504.7 453.7 494.1 453.7 494.1 412.2 474.6 412.2 474.6 400.5 522.2 400.5 522.2 412.2 504.7 412.2" fill="#6f1512"/><rect x="533.3" y="400.5" width="12.5" height="53.23" fill="#6f1512"/><path d="M574.1,453.7,553,400.5h13.9l8.7,22.6c4.3,11.2,6.2,17,6.3,17.2h.3l6.3-17.1,8.6-22.7h13.3l-21.1,53.2Z" fill="#6f1512"/><path d="M622.3,442.8l-3.7,10.9H605.8l19.9-53.2h15.5L661,453.7H648.1l-3.8-10.9Zm15.4-19.2c-3-8.7-4.1-12.6-4.2-12.8h-.3l-4.6,13.4-2.6,7.9h14.7Z" fill="#6f1512"/><polygon points="668.6 400.5 681.2 400.5 681.2 442.1 706 442.1 706 453.7 668.6 453.7 668.6 400.5" fill="#6f1512"/><path d="M310.9,412.3H250.2l-6.8-27.4h0l-10.1-40.6-9.9,40.1v.5H162.9v-.5l-10-40.1-10,40.6H82.1L112,264H91.1V221.5H183l10,40.6,10.1-40.6h42.5A88.2,88.2,0,0,0,276,270l1.5,7.8,26.6,107.1Z" fill="#6f1512"/><path d="M292.3,201.3a39.5,39.5,0,0,0,39.5,39.4h34.5v38.2H331.8a77.9,77.9,0,0,1-75-57.4,78.8,78.8,0,0,1-2.6-20.2,77.5,77.5,0,0,1,132.4-54.8l-6.2,6.2-20.8,20.8a39.3,39.3,0,0,0-52.7-2.8,39.5,39.5,0,0,0-14.6,30.6" fill="#6f1512"/><polygon points="718.7 314.3 718.7 326.4 748.6 326.4 748.6 349.7 718.7 349.7 718.7 361.8 755.7 361.8 755.7 385.1 693.4 385.1 693.4 291 755.7 291 755.7 314.3 718.7 314.3" fill="#6f1512"/><polygon points="404.7 208 404.7 220.1 434.6 220.1 434.6 243.4 404.7 243.4 404.7 255.5 441.7 255.5 441.7 278.9 379.3 278.9 379.3 184.7 441.7 184.7 441.7 208 404.7 208" fill="#6f1512"/><path d="M368.8,520.6h-.2c-.1.1-2.3,5.6-4.4,11l-5.3,13.7h19.5l-5.2-13.7C371.1,526.3,368.9,520.7,368.8,520.6Z" fill="#6f1512"/><path d="M663.3,499a10.5,10.5,0,1,0,10.4,10.4A10.5,10.5,0,0,0,663.3,499Z" fill="#6f1512"/><path d="M714.3,497.5a6.1,6.1,0,0,0-5.1,10.9,6.1,6.1,0,0,0,7.7-.5C720.3,504.8,718.8,498.6,714.3,497.5Z" fill="#6f1512"/><path d="M429.4,519a18.9,18.9,0,1,0,18.9,18.8A18.8,18.8,0,0,0,429.4,519Z" fill="#6f1512"/><path d="M610.9,471.1,595.6,486h-279l-28.7-30.3H118.6L28.1,546.9h229l38.5,39.6H572.5L610.9,548H734l76.9-76.9Zm-468,59.5H106.1V520.5c0-9.8,18.1-14.5,22.7-18.4,2.4-2,2.9-3.4,2.9-5.6a7.4,7.4,0,0,0-7.6-7.2c-4.2,0-7,3.5-7.9,7.4L106.1,494c1.9-9.2,9.1-15.1,18-15.1s18.4,2.2,18.4,17.6a14.9,14.9,0,0,1-4.3,10.8c-3.4,3.4-7.6,5.5-11.9,7.5s-7.6,3.6-7.6,5.7h24.2Zm20.8,0a19.1,19.1,0,0,1-19.1-19.1h9.3a9.8,9.8,0,1,0,13.6-9.1l-5.8-2.4,3.3-7.6,1.6-3.9H147.2v-9.4H180l-3.7,8.7-3,7.1a19.2,19.2,0,0,1-9.6,35.7Zm42.4-17.2H189.5V503.3h16.6Zm41.8,17.2H211.1V520.5c0-9.8,18.1-14.5,22.7-18.4,2.4-2,2.9-3.4,2.9-5.6a7.4,7.4,0,0,0-7.6-7.2c-4.2,0-7,3.5-7.9,7.4L211.1,494c1.9-9.2,9.1-15.1,18-15.1s18.4,2.2,18.4,17.6a14.9,14.9,0,0,1-4.3,10.8c-3.4,3.4-7.6,5.5-11.9,7.5s-7.6,3.6-7.6,5.7h24.2Zm38.9-9.5h-7.2v9.6h-8.3v-9.6H256.5l-5.1-3.3-3-1.9,23.4-36.6,8.6,5.4-17.2,26.8h8.1v-7.2h8.3v7.2h7.2ZM387.4,569l-4.7-12.5h-28L350,569H336.9l24.9-62.3h14L400.7,569Zm42,.2a31.4,31.4,0,1,1,31.3-31.4A31.4,31.4,0,0,1,429.4,569.2Zm73.9-18.7a18.5,18.5,0,0,1-14.7,18.1,18.3,18.3,0,0,1-7.6,0,18.5,18.5,0,0,1-14.7-18.1V524.6H481v25.9a3.8,3.8,0,1,0,7.6,0V524.6h14.7Zm47.4-31.3H524V569H510.8V519.2H465.7V506.7h85Zm89.9,8.8H614.2v-7.2c0-7.1,13-10.4,16.3-13.2,1.7-1.5,2-2.4,2-4a5.3,5.3,0,0,0-5.4-5.2c-2.9,0-5,2.5-5.6,5.3l-7.3-1.9c1.4-6.6,6.5-10.8,12.9-10.8s13.2,1.6,13.2,12.6a10.5,10.5,0,0,1-3.1,7.7c-2.4,2.5-5.5,4-8.5,5.4s-5.4,2.6-5.4,4.1h17.3Zm22.7,0a18.6,18.6,0,1,1,18.6-18.6A18.5,18.5,0,0,1,663.3,528Zm31.1,0h-7.3V491h7.3Zm29.8-22.2a17.1,17.1,0,0,1-2.9,5.7c-1.5,2-3,4-4.4,6.1l-7.4,10.2-4.2-3,7.1-9.9a11.7,11.7,0,0,1-7.8-20.2,11.9,11.9,0,0,1,15.1-1.1A11.8,11.8,0,0,1,724.2,505.8Z" fill="#6f1512"/></g></g></svg>